  0
SECTION
  2
HEADER
  9
$ACADVER
  1
AC1009
  9
$DWGCODEPAGE
  3
ansi_1252
  9
$INSBASE
 10
0.0
 20
0.0
 30
0.0
  9
$EXTMIN
 10
0.253287806448066
 20
0.5441130677065154
 30
0.0
  9
$EXTMAX
 10
350.7541333702562
 20
167.6147169279031
 30
0.0
  9
$LIMMIN
 10
0.0
 20
0.0
  9
$LIMMAX
 10
12.0
 20
9.0
  9
$ORTHOMODE
 70
     0
  9
$REGENMODE
 70
     1
  9
$FILLMODE
 70
     1
  9
$QTEXTMODE
 70
     0
  9
$MIRRTEXT
 70
     1
  9
$DRAGMODE
 70
     2
  9
$LTSCALE
 40
1.0
  9
$OSMODE
 70
    37
  9
$ATTMODE
 70
     1
  9
$TEXTSIZE
 40
0.2
  9
$TRACEWID
 40
0.05
  9
$TEXTSTYLE
  7
STANDARD
  9
$CLAYER
  8
0
  9
$CELTYPE
  6
BYLAYER
  9
$CECOLOR
 62
   256
  9
$DIMSCALE
 40
1.0
  9
$DIMASZ
 40
0.18
  9
$DIMEXO
 40
0.0625
  9
$DIMDLI
 40
0.38
  9
$DIMRND
 40
0.0
  9
$DIMDLE
 40
0.0
  9
$DIMEXE
 40
0.18
  9
$DIMTP
 40
0.0
  9
$DIMTM
 40
0.0
  9
$DIMTXT
 40
0.18
  9
$DIMCEN
 40
0.09
  9
$DIMTSZ
 40
0.0
  9
$DIMTOL
 70
     0
  9
$DIMLIM
 70
     0
  9
$DIMTIH
 70
     1
  9
$DIMTOH
 70
     1
  9
$DIMSE1
 70
     0
  9
$DIMSE2
 70
     0
  9
$DIMTAD
 70
     0
  9
$DIMZIN
 70
     0
  9
$DIMBLK
  1

  9
$DIMASO
 70
     1
  9
$DIMSHO
 70
     1
  9
$DIMPOST
  1

  9
$DIMAPOST
  1

  9
$DIMALT
 70
     0
  9
$DIMALTD
 70
     2
  9
$DIMALTF
 40
25.4
  9
$DIMLFAC
 40
1.0
  9
$DIMTOFL
 70
     0
  9
$DIMTVP
 40
0.0
  9
$DIMTIX
 70
     0
  9
$DIMSOXD
 70
     0
  9
$DIMSAH
 70
     0
  9
$DIMBLK1
  1

  9
$DIMBLK2
  1

  9
$DIMSTYLE
  2
STANDARD
  9
$DIMCLRD
 70
     0
  9
$DIMCLRE
 70
     0
  9
$DIMCLRT
 70
     0
  9
$DIMTFAC
 40
1.0
  9
$DIMGAP
 40
0.09
  9
$LUNITS
 70
     2
  9
$LUPREC
 70
     4
  9
$SKETCHINC
 40
0.1
  9
$FILLETRAD
 40
0.5
  9
$AUNITS
 70
     0
  9
$AUPREC
 70
     0
  9
$MENU
  1
.
  9
$ELEVATION
 40
0.0
  9
$PELEVATION
 40
0.0
  9
$THICKNESS
 40
0.0
  9
$LIMCHECK
 70
     0
  9
$CHAMFERA
 40
0.0
  9
$CHAMFERB
 40
0.0
  9
$SKPOLY
 70
     0
  9
$TDCREATE
 40
2454910.5
  9
$TDUPDATE
 40
2459265.904703345
  9
$TDINDWG
 40
0.0000000116
  9
$TDUSRTIMER
 40
0.0000000116
  9
$USRTIMER
 70
     1
  9
$ANGBASE
 50
0.0
  9
$ANGDIR
 70
     0
  9
$PDMODE
 70
     0
  9
$PDSIZE
 40
0.0
  9
$PLINEWID
 40
0.0
  9
$COORDS
 70
     1
  9
$SPLFRAME
 70
     0
  9
$SPLINETYPE
 70
     6
  9
$SPLINESEGS
 70
     8
  9
$ATTDIA
 70
     0
  9
$ATTREQ
 70
     1
  9
$HANDLING
 70
     1
  9
$HANDSEED
  5
7BC
  9
$SURFTAB1
 70
     6
  9
$SURFTAB2
 70
     6
  9
$SURFTYPE
 70
     6
  9
$SURFU
 70
     6
  9
$SURFV
 70
     6
  9
$UCSNAME
  2

  9
$UCSORG
 10
0.0
 20
0.0
 30
0.0
  9
$UCSXDIR
 10
1.0
 20
0.0
 30
0.0
  9
$UCSYDIR
 10
0.0
 20
1.0
 30
0.0
  9
$PUCSNAME
  2

  9
$PUCSORG
 10
0.0
 20
0.0
 30
0.0
  9
$PUCSXDIR
 10
1.0
 20
0.0
 30
0.0
  9
$PUCSYDIR
 10
0.0
 20
1.0
 30
0.0
  9
$USERI1
 70
     0
  9
$USERI2
 70
     0
  9
$USERI3
 70
     0
  9
$USERI4
 70
     0
  9
$USERI5
 70
     0
  9
$USERR1
 40
0.0
  9
$USERR2
 40
0.0
  9
$USERR3
 40
0.0
  9
$USERR4
 40
0.0
  9
$USERR5
 40
0.0
  9
$WORLDVIEW
 70
     1
  9
$SHADEDGE
 70
     3
  9
$SHADEDIF
 70
    70
  9
$TILEMODE
 70
     1
  9
$MAXACTVP
 70
    64
  9
$PLIMCHECK
 70
     0
  9
$PEXTMIN
 10
1.000000000000000E+20
 20
1.000000000000000E+20
 30
1.000000000000000E+20
  9
$PEXTMAX
 10
-1.000000000000000E+20
 20
-1.000000000000000E+20
 30
-1.000000000000000E+20
  9
$PLIMMIN
 10
0.0
 20
0.0
  9
$PLIMMAX
 10
12.0
 20
9.0
  9
$UNITMODE
 70
     0
  9
$VISRETAIN
 70
     1
  9
$PLINEGEN
 70
     0
  9
$PSLTSCALE
 70
     1
  0
ENDSEC
  0
SECTION
  2
TABLES
  0
TABLE
  2
VPORT
 70
     1
  0
VPORT
  2
*ACTIVE
 70
     0
 10
0.0
 20
0.0
 11
1.0
 21
1.0
 12
10.42990654205607
 22
4.5
 13
0.0
 23
0.0
 14
0.5
 24
0.5
 15
0.5
 25
0.5
 16
0.0
 26
0.0
 36
1.0
 17
0.0
 27
0.0
 37
0.0
 40
9.0
 41
1.972972972850329
 42
50.0
 43
0.0
 44
0.0
 50
0.0
 51
0.0
 71
     0
 72
   100
 73
     1
 74
     3
 75
     0
 76
     0
 77
     0
 78
     0
  0
ENDTAB
  0
TABLE
  2
LTYPE
 70
     2
  0
LTYPE
  2
CONTINUOUS
 70
     0
  3
Solid line
 72
    65
 73
     0
 40
0.0
  0
LTYPE
  2
CONTINUOUS2
 70
     0
  3
Solid Line
 72
    65
 73
     0
 40
0.0
  0
ENDTAB
  0
TABLE
  2
LAYER
 70
     1
  0
LAYER
  2
0
 70
     0
 62
     7
  6
CONTINUOUS
  0
ENDTAB
  0
TABLE
  2
STYLE
 70
     1
  0
STYLE
  2
STANDARD
 70
     0
 40
0.0
 41
1.0
 50
0.0
 71
     0
 42
0.2
  3
txt
  4

  0
ENDTAB
  0
TABLE
  2
VIEW
 70
     0
  0
ENDTAB
  0
TABLE
  2
UCS
 70
     0
  0
ENDTAB
  0
TABLE
  2
APPID
 70
     1
  0
APPID
  2
ACAD
 70
     0
  0
ENDTAB
  0
TABLE
  2
DIMSTYLE
 70
     1
  0
DIMSTYLE
  2
STANDARD
 70
     0
  3

  4

  5

  6

  7

 40
1.0
 41
0.18
 42
0.0625
 43
0.38
 44
0.18
 45
0.0
 46
0.0
 47
0.0
 48
0.0
140
0.18
141
0.09
142
0.0
143
25.4
144
1.0
145
0.0
146
1.0
147
0.09
 71
     0
 72
     0
 73
     1
 74
     1
 75
     0
 76
     0
 77
     0
 78
     0
170
     0
171
     2
172
     0
173
     0
174
     0
175
     0
176
     0
177
     0
178
     0
  0
ENDTAB
  0
ENDSEC
  0
SECTION
  2
BLOCKS
  0
BLOCK
  8
0
  2
$MODEL_SPACE
 70
     0
 10
0.0
 20
0.0
 30
0.0
  3
$MODEL_SPACE
  1

  0
ENDBLK
  5
21
  8
0
  0
BLOCK
 67
     1
  8
0
  2
$PAPER_SPACE
 70
     0
 10
0.0
 20
0.0
 30
0.0
  3
$PAPER_SPACE
  1

  0
ENDBLK
  5
1D
 67
     1
  8
0
  0
ENDSEC
  0
SECTION
  2
ENTITIES
  0
POLYLINE
  5
6B
  8
0
 66
     1
 10
0.0
 20
0.0
 30
0.0
 70
     1
  0
VERTEX
  5
F2
  8
0
 10
54.32407791801767
 20
26.75885114814007
 30
0.0
 42
0.3251169026083013
  0
VERTEX
  5
F3
  8
0
 10
55.6446189944184
 20
20.12618229674552
 30
0.0
 42
-0.0599874154204256
  0
VERTEX
  5
F4
  8
0
 10
62.35803249789925
 20
12.24206478081371
 30
0.0
 42
0.9999999999999838
  0
VERTEX
  5
F5
  8
0
 10
64.44156770656278
 20
13.62368738998855
 30
0.0
 42
0.0599874154202842
  0
VERTEX
  5
F6
  8
0
 10
57.34064059700156
 20
21.96289422940815
 30
0.0
 42
-0.3251169026083042
  0
VERTEX
  5
F7
  8
0
 10
56.59424781466928
 20
25.71179401498789
 30
0.0
 42
-0.292608549755414
  0
VERTEX
  5
F8
  8
0
 10
58.63740072172914
 20
27.01944259508664
 30
0.0
 42
0.4142135623730971
  0
VERTEX
  5
F9
  8
0
 10
59.88740072173149
 20
28.26944259508674
 30
0.0
 42
0.4142135623730999
  0
VERTEX
  5
FA
  8
0
 10
58.63740072173142
 20
29.51944259508663
 30
0.0
 42
0.2926085497554156
  0
SEQEND
  5
73C
  8
0
  0
POLYLINE
  5
6C
  8
0
 66
     1
 10
0.0
 20
0.0
 30
0.0
 70
     1
  0
VERTEX
  5
FB
  8
0
 10
60.90941901723149
 20
21.72944684848662
 30
0.0
 42
0.4142135623730849
  0
VERTEX
  5
FC
  8
0
 10
62.15941901723149
 20
20.47944684848663
 30
0.0
 42
0.4142135623730921
  0
VERTEX
  5
FD
  8
0
 10
63.40941901723149
 20
21.72944684848663
 30
0.0
 42
0.4142135623730931
  0
VERTEX
  5
FE
  8
0
 10
62.15941901723149
 20
22.97944684848663
 30
0.0
 42
0.1622770523438774
  0
VERTEX
  5
FF
  8
0
 10
61.40943670419721
 20
22.72946453545234
 30
0.0
 42
0.1622681024946957
  0
VERTEX
  5
100
  8
0
 10
61.65941901723149
 20
23.47944684848663
 30
0.0
 42
0.4142135623730971
  0
VERTEX
  5
101
  8
0
 10
60.40941901723149
 20
24.72944684848663
 30
0.0
 42
0.4142135623730931
  0
VERTEX
  5
102
  8
0
 10
59.15941901723149
 20
23.47944684848662
 30
0.0
 42
0.4142135623730939
  0
VERTEX
  5
103
  8
0
 10
60.40941901723149
 20
22.22944684848663
 30
0.0
 42
0.1622770523438282
  0
VERTEX
  5
104
  8
0
 10
61.15940133026579
 20
22.47942916152092
 30
0.0
 42
0.162268102494656
  0
SEQEND
  5
73D
  8
0
  0
POLYLINE
  5
6D
  8
0
 66
     1
 10
0.0
 20
0.0
 30
0.0
 70
     1
  0
VERTEX
  5
105
  8
0
 10
58.63740072173062
 20
31.51944259508666
 30
0.0
 42
0.2926085497554143
  0
VERTEX
  5
106
  8
0
 10
52.50794200062484
 20
27.59649685472334
 30
0.0
 42
0.3251169026091503
  0
VERTEX
  5
107
  8
0
 10
54.28780171238508
 20
18.65681275059613
 30
0.0
 42
-0.0890054735489461
  0
VERTEX
  5
108
  8
0
 10
63.09162744644683
 20
7.019442595118154
 30
0.0
  0
VERTEX
  5
109
  8
0
 10
64.49485748541724
 20
7.019442595124186
 30
0.0
 42
-0.36838057220139
  0
VERTEX
  5
10A
  8
0
 10
65.48225543372726
 20
7.861092039386632
 30
0.0
 42
-0.4456393487980416
  0
VERTEX
  5
10B
  8
0
 10
66.47663462432327
 20
6.755195839938109
 30
0.0
  0
VERTEX
  5
10C
  8
0
 10
69.97181691069756
 20
6.787716191156762
 30
0.0
  0
VERTEX
  5
10D
  8
0
 10
69.97663462434424
 20
16.064019630687
 30
0.0
 42
-0.1722196306094659
  0
VERTEX
  5
10E
  8
0
 10
75.46281662992179
 20
31.51944259508278
 30
0.0
  0
VERTEX
  5
10F
  8
0
 10
70.7767354498449
 20
31.51944259508646
 30
0.0
 42
-0.8810240304738889
  0
VERTEX
  5
110
  8
0
 10
68.80847902183147
 20
31.76944259508663
 30
0.0
  0
VERTEX
  5
111
  8
0
 10
65.30847902183152
 20
31.76944259508663
 30
0.0
 42
-0.8810136929932972
  0
VERTEX
  5
112
  8
0
 10
63.34022259381799
 20
31.51944259508663
 30
0.0
  0
SEQEND
  5
73E
  8
0
  0
POLYLINE
  5
6E
  8
0
 66
     1
 10
0.0
 20
0.0
 30
0.0
 70
     1
  0
VERTEX
  5
113
  8
0
 10
101.305983685775
 20
26.75885114814007
 30
0.0
 42
-0.3251169026083013
  0
VERTEX
  5
114
  8
0
 10
99.98544260937425
 20
20.12618229674552
 30
0.0
 42
0.0599874154204256
  0
VERTEX
  5
115
  8
0
 10
93.27202910589338
 20
12.24206478081371
 30
0.0
 42
-0.9999999999999838
  0
VERTEX
  5
116
  8
0
 10
91.18849389722986
 20
13.62368738998855
 30
0.0
 42
-0.0599874154202842
  0
VERTEX
  5
117
  8
0
 10
98.28942100679109
 20
21.96289422940815
 30
0.0
 42
0.3251169026083042
  0
VERTEX
  5
118
  8
0
 10
99.03581378912338
 20
25.71179401498789
 30
0.0
 42
0.292608549755414
  0
VERTEX
  5
119
  8
0
 10
96.9926608820635
 20
27.01944259508664
 30
0.0
 42
-0.4142135623730971
  0
VERTEX
  5
11A
  8
0
 10
95.74266088206116
 20
28.26944259508674
 30
0.0
 42
-0.4142135623730999
  0
VERTEX
  5
11B
  8
0
 10
96.99266088206123
 20
29.51944259508663
 30
0.0
 42
-0.2926085497554156
  0
SEQEND
  5
73F
  8
0
  0
POLYLINE
  5
6F
  8
0
 66
     1
 10
0.0
 20
0.0
 30
0.0
 70
     1
  0
VERTEX
  5
11C
  8
0
 10
94.72064258656115
 20
21.72944684848662
 30
0.0
 42
-0.4142135623730849
  0
VERTEX
  5
11D
  8
0
 10
93.47064258656113
 20
20.47944684848663
 30
0.0
 42
-0.4142135623730921
  0
VERTEX
  5
11E
  8
0
 10
92.22064258656114
 20
21.72944684848663
 30
0.0
 42
-0.4142135623730931
  0
VERTEX
  5
11F
  8
0
 10
93.47064258656114
 20
22.97944684848663
 30
0.0
 42
-0.1622770523438774
  0
VERTEX
  5
120
  8
0
 10
94.22062489959542
 20
22.72946453545234
 30
0.0
 42
-0.1622681024946957
  0
VERTEX
  5
121
  8
0
 10
93.97064258656114
 20
23.47944684848663
 30
0.0
 42
-0.4142135623730971
  0
VERTEX
  5
122
  8
0
 10
95.22064258656115
 20
24.72944684848663
 30
0.0
 42
-0.4142135623730931
  0
VERTEX
  5
123
  8
0
 10
96.47064258656114
 20
23.47944684848662
 30
0.0
 42
-0.4142135623730939
  0
VERTEX
  5
124
  8
0
 10
95.22064258656115
 20
22.22944684848663
 30
0.0
 42
-0.1622770523438282
  0
VERTEX
  5
125
  8
0
 10
94.47066027352685
 20
22.47942916152092
 30
0.0
 42
-0.162268102494656
  0
SEQEND
  5
740
  8
0
  0
POLYLINE
  5
70
  8
0
 66
     1
 10
0.0
 20
0.0
 30
0.0
 70
     1
  0
VERTEX
  5
126
  8
0
 10
96.99266088206203
 20
31.51944259508666
 30
0.0
 42
-0.2926085497554143
  0
VERTEX
  5
127
  8
0
 10
103.1221196031678
 20
27.59649685472334
 30
0.0
 42
-0.3251169026091503
  0
VERTEX
  5
128
  8
0
 10
101.3422598914076
 20
18.65681275059613
 30
0.0
 42
0.0890054735489461
  0
VERTEX
  5
129
  8
0
 10
92.5384341573458
 20
7.019442595118154
 30
0.0
  0
VERTEX
  5
12A
  8
0
 10
91.1352041183754
 20
7.019442595124186
 30
0.0
 42
0.36838057220139
  0
VERTEX
  5
12B
  8
0
 10
90.14780617006537
 20
7.861092039386632
 30
0.0
 42
0.4456393487980416
  0
VERTEX
  5
12C
  8
0
 10
89.15342697946936
 20
6.755195839938109
 30
0.0
  0
VERTEX
  5
12D
  8
0
 10
85.65824469309507
 20
6.787716191156762
 30
0.0
  0
VERTEX
  5
12E
  8
0
 10
85.65342697944838
 20
16.064019630687
 30
0.0
 42
0.1722196306094659
  0
VERTEX
  5
12F
  8
0
 10
80.16724497387082
 20
31.51944259508278
 30
0.0
  0
VERTEX
  5
130
  8
0
 10
84.8533261539477
 20
31.51944259508646
 30
0.0
 42
0.8810240304738889
  0
VERTEX
  5
131
  8
0
 10
86.82158258196114
 20
31.76944259508663
 30
0.0
  0
VERTEX
  5
132
  8
0
 10
90.32158258196111
 20
31.76944259508663
 30
0.0
 42
0.8810136929932972
  0
VERTEX
  5
133
  8
0
 10
92.28983900997464
 20
31.51944259508663
 30
0.0
  0
SEQEND
  5
741
  8
0
  0
POLYLINE
  5
71
  8
0
 66
     1
 10
0.0
 20
0.0
 30
0.0
 70
     1
  0
VERTEX
  5
134
  8
0
 10
90.70540954277136
 20
62.16259519157995
 30
0.0
 42
0.4142135623730952
  0
VERTEX
  5
135
  8
0
 10
87.70540954277136
 20
59.16259519157995
 30
0.0
 42
0.4142135623730952
  0
VERTEX
  5
136
  8
0
 10
90.70540954277136
 20
56.16259519157994
 30
0.0
 42
0.4142135623730952
  0
VERTEX
  5
137
  8
0
 10
93.70540954277136
 20
59.16259519157995
 30
0.0
 42
0.4142135623730952
  0
SEQEND
  5
742
  8
0
  0
POLYLINE
  5
72
  8
0
 66
     1
 10
0.0
 20
0.0
 30
0.0
 70
     1
  0
VERTEX
  5
138
  8
0
 10
69.70540954277136
 20
59.16259519157995
 30
0.0
 42
0.4142135623730952
  0
VERTEX
  5
139
  8
0
 10
66.70540954277136
 20
62.16259519157995
 30
0.0
 42
0.4142135623730952
  0
VERTEX
  5
13A
  8
0
 10
63.70540954277136
 20
59.16259519157995
 30
0.0
 42
0.4142135623730952
  0
VERTEX
  5
13B
  8
0
 10
66.70540954277136
 20
56.16259519157994
 30
0.0
 42
0.4142135623730952
  0
SEQEND
  5
743
  8
0
  0
POLYLINE
  5
73
  8
0
 66
     1
 10
0.0
 20
0.0
 30
0.0
 70
     1
  0
VERTEX
  5
13C
  8
0
 10
64.20540954277136
 20
92.66259519157995
 30
0.0
 42
1.0
  0
VERTEX
  5
13D
  8
0
 10
60.20540954277136
 20
92.66259519157995
 30
0.0
  0
VERTEX
  5
13E
  8
0
 10
60.20540954277136
 20
75.66259519157995
 30
0.0
 42
0.9999999999999973
  0
VERTEX
  5
13F
  8
0
 10
64.20540954277136
 20
75.66259519157995
 30
0.0
  0
SEQEND
  5
744
  8
0
  0
POLYLINE
  5
74
  8
0
 66
     1
 10
0.0
 20
0.0
 30
0.0
 70
     1
  0
VERTEX
  5
140
  8
0
 10
75.26125865147135
 20
69.34767939897995
 30
0.0
 42
0.4142135623730952
  0
VERTEX
  5
141
  8
0
 10
73.76125865147135
 20
67.84767939897995
 30
0.0
 42
0.4142135623730952
  0
VERTEX
  5
142
  8
0
 10
75.26125865147135
 20
66.34767939897995
 30
0.0
 42
0.4142135623730956
  0
VERTEX
  5
143
  8
0
 10
76.76125865147135
 20
67.84767939897995
 30
0.0
 42
0.4142135623730952
  0
SEQEND
  5
745
  8
0
  0
POLYLINE
  5
75
  8
0
 66
     1
 10
0.0
 20
0.0
 30
0.0
 70
     1
  0
VERTEX
  5
144
  8
0
 10
77.20540954277136
 20
67.15768120157995
 30
0.0
 42
0.4142135623730952
  0
VERTEX
  5
145
  8
0
 10
78.70540954277136
 20
65.65768120157995
 30
0.0
 42
0.4142135623730956
  0
VERTEX
  5
146
  8
0
 10
80.20540954277136
 20
67.15768120157995
 30
0.0
 42
0.4142135623730952
  0
VERTEX
  5
147
  8
0
 10
78.70540954277136
 20
68.65768120157995
 30
0.0
 42
0.4142135623730952
  0
SEQEND
  5
746
  8
0
  0
POLYLINE
  5
76
  8
0
 66
     1
 10
0.0
 20
0.0
 30
0.0
 70
     1
  0
VERTEX
  5
148
  8
0
 10
80.64956043407138
 20
67.84767939897995
 30
0.0
 42
0.4142135623730952
  0
VERTEX
  5
149
  8
0
 10
82.14956043407138
 20
66.34767939897995
 30
0.0
 42
0.4142135623730956
  0
VERTEX
  5
14A
  8
0
 10
83.64956043407138
 20
67.84767939897995
 30
0.0
 42
0.4142135623730952
  0
VERTEX
  5
14B
  8
0
 10
82.14956043407138
 20
69.34767939897995
 30
0.0
 42
0.4142135623730952
  0
SEQEND
  5
747
  8
0
  0
POLYLINE
  5
77
  8
0
 66
     1
 10
0.0
 20
0.0
 30
0.0
 70
     1
  0
VERTEX
  5
14C
  8
0
 10
93.20540954277136
 20
75.66259519157995
 30
0.0
 42
1.0
  0
VERTEX
  5
14D
  8
0
 10
97.20540954277136
 20
75.66259519157995
 30
0.0
  0
VERTEX
  5
14E
  8
0
 10
97.20540954277136
 20
92.66259519157995
 30
0.0
 42
1.0
  0
VERTEX
  5
14F
  8
0
 10
93.20540954277136
 20
92.66259519157995
 30
0.0
  0
SEQEND
  5
748
  8
0
  0
POLYLINE
  5
78
  8
0
 66
     1
 10
0.0
 20
0.0
 30
0.0
 70
     1
  0
VERTEX
  5
150
  8
0
 10
80.20540954277136
 20
101.1675091815798
 30
0.0
 42
0.4142135623730952
  0
VERTEX
  5
151
  8
0
 10
78.70540954277136
 20
102.66750918158
 30
0.0
 42
0.4142135623730952
  0
VERTEX
  5
152
  8
0
 10
77.20540954277136
 20
101.16750918158
 30
0.0
 42
0.4142135623731006
  0
VERTEX
  5
153
  8
0
 10
78.70540954277122
 20
99.66750918157993
 30
0.0
 42
0.4142135623731089
  0
SEQEND
  5
749
  8
0
  0
POLYLINE
  5
79
  8
0
 66
     1
 10
0.0
 20
0.0
 30
0.0
 70
     1
  0
VERTEX
  5
154
  8
0
 10
70.39049375017136
 20
89.10674608287997
 30
0.0
 42
0.4142135623730952
  0
VERTEX
  5
155
  8
0
 10
68.89049375017136
 20
87.60674608287997
 30
0.0
 42
0.4142135623730952
  0
VERTEX
  5
156
  8
0
 10
70.39049375017136
 20
86.10674608287997
 30
0.0
 42
0.4142135623730952
  0
VERTEX
  5
157
  8
0
 10
71.89049375017136
 20
87.60674608287997
 30
0.0
 42
0.4142135623730952
  0
SEQEND
  5
74A
  8
0
  0
POLYLINE
  5
7A
  8
0
 66
     1
 10
0.0
 20
0.0
 30
0.0
 70
     1
  0
VERTEX
  5
158
  8
0
 10
69.70540954277136
 20
85.66259519157995
 30
0.0
 42
0.4142135623730952
  0
VERTEX
  5
159
  8
0
 10
68.20540954277136
 20
84.16259519157995
 30
0.0
 42
0.4142135623730952
  0
VERTEX
  5
15A
  8
0
 10
69.70540954277136
 20
82.66259519157995
 30
0.0
 42
0.4142135623730952
  0
VERTEX
  5
15B
  8
0
 10
71.20540954277136
 20
84.16259519157995
 30
0.0
 42
0.4142135623730952
  0
SEQEND
  5
74B
  8
0
  0
POLYLINE
  5
7B
  8
0
 66
     1
 10
0.0
 20
0.0
 30
0.0
 70
     1
  0
VERTEX
  5
15C
  8
0
 10
70.39049375017136
 20
82.21844430027994
 30
0.0
 42
0.4142135623730952
  0
VERTEX
  5
15D
  8
0
 10
68.89049375017136
 20
80.71844430027994
 30
0.0
 42
0.4142135623730952
  0
VERTEX
  5
15E
  8
0
 10
70.39049375017136
 20
79.21844430027994
 30
0.0
 42
0.4142135623730952
  0
VERTEX
  5
15F
  8
0
 10
71.89049375017136
 20
80.71844430027994
 30
0.0
 42
0.4142135623730952
  0
SEQEND
  5
74C
  8
0
  0
POLYLINE
  5
7C
  8
0
 66
     1
 10
0.0
 20
0.0
 30
0.0
 70
     1
  0
VERTEX
  5
160
  8
0
 10
70.84144851207135
 20
77.79863416087994
 30
0.0
 42
0.4142135623730952
  0
VERTEX
  5
161
  8
0
 10
72.34144851207135
 20
76.29863416087994
 30
0.0
 42
0.4142135623730952
  0
VERTEX
  5
162
  8
0
 10
73.84144851207135
 20
77.79863416087994
 30
0.0
 42
0.4142135623730952
  0
VERTEX
  5
163
  8
0
 10
72.34144851207135
 20
79.29863416087994
 30
0.0
 42
0.4142135623730952
  0
SEQEND
  5
74D
  8
0
  0
POLYLINE
  5
7D
  8
0
 66
     1
 10
0.0
 20
0.0
 30
0.0
 70
     1
  0
VERTEX
  5
164
  8
0
 10
73.76125865147135
 20
75.84767939897995
 30
0.0
 42
0.4142135623730952
  0
VERTEX
  5
165
  8
0
 10
75.26125865147135
 20
74.34767939897995
 30
0.0
 42
0.4142135623730952
  0
VERTEX
  5
166
  8
0
 10
76.76125865147135
 20
75.84767939897995
 30
0.0
 42
0.4142135623730952
  0
VERTEX
  5
167
  8
0
 10
75.26125865147135
 20
77.34767939897995
 30
0.0
 42
0.4142135623730952
  0
SEQEND
  5
74E
  8
0
  0
POLYLINE
  5
7E
  8
0
 66
     1
 10
0.0
 20
0.0
 30
0.0
 70
     1
  0
VERTEX
  5
168
  8
0
 10
75.26125865147135
 20
73.34767939897995
 30
0.0
 42
0.4142135623730952
  0
VERTEX
  5
169
  8
0
 10
73.76125865147135
 20
71.84767939897995
 30
0.0
 42
0.4142135623730952
  0
VERTEX
  5
16A
  8
0
 10
75.26125865147135
 20
70.34767939897995
 30
0.0
 42
0.4142135623730952
  0
VERTEX
  5
16B
  8
0
 10
76.76125865147135
 20
71.84767939897995
 30
0.0
 42
0.4142135623730952
  0
SEQEND
  5
74F
  8
0
  0
POLYLINE
  5
7F
  8
0
 66
     1
 10
0.0
 20
0.0
 30
0.0
 70
     1
  0
VERTEX
  5
16C
  8
0
 10
77.20540954277136
 20
71.15768120157995
 30
0.0
 42
0.4142135623730952
  0
VERTEX
  5
16D
  8
0
 10
78.70540954277136
 20
69.65768120157995
 30
0.0
 42
0.4142135623730952
  0
VERTEX
  5
16E
  8
0
 10
80.20540954277136
 20
71.15768120157995
 30
0.0
 42
0.4142135623730952
  0
VERTEX
  5
16F
  8
0
 10
78.70540954277136
 20
72.65768120157995
 30
0.0
 42
0.4142135623730952
  0
SEQEND
  5
750
  8
0
  0
POLYLINE
  5
80
  8
0
 66
     1
 10
0.0
 20
0.0
 30
0.0
 70
     1
  0
VERTEX
  5
170
  8
0
 10
80.64956043407138
 20
71.84767939897995
 30
0.0
 42
0.4142135623730952
  0
VERTEX
  5
171
  8
0
 10
82.14956043407138
 20
70.34767939897995
 30
0.0
 42
0.4142135623730952
  0
VERTEX
  5
172
  8
0
 10
83.64956043407138
 20
71.84767939897995
 30
0.0
 42
0.4142135623730952
  0
VERTEX
  5
173
  8
0
 10
82.14956043407138
 20
73.34767939897995
 30
0.0
 42
0.4142135623730952
  0
SEQEND
  5
751
  8
0
  0
POLYLINE
  5
81
  8
0
 66
     1
 10
0.0
 20
0.0
 30
0.0
 70
     1
  0
VERTEX
  5
174
  8
0
 10
82.14956043407138
 20
74.34767939897995
 30
0.0
 42
0.4142135623730952
  0
VERTEX
  5
175
  8
0
 10
83.64956043407138
 20
75.84767939897995
 30
0.0
 42
0.4142135623730952
  0
VERTEX
  5
176
  8
0
 10
82.14956043407138
 20
77.34767939897995
 30
0.0
 42
0.4142135623730952
  0
VERTEX
  5
177
  8
0
 10
80.64956043407138
 20
75.84767939897995
 30
0.0
 42
0.4142135623730952
  0
SEQEND
  5
752
  8
0
  0
POLYLINE
  5
82
  8
0
 66
     1
 10
0.0
 20
0.0
 30
0.0
 70
     1
  0
VERTEX
  5
178
  8
0
 10
85.06937057347137
 20
76.29863416087994
 30
0.0
 42
0.4142135623730952
  0
VERTEX
  5
179
  8
0
 10
86.56937057347137
 20
77.79863416087994
 30
0.0
 42
0.4142135623730952
  0
VERTEX
  5
17A
  8
0
 10
85.06937057347137
 20
79.29863416087994
 30
0.0
 42
0.4142135623730952
  0
VERTEX
  5
17B
  8
0
 10
83.56937057347137
 20
77.79863416087994
 30
0.0
 42
0.4142135623730952
  0
SEQEND
  5
753
  8
0
  0
POLYLINE
  5
83
  8
0
 66
     1
 10
0.0
 20
0.0
 30
0.0
 70
     1
  0
VERTEX
  5
17C
  8
0
 10
87.02032533537137
 20
79.21844430027994
 30
0.0
 42
0.4142135623730952
  0
VERTEX
  5
17D
  8
0
 10
88.52032533537137
 20
80.71844430027994
 30
0.0
 42
0.4142135623730952
  0
VERTEX
  5
17E
  8
0
 10
87.02032533537137
 20
82.21844430027994
 30
0.0
 42
0.4142135623730952
  0
VERTEX
  5
17F
  8
0
 10
85.52032533537137
 20
80.71844430027994
 30
0.0
 42
0.4142135623730952
  0
SEQEND
  5
754
  8
0
  0
POLYLINE
  5
84
  8
0
 66
     1
 10
0.0
 20
0.0
 30
0.0
 70
     1
  0
VERTEX
  5
180
  8
0
 10
87.70540954277136
 20
82.66259519157995
 30
0.0
 42
0.4142135623730952
  0
VERTEX
  5
181
  8
0
 10
89.20540954277136
 20
84.16259519157995
 30
0.0
 42
0.4142135623730952
  0
VERTEX
  5
182
  8
0
 10
87.70540954277136
 20
85.66259519157995
 30
0.0
 42
0.4142135623730952
  0
VERTEX
  5
183
  8
0
 10
86.20540954277136
 20
84.16259519157995
 30
0.0
 42
0.4142135623730952
  0
SEQEND
  5
755
  8
0
  0
POLYLINE
  5
85
  8
0
 66
     1
 10
0.0
 20
0.0
 30
0.0
 70
     1
  0
VERTEX
  5
184
  8
0
 10
87.02032533537137
 20
86.10674608287997
 30
0.0
 42
0.4142135623730952
  0
VERTEX
  5
185
  8
0
 10
88.52032533537137
 20
87.60674608287997
 30
0.0
 42
0.4142135623730952
  0
VERTEX
  5
186
  8
0
 10
87.02032533537137
 20
89.10674608287997
 30
0.0
 42
0.4142135623730952
  0
VERTEX
  5
187
  8
0
 10
85.52032533537137
 20
87.60674608287997
 30
0.0
 42
0.4142135623730952
  0
SEQEND
  5
756
  8
0
  0
POLYLINE
  5
86
  8
0
 66
     1
 10
0.0
 20
0.0
 30
0.0
 70
     1
  0
VERTEX
  5
188
  8
0
 10
86.56937057347137
 20
90.52655622227996
 30
0.0
 42
0.4142135623730952
  0
VERTEX
  5
189
  8
0
 10
85.06937057347137
 20
92.02655622227996
 30
0.0
 42
0.4142135623730952
  0
VERTEX
  5
18A
  8
0
 10
83.56937057347137
 20
90.52655622227996
 30
0.0
 42
0.4142135623730952
  0
VERTEX
  5
18B
  8
0
 10
85.06937057347137
 20
89.02655622227996
 30
0.0
 42
0.4142135623730952
  0
SEQEND
  5
757
  8
0
  0
POLYLINE
  5
87
  8
0
 66
     1
 10
0.0
 20
0.0
 30
0.0
 70
     1
  0
VERTEX
  5
18C
  8
0
 10
83.64956043407138
 20
92.47751098417996
 30
0.0
 42
0.4142135623730952
  0
VERTEX
  5
18D
  8
0
 10
82.14956043407138
 20
93.97751098417996
 30
0.0
 42
0.4142135623730952
  0
VERTEX
  5
18E
  8
0
 10
80.64956043407138
 20
92.47751098417996
 30
0.0
 42
0.4142135623730952
  0
VERTEX
  5
18F
  8
0
 10
82.14956043407138
 20
90.97751098417996
 30
0.0
 42
0.4142135623730952
  0
SEQEND
  5
758
  8
0
  0
POLYLINE
  5
88
  8
0
 66
     1
 10
0.0
 20
0.0
 30
0.0
 70
     1
  0
VERTEX
  5
190
  8
0
 10
82.14956043407138
 20
94.97751098417996
 30
0.0
 42
0.4142135623730952
  0
VERTEX
  5
191
  8
0
 10
83.64956043407138
 20
96.47751098417996
 30
0.0
 42
0.4142135623730952
  0
VERTEX
  5
192
  8
0
 10
82.14956043407138
 20
97.97751098417996
 30
0.0
 42
0.4142135623730952
  0
VERTEX
  5
193
  8
0
 10
80.64956043407138
 20
96.47751098417996
 30
0.0
 42
0.4142135623730952
  0
SEQEND
  5
759
  8
0
  0
POLYLINE
  5
89
  8
0
 66
     1
 10
0.0
 20
0.0
 30
0.0
 70
     1
  0
VERTEX
  5
194
  8
0
 10
82.14956043407138
 20
98.97751098417996
 30
0.0
 42
0.4142135623730952
  0
VERTEX
  5
195
  8
0
 10
83.64956043407138
 20
100.47751098418
 30
0.0
 42
0.4142135623730952
  0
VERTEX
  5
196
  8
0
 10
82.14956043407138
 20
101.97751098418
 30
0.0
 42
0.4142135623730952
  0
VERTEX
  5
197
  8
0
 10
80.64956043407138
 20
100.47751098418
 30
0.0
 42
0.4142135623730952
  0
SEQEND
  5
75A
  8
0
  0
POLYLINE
  5
8A
  8
0
 66
     1
 10
0.0
 20
0.0
 30
0.0
 70
     1
  0
VERTEX
  5
198
  8
0
 10
80.20540954277136
 20
97.16750918157996
 30
0.0
 42
0.4142135623730952
  0
VERTEX
  5
199
  8
0
 10
78.70540954277136
 20
98.66750918157996
 30
0.0
 42
0.4142135623730952
  0
VERTEX
  5
19A
  8
0
 10
77.20540954277136
 20
97.16750918157996
 30
0.0
 42
0.4142135623730952
  0
VERTEX
  5
19B
  8
0
 10
78.70540954277136
 20
95.66750918157996
 30
0.0
 42
0.4142135623730952
  0
SEQEND
  5
75B
  8
0
  0
POLYLINE
  5
8B
  8
0
 66
     1
 10
0.0
 20
0.0
 30
0.0
 70
     1
  0
VERTEX
  5
19C
  8
0
 10
75.26125865147135
 20
98.97751098417996
 30
0.0
 42
0.4142135623730952
  0
VERTEX
  5
19D
  8
0
 10
76.76125865147135
 20
100.47751098418
 30
0.0
 42
0.4142135623730952
  0
VERTEX
  5
19E
  8
0
 10
75.26125865147135
 20
101.97751098418
 30
0.0
 42
0.4142135623730952
  0
VERTEX
  5
19F
  8
0
 10
73.76125865147135
 20
100.47751098418
 30
0.0
 42
0.4142135623730952
  0
SEQEND
  5
75C
  8
0
  0
POLYLINE
  5
8C
  8
0
 66
     1
 10
0.0
 20
0.0
 30
0.0
 70
     1
  0
VERTEX
  5
1A0
  8
0
 10
75.26125865147135
 20
97.97751098417996
 30
0.0
 42
0.4142135623730952
  0
VERTEX
  5
1A1
  8
0
 10
73.76125865147135
 20
96.47751098417996
 30
0.0
 42
0.4142135623730952
  0
VERTEX
  5
1A2
  8
0
 10
75.26125865147135
 20
94.97751098417996
 30
0.0
 42
0.4142135623730952
  0
VERTEX
  5
1A3
  8
0
 10
76.76125865147135
 20
96.47751098417996
 30
0.0
 42
0.4142135623730952
  0
SEQEND
  5
75D
  8
0
  0
POLYLINE
  5
8D
  8
0
 66
     1
 10
0.0
 20
0.0
 30
0.0
 70
     1
  0
VERTEX
  5
1A4
  8
0
 10
75.26125865147135
 20
93.97751098417996
 30
0.0
 42
0.4142135623730952
  0
VERTEX
  5
1A5
  8
0
 10
73.76125865147135
 20
92.47751098417996
 30
0.0
 42
0.4142135623730952
  0
VERTEX
  5
1A6
  8
0
 10
75.26125865147135
 20
90.97751098417996
 30
0.0
 42
0.4142135623730952
  0
VERTEX
  5
1A7
  8
0
 10
76.76125865147135
 20
92.47751098417996
 30
0.0
 42
0.4142135623730952
  0
SEQEND
  5
75E
  8
0
  0
POLYLINE
  5
8E
  8
0
 66
     1
 10
0.0
 20
0.0
 30
0.0
 70
     1
  0
VERTEX
  5
1A8
  8
0
 10
72.34144851207135
 20
92.02655622227996
 30
0.0
 42
0.4142135623730952
  0
VERTEX
  5
1A9
  8
0
 10
70.84144851207135
 20
90.52655622227996
 30
0.0
 42
0.4142135623730952
  0
VERTEX
  5
1AA
  8
0
 10
72.34144851207135
 20
89.02655622227996
 30
0.0
 42
0.4142135623730952
  0
VERTEX
  5
1AB
  8
0
 10
73.84144851207135
 20
90.52655622227996
 30
0.0
 42
0.4142135623730952
  0
SEQEND
  5
75F
  8
0
  0
POLYLINE
  5
8F
  8
0
 66
     1
 10
0.0
 20
0.0
 30
0.0
 70
     1
  0
VERTEX
  5
1AC
  8
0
 10
75.16987563687137
 20
89.19812909747995
 30
0.0
 42
0.4142135623730952
  0
VERTEX
  5
1AD
  8
0
 10
73.66987563687137
 20
87.69812909747995
 30
0.0
 42
0.4142135623730952
  0
VERTEX
  5
1AE
  8
0
 10
75.16987563687137
 20
86.19812909747995
 30
0.0
 42
0.4142135623730952
  0
VERTEX
  5
1AF
  8
0
 10
76.66987563687137
 20
87.69812909747995
 30
0.0
 42
0.4142135623730952
  0
SEQEND
  5
760
  8
0
  0
POLYLINE
  5
90
  8
0
 66
     1
 10
0.0
 20
0.0
 30
0.0
 70
     1
  0
VERTEX
  5
1B0
  8
0
 10
73.70540954277136
 20
85.66259519157995
 30
0.0
 42
0.4142135623730952
  0
VERTEX
  5
1B1
  8
0
 10
72.20540954277136
 20
84.16259519157995
 30
0.0
 42
0.4142135623730952
  0
VERTEX
  5
1B2
  8
0
 10
73.70540954277136
 20
82.66259519157995
 30
0.0
 42
0.4142135623730952
  0
VERTEX
  5
1B3
  8
0
 10
75.20540954277136
 20
84.16259519157995
 30
0.0
 42
0.4142135623730952
  0
SEQEND
  5
761
  8
0
  0
POLYLINE
  5
91
  8
0
 66
     1
 10
0.0
 20
0.0
 30
0.0
 70
     1
  0
VERTEX
  5
1B4
  8
0
 10
75.16987563687137
 20
82.12706128567996
 30
0.0
 42
0.4142135623730952
  0
VERTEX
  5
1B5
  8
0
 10
73.66987563687137
 20
80.62706128567996
 30
0.0
 42
0.4142135623730952
  0
VERTEX
  5
1B6
  8
0
 10
75.16987563687137
 20
79.12706128567996
 30
0.0
 42
0.4142135623730952
  0
VERTEX
  5
1B7
  8
0
 10
76.66987563687137
 20
80.62706128567996
 30
0.0
 42
0.4142135623730952
  0
SEQEND
  5
762
  8
0
  0
POLYLINE
  5
92
  8
0
 66
     1
 10
0.0
 20
0.0
 30
0.0
 70
     1
  0
VERTEX
  5
1B8
  8
0
 10
77.20540954277136
 20
79.16259519157995
 30
0.0
 42
0.4142135623730952
  0
VERTEX
  5
1B9
  8
0
 10
78.70540954277136
 20
77.66259519157995
 30
0.0
 42
0.4142135623730952
  0
VERTEX
  5
1BA
  8
0
 10
80.20540954277136
 20
79.16259519157995
 30
0.0
 42
0.4142135623730952
  0
VERTEX
  5
1BB
  8
0
 10
78.70540954277136
 20
80.66259519157995
 30
0.0
 42
0.4142135623730952
  0
SEQEND
  5
763
  8
0
  0
POLYLINE
  5
93
  8
0
 66
     1
 10
0.0
 20
0.0
 30
0.0
 70
     1
  0
VERTEX
  5
1BC
  8
0
 10
80.74094344867136
 20
80.62706128567996
 30
0.0
 42
0.4142135623730952
  0
VERTEX
  5
1BD
  8
0
 10
82.24094344867136
 20
79.12706128567996
 30
0.0
 42
0.4142135623730952
  0
VERTEX
  5
1BE
  8
0
 10
83.74094344867136
 20
80.62706128567996
 30
0.0
 42
0.4142135623730952
  0
VERTEX
  5
1BF
  8
0
 10
82.24094344867136
 20
82.12706128567996
 30
0.0
 42
0.4142135623730952
  0
SEQEND
  5
764
  8
0
  0
POLYLINE
  5
94
  8
0
 66
     1
 10
0.0
 20
0.0
 30
0.0
 70
     1
  0
VERTEX
  5
1C0
  8
0
 10
83.70540954277136
 20
82.66259519157995
 30
0.0
 42
0.4142135623730952
  0
VERTEX
  5
1C1
  8
0
 10
85.20540954277136
 20
84.16259519157995
 30
0.0
 42
0.4142135623730952
  0
VERTEX
  5
1C2
  8
0
 10
83.70540954277136
 20
85.66259519157995
 30
0.0
 42
0.4142135623730952
  0
VERTEX
  5
1C3
  8
0
 10
82.20540954277136
 20
84.16259519157995
 30
0.0
 42
0.4142135623730952
  0
SEQEND
  5
765
  8
0
  0
POLYLINE
  5
95
  8
0
 66
     1
 10
0.0
 20
0.0
 30
0.0
 70
     1
  0
VERTEX
  5
1C4
  8
0
 10
82.24094344867136
 20
86.19812909747995
 30
0.0
 42
0.4142135623730952
  0
VERTEX
  5
1C5
  8
0
 10
83.74094344867136
 20
87.69812909747995
 30
0.0
 42
0.4142135623730952
  0
VERTEX
  5
1C6
  8
0
 10
82.24094344867136
 20
89.19812909747995
 30
0.0
 42
0.4142135623730952
  0
VERTEX
  5
1C7
  8
0
 10
80.74094344867136
 20
87.69812909747995
 30
0.0
 42
0.4142135623730952
  0
SEQEND
  5
766
  8
0
  0
POLYLINE
  5
96
  8
0
 66
     1
 10
0.0
 20
0.0
 30
0.0
 70
     1
  0
VERTEX
  5
1C8
  8
0
 10
80.20540954277136
 20
89.16259519157995
 30
0.0
 42
0.4142135623730952
  0
VERTEX
  5
1C9
  8
0
 10
78.70540954277136
 20
90.66259519157995
 30
0.0
 42
0.4142135623730952
  0
VERTEX
  5
1CA
  8
0
 10
77.20540954277136
 20
89.16259519157995
 30
0.0
 42
0.4142135623730952
  0
VERTEX
  5
1CB
  8
0
 10
78.70540954277136
 20
87.66259519157995
 30
0.0
 42
0.4142135623730952
  0
SEQEND
  5
767
  8
0
  0
POLYLINE
  5
97
  8
0
 66
     1
 10
0.0
 20
0.0
 30
0.0
 70
     1
  0
VERTEX
  5
1CC
  8
0
 10
78.70540954277136
 20
86.91259519157995
 30
0.0
 42
0.4142135623730951
  0
VERTEX
  5
1CD
  8
0
 10
75.95540954277136
 20
84.16259519157995
 30
0.0
 42
0.4142135623730951
  0
VERTEX
  5
1CE
  8
0
 10
78.70540954277136
 20
81.41259519157995
 30
0.0
 42
0.4142135623730951
  0
VERTEX
  5
1CF
  8
0
 10
81.45540954277136
 20
84.16259519157995
 30
0.0
 42
0.4142135623730951
  0
SEQEND
  5
768
  8
0
  0
POLYLINE
  5
98
  8
0
 66
     1
 10
0.0
 20
0.0
 30
0.0
 70
     1
  0
VERTEX
  5
1D0
  8
0
 10
78.70540954277136
 20
91.66259519157995
 30
0.0
 42
0.4142135623730952
  0
VERTEX
  5
1D1
  8
0
 10
80.20540954277136
 20
93.16259519157995
 30
0.0
 42
0.4142135623730952
  0
VERTEX
  5
1D2
  8
0
 10
78.70540954277136
 20
94.66259519157995
 30
0.0
 42
0.4142135623730952
  0
VERTEX
  5
1D3
  8
0
 10
77.20540954277136
 20
93.16259519157995
 30
0.0
 42
0.4142135623730952
  0
SEQEND
  5
769
  8
0
  0
POLYLINE
  5
99
  8
0
 66
     1
 10
0.0
 20
0.0
 30
0.0
 70
     1
  0
VERTEX
  5
1D4
  8
0
 10
78.70540954277136
 20
76.66259519157995
 30
0.0
 42
0.4142135623730952
  0
VERTEX
  5
1D5
  8
0
 10
77.20540954277136
 20
75.16259519157995
 30
0.0
 42
0.4142135623730952
  0
VERTEX
  5
1D6
  8
0
 10
78.70540954277136
 20
73.66259519157995
 30
0.0
 42
0.4142135623730952
  0
VERTEX
  5
1D7
  8
0
 10
80.20540954277136
 20
75.16259519157995
 30
0.0
 42
0.4142135623730952
  0
SEQEND
  5
76A
  8
0
  0
POLYLINE
  5
9A
  8
0
 66
     1
 10
0.0
 20
0.0
 30
0.0
 70
     1
  0
VERTEX
  5
1D8
  8
0
 10
5.933242657964855
 20
0.7084754016084897
 30
0.0
  0
VERTEX
  5
1D9
  8
0
 10
0.253287806448066
 20
6.390496661362833
 30
0.0
  0
VERTEX
  5
1DA
  8
0
 10
0.7056842998221429
 20
6.592748444660879
 30
0.0
  0
VERTEX
  5
1DB
  8
0
 10
1.148020936888805
 20
6.816752454586641
 30
0.0
  0
VERTEX
  5
1DC
  8
0
 10
1.579481340528719
 20
7.06216713955757
 30
0.0
  0
VERTEX
  5
1DD
  8
0
 10
1.99924913362255
 20
7.328650947991117
 30
0.0
  0
VERTEX
  5
1DE
  8
0
 10
2.406507939050965
 20
7.615862328304734
 30
0.0
  0
VERTEX
  5
1DF
  8
0
 10
2.800441379694631
 20
7.923459728915875
 30
0.0
  0
VERTEX
  5
1E0
  8
0
 10
3.180233078434212
 20
8.25110159824199
 30
0.0
  0
VERTEX
  5
1E1
  8
0
 10
3.545066658150376
 20
8.59844638470053
 30
0.0
  0
VERTEX
  5
1E2
  8
0
 10
56.66993280548172
 20
61.72331253196972
 30
0.0
 42
0.0377426060985891
  0
VERTEX
  5
1E3
  8
0
 10
61.60758727660488
 20
67.46851508844065
 30
0.0
  0
VERTEX
  5
1E4
  8
0
 10
61.60811253147885
 20
67.46923138407072
 30
0.0
  0
VERTEX
  5
1E5
  8
0
 10
62.09436664846474
 20
68.13481754866976
 30
0.0
  0
VERTEX
  5
1E6
  8
0
 10
62.09488935504991
 20
68.13553570598077
 30
0.0
 42
0.5131326263677413
  0
VERTEX
  5
1E7
  8
0
 10
60.9421584358546
 20
71.60467741998207
 30
0.0
 42
-0.3283402528679975
  0
VERTEX
  5
1E8
  8
0
 10
57.95540954277136
 20
75.66259519157958
 30
0.0
  0
VERTEX
  5
1E9
  8
0
 10
57.95540954277136
 20
92.66259519158035
 30
0.0
 42
-0.3283402528679871
  0
VERTEX
  5
1EA
  8
0
 10
60.9421584358546
 20
96.72051296317787
 30
0.0
 42
0.5131326263677382
  0
VERTEX
  5
1EB
  8
0
 10
62.09488935504988
 20
100.1896546771792
 30
0.0
  0
VERTEX
  5
1EC
  8
0
 10
62.09436664846448
 20
100.1903728344905
 30
0.0
  0
VERTEX
  5
1ED
  8
0
 10
61.60811253147751
 20
100.8559589990887
 30
0.0
  0
VERTEX
  5
1EE
  8
0
 10
61.6075872766038
 20
100.8566752947185
 30
0.0
 42
0.0377426060985789
  0
VERTEX
  5
1EF
  8
0
 10
56.66993280548081
 20
106.6018778511893
 30
0.0
  0
VERTEX
  5
1F0
  8
0
 10
3.545066658150376
 20
159.7267439984593
 30
0.0
  0
VERTEX
  5
1F1
  8
0
 10
3.180233078434222
 20
160.0740887849178
 30
0.0
  0
VERTEX
  5
1F2
  8
0
 10
2.800441379694647
 20
160.401730654244
 30
0.0
  0
VERTEX
  5
1F3
  8
0
 10
2.406507939050987
 20
160.7093280548551
 30
0.0
  0
VERTEX
  5
1F4
  8
0
 10
1.999249133622575
 20
160.9965394351688
 30
0.0
  0
VERTEX
  5
1F5
  8
0
 10
1.579481340528746
 20
161.2630232436023
 30
0.0
  0
VERTEX
  5
1F6
  8
0
 10
1.148020936888833
 20
161.5084379285733
 30
0.0
  0
VERTEX
  5
1F7
  8
0
 10
0.7056842998221713
 20
161.7324419384991
 30
0.0
  0
VERTEX
  5
1F8
  8
0
 10
0.2532878064480945
 20
161.9346937217971
 30
0.0
  0
VERTEX
  5
1F9
  8
0
 10
5.93331101255393
 20
167.6147169279031
 30
0.0
  0
VERTEX
  5
1FA
  8
0
 10
6.135562795851989
 20
167.162320434529
 30
0.0
  0
VERTEX
  5
1FB
  8
0
 10
6.359566805777764
 20
166.7199837974623
 30
0.0
  0
VERTEX
  5
1FC
  8
0
 10
6.604981490748706
 20
166.2885233938223
 30
0.0
  0
VERTEX
  5
1FD
  8
0
 10
6.871465299182269
 20
165.8687556007285
 30
0.0
  0
VERTEX
  5
1FE
  8
0
 10
7.158676679495904
 20
165.4614967953001
 30
0.0
  0
VERTEX
  5
1FF
  8
0
 10
7.466274080107064
 20
165.0675633546564
 30
0.0
  0
VERTEX
  5
200
  8
0
 10
7.793915949433199
 20
164.6877716559168
 30
0.0
  0
VERTEX
  5
201
  8
0
 10
8.141260735891763
 20
164.3229380762006
 30
0.0
  0
VERTEX
  5
202
  8
0
 10
31.86741142056968
 20
140.5967873915283
 30
0.0
 42
0.0851835199861384
  0
VERTEX
  5
203
  8
0
 10
70.6060729019966
 20
113.2066423958567
 30
0.0
  0
VERTEX
  5
204
  8
0
 10
74.13762439288725
 20
111.579330102108
 30
0.0
 42
0.2121497714010853
  0
VERTEX
  5
205
  8
0
 10
83.27319469268151
 20
111.5793301020987
 30
0.0
  0
VERTEX
  5
206
  8
0
 10
86.80474618357415
 20
113.2066423958479
 30
0.0
 42
0.0851835199861367
  0
VERTEX
  5
207
  8
0
 10
125.5434076649733
 20
140.5967873915281
 30
0.0
  0
VERTEX
  5
208
  8
0
 10
149.2695583496509
 20
164.3229380762006
 30
0.0
  0
VERTEX
  5
209
  8
0
 10
149.6169031361094
 20
164.6877716559168
 30
0.0
  0
VERTEX
  5
20A
  8
0
 10
149.9445450054355
 20
165.0675633546564
 30
0.0
  0
VERTEX
  5
20B
  8
0
 10
150.2521424060467
 20
165.4614967953
 30
0.0
  0
VERTEX
  5
20C
  8
0
 10
150.5393537863604
 20
165.8687556007284
 30
0.0
  0
VERTEX
  5
20D
  8
0
 10
150.8058375947939
 20
166.2885233938223
 30
0.0
  0
VERTEX
  5
20E
  8
0
 10
151.0512522797649
 20
166.7199837974622
 30
0.0
  0
VERTEX
  5
20F
  8
0
 10
151.2752562896906
 20
167.1623204345289
 30
0.0
  0
VERTEX
  5
210
  8
0
 10
151.4775080729887
 20
167.614716927903
 30
0.0
  0
VERTEX
  5
211
  8
0
 10
157.2532628294285
 20
161.973602927631
 30
0.0
  0
VERTEX
  5
212
  8
0
 10
156.7839918432397
 20
161.7692475388216
 30
0.0
  0
VERTEX
  5
213
  8
0
 10
156.3261760395934
 20
161.541988492005
 30
0.0
  0
VERTEX
  5
214
  8
0
 10
155.8806352823518
 20
161.2923487622796
 30
0.0
  0
VERTEX
  5
215
  8
0
 10
155.448189435377
 20
161.0208513247436
 30
0.0
  0
VERTEX
  5
216
  8
0
 10
155.0296583625314
 20
160.7280191544953
 30
0.0
  0
VERTEX
  5
217
  8
0
 10
154.6258619276773
 20
160.414375226633
 30
0.0
  0
VERTEX
  5
218
  8
0
 10
154.2376199946769
 20
160.0804425162549
 30
0.0
  0
VERTEX
  5
219
  8
0
 10
153.8657524273923
 20
159.7267439984593
 30
0.0
  0
VERTEX
  5
21A
  8
0
 10
100.7408862800637
 20
106.6018778511875
 30
0.0
 42
0.037742606098592
  0
VERTEX
  5
21B
  8
0
 10
95.80323180894096
 20
100.856675294717
 30
0.0
  0
VERTEX
  5
21C
  8
0
 10
95.80270655406765
 20
100.8559589990878
 30
0.0
  0
VERTEX
  5
21D
  8
0
 10
95.3164524370787
 20
100.190372834491
 30
0.0
  0
VERTEX
  5
21E
  8
0
 10
95.31592973049275
 20
100.189654677179
 30
0.0
 42
0.5131326263677296
  0
VERTEX
  5
21F
  8
0
 10
96.46866064968815
 20
96.7205129631779
 30
0.0
 42
-0.3283402528679879
  0
VERTEX
  5
220
  8
0
 10
99.45540954277136
 20
92.66259519158035
 30
0.0
  0
VERTEX
  5
221
  8
0
 10
99.45540954277136
 20
75.66259519157956
 30
0.0
 42
-0.3283402528679871
  0
VERTEX
  5
222
  8
0
 10
96.46866064968803
 20
71.60467741998201
 30
0.0
 42
0.5131326263677376
  0
VERTEX
  5
223
  8
0
 10
95.31592973049295
 20
68.13553570598063
 30
0.0
  0
VERTEX
  5
224
  8
0
 10
95.31645243707835
 20
68.13481754866933
 30
0.0
  0
VERTEX
  5
225
  8
0
 10
95.80270655406581
 20
67.46923138407146
 30
0.0
  0
VERTEX
  5
226
  8
0
 10
95.80323180893943
 20
67.46851508844185
 30
0.0
 42
0.0377426060985849
  0
VERTEX
  5
227
  8
0
 10
100.7408862800624
 20
61.72331253197114
 30
0.0
  0
VERTEX
  5
228
  8
0
 10
153.8657524273923
 20
8.598446384700502
 30
0.0
  0
VERTEX
  5
229
  8
0
 10
154.2305860071085
 20
8.251101598241966
 30
0.0
  0
VERTEX
  5
22A
  8
0
 10
154.6103777058481
 20
7.923459728915855
 30
0.0
  0
VERTEX
  5
22B
  8
0
 10
155.0043111464917
 20
7.615862328304718
 30
0.0
  0
VERTEX
  5
22C
  8
0
 10
155.4115699519201
 20
7.328650947991103
 30
0.0
  0
VERTEX
  5
22D
  8
0
 10
155.831337745014
 20
7.062167139557559
 30
0.0
  0
VERTEX
  5
22E
  8
0
 10
156.2627981486539
 20
6.816752454586632
 30
0.0
  0
VERTEX
  5
22F
  8
0
 10
156.7051347857205
 20
6.592748444660874
 30
0.0
  0
VERTEX
  5
230
  8
0
 10
157.1575312790946
 20
6.390496661362833
 30
0.0
  0
VERTEX
  5
231
  8
0
 10
151.4775080729887
 20
0.7104734552568398
 30
0.0
  0
VERTEX
  5
232
  8
0
 10
151.2752562896907
 20
1.162869948630931
 30
0.0
  0
VERTEX
  5
233
  8
0
 10
151.0512522797649
 20
1.605206585697605
 30
0.0
  0
VERTEX
  5
234
  8
0
 10
150.805837594794
 20
2.036666989337528
 30
0.0
  0
VERTEX
  5
235
  8
0
 10
150.5393537863604
 20
2.456434782431367
 30
0.0
  0
VERTEX
  5
236
  8
0
 10
150.2521424060468
 20
2.863693587859787
 30
0.0
  0
VERTEX
  5
237
  8
0
 10
149.9445450054356
 20
3.257627028503457
 30
0.0
  0
VERTEX
  5
238
  8
0
 10
149.6169031361095
 20
3.637418727243041
 30
0.0
  0
VERTEX
  5
239
  8
0
 10
149.2695583496509
 20
4.002252306959208
 30
0.0
  0
VERTEX
  5
23A
  8
0
 10
125.5434076649733
 20
27.72840299163171
 30
0.0
 42
0.0851835199861367
  0
VERTEX
  5
23B
  8
0
 10
86.80474618357415
 20
55.118547987312
 30
0.0
  0
VERTEX
  5
23C
  8
0
 10
83.27319469268163
 20
56.74586028106113
 30
0.0
 42
0.2121497714010838
  0
VERTEX
  5
23D
  8
0
 10
74.13762439286127
 20
56.74586028106079
 30
0.0
  0
VERTEX
  5
23E
  8
0
 10
70.60607290196857
 20
55.118547987312
 30
0.0
 42
0.0851835199861378
  0
VERTEX
  5
23F
  8
0
 10
31.8674114205692
 20
27.72840299163197
 30
0.0
  0
VERTEX
  5
240
  8
0
 10
8.141260735891791
 20
4.002252306959179
 30
0.0
  0
VERTEX
  5
241
  8
0
 10
7.793612423931099
 20
3.637083539921468
 30
0.0
  0
VERTEX
  5
242
  8
0
 10
7.465718543759829
 20
3.256945707890862
 30
0.0
  0
VERTEX
  5
243
  8
0
 10
7.157937029800388
 20
2.862672865345075
 30
0.0
  0
VERTEX
  5
244
  8
0
 10
6.870625816475183
 20
2.455099066761824
 30
0.0
  0
VERTEX
  5
245
  8
0
 10
6.60414283820662
 20
2.035058366618824
 30
0.0
  0
VERTEX
  5
246
  8
0
 10
6.358846029417107
 20
1.603384819393792
 30
0.0
  0
VERTEX
  5
247
  8
0
 10
6.13509332452905
 20
1.160912479564441
 30
0.0
  0
SEQEND
  5
76B
  8
0
  0
POLYLINE
  5
9B
  8
0
 66
     1
 10
0.0
 20
0.0
 30
0.0
 70
     1
  0
VERTEX
  5
248
  8
0
 10
70.75540954277137
 20
94.16259519157995
 30
0.0
 42
0.4142135623730951
  0
VERTEX
  5
249
  8
0
 10
68.70540954277136
 20
96.21259519157996
 30
0.0
 42
0.4142135623730951
  0
VERTEX
  5
24A
  8
0
 10
66.65540954277135
 20
94.16259519157995
 30
0.0
 42
0.4142135623730951
  0
VERTEX
  5
24B
  8
0
 10
68.70540954277136
 20
92.11259519157994
 30
0.0
 42
0.4142135623730951
  0
SEQEND
  5
76C
  8
0
  0
POLYLINE
  5
9C
  8
0
 66
     1
 10
0.0
 20
0.0
 30
0.0
 70
     1
  0
VERTEX
  5
24C
  8
0
 10
86.65540954277135
 20
94.16259519157995
 30
0.0
 42
0.4142135623730951
  0
VERTEX
  5
24D
  8
0
 10
88.70540954277136
 20
92.11259519157994
 30
0.0
 42
0.4142135623730951
  0
VERTEX
  5
24E
  8
0
 10
90.75540954277137
 20
94.16259519157995
 30
0.0
 42
0.4142135623730951
  0
VERTEX
  5
24F
  8
0
 10
88.70540954277136
 20
96.21259519157996
 30
0.0
 42
0.4142135623730951
  0
SEQEND
  5
76D
  8
0
  0
POLYLINE
  5
9D
  8
0
 66
     1
 10
0.0
 20
0.0
 30
0.0
 70
     1
  0
VERTEX
  5
250
  8
0
 10
88.70540954277136
 20
76.21259519157996
 30
0.0
 42
0.4142135623730951
  0
VERTEX
  5
251
  8
0
 10
86.65540954277135
 20
74.16259519157995
 30
0.0
 42
0.4142135623730951
  0
VERTEX
  5
252
  8
0
 10
88.70540954277136
 20
72.11259519157994
 30
0.0
 42
0.4142135623730951
  0
VERTEX
  5
253
  8
0
 10
90.75540954277137
 20
74.16259519157995
 30
0.0
 42
0.4142135623730951
  0
SEQEND
  5
76E
  8
0
  0
POLYLINE
  5
9E
  8
0
 66
     1
 10
0.0
 20
0.0
 30
0.0
 70
     1
  0
VERTEX
  5
254
  8
0
 10
70.75540954277137
 20
74.16259519157995
 30
0.0
 42
0.4142135623730951
  0
VERTEX
  5
255
  8
0
 10
68.70540954277136
 20
76.21259519157996
 30
0.0
 42
0.4142135623730951
  0
VERTEX
  5
256
  8
0
 10
66.65540954277135
 20
74.16259519157995
 30
0.0
 42
0.4142135623730951
  0
VERTEX
  5
257
  8
0
 10
68.70540954277136
 20
72.11259519157994
 30
0.0
 42
0.4142135623730951
  0
SEQEND
  5
76F
  8
0
  0
POLYLINE
  5
9F
  8
0
 66
     1
 10
0.0
 20
0.0
 30
0.0
 70
     1
  0
VERTEX
  5
258
  8
0
 10
87.70274042080335
 20
108.4008144707817
 30
0.0
  0
VERTEX
  5
259
  8
0
 10
87.77653895259228
 20
108.1514922408585
 30
0.0
  0
VERTEX
  5
25A
  8
0
 10
87.8701025606137
 20
107.9117189151287
 30
0.0
  0
VERTEX
  5
25B
  8
0
 10
87.98244925105595
 20
107.6823964005501
 30
0.0
  0
VERTEX
  5
25C
  8
0
 10
88.11259703010731
 20
107.4644266040804
 30
0.0
  0
VERTEX
  5
25D
  8
0
 10
88.25956390395606
 20
107.2587114326775
 30
0.0
  0
VERTEX
  5
25E
  8
0
 10
88.42236787879048
 20
107.0661527932991
 30
0.0
  0
VERTEX
  5
25F
  8
0
 10
88.60002696079891
 20
106.8876525929031
 30
0.0
  0
VERTEX
  5
260
  8
0
 10
88.79155915616957
 20
106.7241127384472
 30
0.0
  0
VERTEX
  5
261
  8
0
 10
88.9959824710908
 20
106.5764351368892
 30
0.0
  0
VERTEX
  5
262
  8
0
 10
89.21231491175088
 20
106.445521695187
 30
0.0
  0
VERTEX
  5
263
  8
0
 10
89.4395744843381
 20
106.3322743202982
 30
0.0
  0
VERTEX
  5
264
  8
0
 10
89.67677919504074
 20
106.2375949191808
 30
0.0
  0
VERTEX
  5
265
  8
0
 10
89.9229470500471
 20
106.1623853987925
 30
0.0
  0
VERTEX
  5
266
  8
0
 10
90.17709605554546
 20
106.107547666091
 30
0.0
  0
VERTEX
  5
267
  8
0
 10
90.43824421772412
 20
106.0739836280342
 30
0.0
  0
VERTEX
  5
268
  8
0
 10
90.70540954277136
 20
106.06259519158
 30
0.0
 42
0.4142135623730963
  0
VERTEX
  5
269
  8
0
 10
93.80540954277136
 20
109.16259519158
 30
0.0
 42
0.4142135623730945
  0
VERTEX
  5
26A
  8
0
 10
90.70540954277136
 20
112.2625951915799
 30
0.0
  0
VERTEX
  5
26B
  8
0
 10
90.43130612554913
 20
112.2506432662983
 30
0.0
  0
VERTEX
  5
26C
  8
0
 10
90.16387467694776
 20
112.2154565537796
 30
0.0
  0
VERTEX
  5
26D
  8
0
 10
89.90412598808507
 20
112.1580386490128
 30
0.0
  0
VERTEX
  5
26E
  8
0
 10
89.65307085007893
 20
112.0793931469873
 30
0.0
  0
VERTEX
  5
26F
  8
0
 10
89.41172005404718
 20
111.9805236426922
 30
0.0
  0
VERTEX
  5
270
  8
0
 10
89.18108439110762
 20
111.8624337311168
 30
0.0
  0
VERTEX
  5
271
  8
0
 10
88.96217465237811
 20
111.72612700725
 30
0.0
  0
VERTEX
  5
272
  8
0
 10
88.75600162897652
 20
111.5726070660812
 30
0.0
  0
VERTEX
  5
273
  8
0
 10
88.56357611202068
 20
111.4028775025996
 30
0.0
  0
VERTEX
  5
274
  8
0
 10
88.3859088926284
 20
111.2179419117942
 30
0.0
  0
VERTEX
  5
275
  8
0
 10
88.22401076191755
 20
111.0188038886543
 30
0.0
  0
VERTEX
  5
276
  8
0
 10
88.07889251100598
 20
110.806467028169
 30
0.0
  0
VERTEX
  5
277
  8
0
 10
87.95156493101152
 20
110.5819349253276
 30
0.0
  0
VERTEX
  5
278
  8
0
 10
87.843038813052
 20
110.3462111751193
 30
0.0
  0
VERTEX
  5
279
  8
0
 10
87.75432494824528
 20
110.1002993725331
 30
0.0
  0
VERTEX
  5
27A
  8
0
 10
87.68643412770918
 20
109.8452031125583
 30
0.0
  0
VERTEX
  5
27B
  8
0
 10
87.66573221819354
 20
109.9522866766737
 30
0.0
  0
VERTEX
  5
27C
  8
0
 10
87.63576203186295
 20
110.052091777635
 30
0.0
  0
VERTEX
  5
27D
  8
0
 10
87.59717447634239
 20
110.1446185839407
 30
0.0
  0
VERTEX
  5
27E
  8
0
 10
87.55062045925682
 20
110.229867264089
 30
0.0
  0
VERTEX
  5
27F
  8
0
 10
87.49675088823116
 20
110.3078379865782
 30
0.0
  0
VERTEX
  5
280
  8
0
 10
87.43621667089039
 20
110.3785309199068
 30
0.0
  0
VERTEX
  5
281
  8
0
 10
87.36966871485946
 20
110.441946232573
 30
0.0
  0
VERTEX
  5
282
  8
0
 10
87.2977579277633
 20
110.4980840930752
 30
0.0
  0
VERTEX
  5
283
  8
0
 10
87.22113521722687
 20
110.5469446699118
 30
0.0
  0
VERTEX
  5
284
  8
0
 10
87.14045149087517
 20
110.5885281315809
 30
0.0
  0
VERTEX
  5
285
  8
0
 10
87.0563576563331
 20
110.622834646581
 30
0.0
  0
VERTEX
  5
286
  8
0
 10
86.96950462122564
 20
110.6498643834104
 30
0.0
  0
VERTEX
  5
287
  8
0
 10
86.79012457981432
 20
110.6820941965503
 30
0.0
  0
VERTEX
  5
288
  8
0
 10
86.60751862764084
 20
110.6852189189875
 30
0.0
  0
VERTEX
  5
289
  8
0
 10
86.42689402570487
 20
110.6592398987084
 30
0.0
  0
VERTEX
  5
28A
  8
0
 10
86.3389520001383
 20
110.6353369062961
 30
0.0
  0
VERTEX
  5
28B
  8
0
 10
86.25345803500599
 20
110.6041584836998
 30
0.0
  0
VERTEX
  5
28C
  8
0
 10
86.17106303793285
 20
110.5657047994178
 30
0.0
  0
VERTEX
  5
28D
  8
0
 10
86.09241791654387
 20
110.5199760219483
 30
0.0
  0
VERTEX
  5
28E
  8
0
 10
86.01817357846397
 20
110.4669723197898
 30
0.0
  0
VERTEX
  5
28F
  8
0
 10
85.9489809313181
 20
110.4066938614406
 30
0.0
  0
VERTEX
  5
290
  8
0
 10
85.88549088273123
 20
110.3391408153989
 30
0.0
  0
VERTEX
  5
291
  8
0
 10
85.82835434032833
 20
110.2643133501632
 30
0.0
  0
VERTEX
  5
292
  8
0
 10
85.77822221173435
 20
110.1822116342317
 30
0.0
  0
VERTEX
  5
293
  8
0
 10
85.7357454045742
 20
110.0928358361029
 30
0.0
  0
VERTEX
  5
294
  8
0
 10
85.70157482647288
 20
109.9961861242749
 30
0.0
  0
VERTEX
  5
295
  8
0
 10
85.67636138505533
 20
109.8922626672462
 30
0.0
  0
VERTEX
  5
296
  8
0
 10
85.66075598794652
 20
109.7810656335151
 30
0.0
  0
VERTEX
  5
297
  8
0
 10
85.65540954277135
 20
109.66259519158
 30
0.0
  0
VERTEX
  5
298
  8
0
 10
85.65540954277135
 20
105.66259519158
 30
0.0
 42
1.0
  0
VERTEX
  5
299
  8
0
 10
87.70540954277136
 20
105.66259519158
 30
0.0
  0
SEQEND
  5
770
  8
0
  0
POLYLINE
  5
A0
  8
0
 66
     1
 10
0.0
 20
0.0
 30
0.0
 70
     1
  0
VERTEX
  5
29A
  8
0
 10
69.70938694997766
 20
108.4125156041043
 30
0.0
  0
VERTEX
  5
29B
  8
0
 10
69.70540954277136
 20
105.66259519158
 30
0.0
 42
1.0
  0
VERTEX
  5
29C
  8
0
 10
71.75540954277137
 20
105.66259519158
 30
0.0
  0
VERTEX
  5
29D
  8
0
 10
71.75540954277137
 20
109.66259519158
 30
0.0
  0
VERTEX
  5
29E
  8
0
 10
71.7500630975953
 20
109.7810656335253
 30
0.0
  0
VERTEX
  5
29F
  8
0
 10
71.73445770048377
 20
109.8922626672654
 30
0.0
  0
VERTEX
  5
2A0
  8
0
 10
71.70924425906196
 20
109.9961861243016
 30
0.0
  0
VERTEX
  5
2A1
  8
0
 10
71.675073680955
 20
110.0928358361358
 30
0.0
  0
VERTEX
  5
2A2
  8
0
 10
71.63259687378803
 20
110.1822116342696
 30
0.0
  0
VERTEX
  5
2A3
  8
0
 10
71.5824647451862
 20
110.2643133502047
 30
0.0
  0
VERTEX
  5
2A4
  8
0
 10
71.52532820277463
 20
110.3391408154426
 30
0.0
  0
VERTEX
  5
2A5
  8
0
 10
71.46183815417847
 20
110.4066938614851
 30
0.0
  0
VERTEX
  5
2A6
  8
0
 10
71.39264550702286
 20
110.4669723198338
 30
0.0
  0
VERTEX
  5
2A7
  8
0
 10
71.31840116893295
 20
110.5199760219904
 30
0.0
  0
VERTEX
  5
2A8
  8
0
 10
71.23975604753389
 20
110.5657047994566
 30
0.0
  0
VERTEX
  5
2A9
  8
0
 10
71.15736105045077
 20
110.6041584837339
 30
0.0
  0
VERTEX
  5
2AA
  8
0
 10
71.07186708530878
 20
110.6353369063241
 30
0.0
  0
VERTEX
  5
2AB
  8
0
 10
70.98392505973305
 20
110.6592398987288
 30
0.0
  0
VERTEX
  5
2AC
  8
0
 10
70.80330045778089
 20
110.6852189189884
 30
0.0
  0
VERTEX
  5
2AD
  8
0
 10
70.62069450559542
 20
110.6820941965259
 30
0.0
  0
VERTEX
  5
2AE
  8
0
 10
70.44131446417776
 20
110.6498643833547
 30
0.0
  0
VERTEX
  5
2AF
  8
0
 10
70.35446142906972
 20
110.6228346465074
 30
0.0
  0
VERTEX
  5
2B0
  8
0
 10
70.27036759452903
 20
110.5885281314879
 30
0.0
  0
VERTEX
  5
2B1
  8
0
 10
70.18968386818085
 20
110.5469446697979
 30
0.0
  0
VERTEX
  5
2B2
  8
0
 10
70.11306115765035
 20
110.4980840929389
 30
0.0
  0
VERTEX
  5
2B3
  8
0
 10
70.04115037056263
 20
110.4419462324127
 30
0.0
  0
VERTEX
  5
2B4
  8
0
 10
69.97460241454284
 20
110.3785309197209
 30
0.0
  0
VERTEX
  5
2B5
  8
0
 10
69.91406819721614
 20
110.3078379863652
 30
0.0
  0
VERTEX
  5
2B6
  8
0
 10
69.86019862620765
 20
110.2298672638472
 30
0.0
  0
VERTEX
  5
2B7
  8
0
 10
69.8136446091425
 20
110.1446185836685
 30
0.0
  0
VERTEX
  5
2B8
  8
0
 10
69.77505705364585
 20
110.052091777331
 30
0.0
  0
VERTEX
  5
2B9
  8
0
 10
69.74508686734283
 20
109.9522866763361
 30
0.0
  0
VERTEX
  5
2BA
  8
0
 10
69.72438495785859
 20
109.8452031121856
 30
0.0
  0
VERTEX
  5
2BB
  8
0
 10
69.65649413736206
 20
110.1002993721907
 30
0.0
  0
VERTEX
  5
2BC
  8
0
 10
69.56778027258746
 20
110.346211174808
 30
0.0
  0
VERTEX
  5
2BD
  8
0
 10
69.45925415465305
 20
110.5819349250481
 30
0.0
  0
VERTEX
  5
2BE
  8
0
 10
69.33192657467711
 20
110.8064670279213
 30
0.0
  0
VERTEX
  5
2BF
  8
0
 10
69.18680832377787
 20
111.0188038884381
 30
0.0
  0
VERTEX
  5
2C0
  8
0
 10
69.0249101930736
 20
111.2179419116089
 30
0.0
  0
VERTEX
  5
2C1
  8
0
 10
68.84724297368257
 20
111.4028775024441
 30
0.0
  0
VERTEX
  5
2C2
  8
0
 10
68.65481745672304
 20
111.5726070659542
 30
0.0
  0
VERTEX
  5
2C3
  8
0
 10
68.44864443331326
 20
111.7261270071495
 30
0.0
  0
VERTEX
  5
2C4
  8
0
 10
68.22973469457146
 20
111.8624337310405
 30
0.0
  0
VERTEX
  5
2C5
  8
0
 10
67.99909903161594
 20
111.9805236426377
 30
0.0
  0
VERTEX
  5
2C6
  8
0
 10
67.75774823556495
 20
112.0793931469514
 30
0.0
  0
VERTEX
  5
2C7
  8
0
 10
67.50669309753673
 20
112.158038648992
 30
0.0
  0
VERTEX
  5
2C8
  8
0
 10
67.24694440864955
 20
112.21545655377
 30
0.0
  0
VERTEX
  5
2C9
  8
0
 10
66.97951296002168
 20
112.2506432662959
 30
0.0
  0
VERTEX
  5
2CA
  8
0
 10
66.70540954277136
 20
112.2625951915799
 30
0.0
 42
0.4142135623730952
  0
VERTEX
  5
2CB
  8
0
 10
63.60540954277137
 20
109.16259519158
 30
0.0
 42
0.4142135623730952
  0
VERTEX
  5
2CC
  8
0
 10
66.70540954277136
 20
106.06259519158
 30
0.0
  0
VERTEX
  5
2CD
  8
0
 10
66.97127417829378
 20
106.073909241718
 30
0.0
  0
VERTEX
  5
2CE
  8
0
 10
67.23152570163356
 20
106.1072821458584
 30
0.0
  0
VERTEX
  5
2CF
  8
0
 10
67.48513503547065
 20
106.1618600345907
 30
0.0
  0
VERTEX
  5
2D0
  8
0
 10
67.73107310248497
 20
106.236789038504
 30
0.0
  0
VERTEX
  5
2D1
  8
0
 10
67.96831082535648
 20
106.3312152881877
 30
0.0
  0
VERTEX
  5
2D2
  8
0
 10
68.19581912676509
 20
106.4442849142313
 30
0.0
  0
VERTEX
  5
2D3
  8
0
 10
68.41256892939074
 20
106.5751440472238
 30
0.0
  0
VERTEX
  5
2D4
  8
0
 10
68.61753115591337
 20
106.7229388177548
 30
0.0
  0
VERTEX
  5
2D5
  8
0
 10
68.8096767290129
 20
106.8868153564135
 30
0.0
  0
VERTEX
  5
2D6
  8
0
 10
68.98797657136929
 20
107.0659197937893
 30
0.0
  0
VERTEX
  5
2D7
  8
0
 10
69.15140160566244
 20
107.2593982604714
 30
0.0
  0
VERTEX
  5
2D8
  8
0
 10
69.29892275457233
 20
107.4663968870493
 30
0.0
  0
VERTEX
  5
2D9
  8
0
 10
69.42951094077884
 20
107.6860618041122
 30
0.0
  0
VERTEX
  5
2DA
  8
0
 10
69.54213708696196
 20
107.9175391422494
 30
0.0
  0
VERTEX
  5
2DB
  8
0
 10
69.63577211580159
 20
108.1599750320504
 30
0.0
  0
SEQEND
  5
771
  8
0
  0
POLYLINE
  5
A1
  8
0
 66
     1
 10
0.0
 20
0.0
 30
0.0
 70
     1
  0
VERTEX
  5
2DC
  8
0
 10
284.2062800835991
 20
61.99823285767789
 30
0.0
 42
0.4142135623730952
  0
VERTEX
  5
2DD
  8
0
 10
281.2062800835991
 20
58.99823285767789
 30
0.0
 42
0.4142135623730952
  0
VERTEX
  5
2DE
  8
0
 10
284.2062800835991
 20
55.99823285767789
 30
0.0
 42
0.4142135623730952
  0
VERTEX
  5
2DF
  8
0
 10
287.2062800835991
 20
58.99823285767789
 30
0.0
 42
0.4142135623730952
  0
SEQEND
  5
772
  8
0
  0
POLYLINE
  5
A2
  8
0
 66
     1
 10
0.0
 20
0.0
 30
0.0
 70
     1
  0
VERTEX
  5
2E0
  8
0
 10
263.2062800835991
 20
58.99823285767789
 30
0.0
 42
0.4142135623730952
  0
VERTEX
  5
2E1
  8
0
 10
260.2062800835991
 20
61.99823285767789
 30
0.0
 42
0.4142135623730952
  0
VERTEX
  5
2E2
  8
0
 10
257.2062800835991
 20
58.99823285767789
 30
0.0
 42
0.4142135623730952
  0
VERTEX
  5
2E3
  8
0
 10
260.2062800835991
 20
55.99823285767789
 30
0.0
 42
0.4142135623730952
  0
SEQEND
  5
773
  8
0
  0
POLYLINE
  5
A3
  8
0
 66
     1
 10
0.0
 20
0.0
 30
0.0
 70
     1
  0
VERTEX
  5
2E4
  8
0
 10
257.7062800835991
 20
92.49823285767795
 30
0.0
 42
1.0
  0
VERTEX
  5
2E5
  8
0
 10
253.7062800835991
 20
92.49823285767795
 30
0.0
  0
VERTEX
  5
2E6
  8
0
 10
253.7062800835991
 20
75.49823285767789
 30
0.0
 42
0.9999999999999973
  0
VERTEX
  5
2E7
  8
0
 10
257.7062800835991
 20
75.49823285767789
 30
0.0
  0
SEQEND
  5
774
  8
0
  0
POLYLINE
  5
A4
  8
0
 66
     1
 10
0.0
 20
0.0
 30
0.0
 70
     1
  0
VERTEX
  5
2E8
  8
0
 10
268.7621291922991
 20
69.18331706507789
 30
0.0
 42
0.4142135623730952
  0
VERTEX
  5
2E9
  8
0
 10
267.2621291922991
 20
67.68331706507789
 30
0.0
 42
0.4142135623730952
  0
VERTEX
  5
2EA
  8
0
 10
268.7621291922991
 20
66.18331706507789
 30
0.0
 42
0.4142135623730956
  0
VERTEX
  5
2EB
  8
0
 10
270.2621291922991
 20
67.68331706507789
 30
0.0
 42
0.4142135623730952
  0
SEQEND
  5
775
  8
0
  0
POLYLINE
  5
A5
  8
0
 66
     1
 10
0.0
 20
0.0
 30
0.0
 70
     1
  0
VERTEX
  5
2EC
  8
0
 10
270.7062800835991
 20
66.99331886767789
 30
0.0
 42
0.4142135623730952
  0
VERTEX
  5
2ED
  8
0
 10
272.2062800835991
 20
65.49331886767789
 30
0.0
 42
0.4142135623730956
  0
VERTEX
  5
2EE
  8
0
 10
273.7062800835991
 20
66.99331886767789
 30
0.0
 42
0.4142135623730952
  0
VERTEX
  5
2EF
  8
0
 10
272.2062800835991
 20
68.49331886767789
 30
0.0
 42
0.4142135623730952
  0
SEQEND
  5
776
  8
0
  0
POLYLINE
  5
A6
  8
0
 66
     1
 10
0.0
 20
0.0
 30
0.0
 70
     1
  0
VERTEX
  5
2F0
  8
0
 10
274.1504309748991
 20
67.68331706507789
 30
0.0
 42
0.4142135623730952
  0
VERTEX
  5
2F1
  8
0
 10
275.6504309748991
 20
66.18331706507789
 30
0.0
 42
0.4142135623730956
  0
VERTEX
  5
2F2
  8
0
 10
277.1504309748991
 20
67.68331706507789
 30
0.0
 42
0.4142135623730952
  0
VERTEX
  5
2F3
  8
0
 10
275.6504309748991
 20
69.18331706507789
 30
0.0
 42
0.4142135623730952
  0
SEQEND
  5
777
  8
0
  0
POLYLINE
  5
A7
  8
0
 66
     1
 10
0.0
 20
0.0
 30
0.0
 70
     1
  0
VERTEX
  5
2F4
  8
0
 10
286.7062800835991
 20
75.49823285767789
 30
0.0
 42
1.0
  0
VERTEX
  5
2F5
  8
0
 10
290.7062800835991
 20
75.49823285767789
 30
0.0
  0
VERTEX
  5
2F6
  8
0
 10
290.7062800835991
 20
92.49823285767795
 30
0.0
 42
1.0
  0
VERTEX
  5
2F7
  8
0
 10
286.7062800835991
 20
92.49823285767795
 30
0.0
  0
SEQEND
  5
778
  8
0
  0
POLYLINE
  5
A8
  8
0
 66
     1
 10
0.0
 20
0.0
 30
0.0
 70
     1
  0
VERTEX
  5
2F8
  8
0
 10
273.7062800835991
 20
101.0031468476778
 30
0.0
 42
0.4142135623730952
  0
VERTEX
  5
2F9
  8
0
 10
272.2062800835991
 20
102.503146847678
 30
0.0
 42
0.4142135623730952
  0
VERTEX
  5
2FA
  8
0
 10
270.7062800835991
 20
101.003146847678
 30
0.0
 42
0.4142135623731006
  0
VERTEX
  5
2FB
  8
0
 10
272.2062800835989
 20
99.50314684767795
 30
0.0
 42
0.4142135623731089
  0
SEQEND
  5
779
  8
0
  0
POLYLINE
  5
A9
  8
0
 66
     1
 10
0.0
 20
0.0
 30
0.0
 70
     1
  0
VERTEX
  5
2FC
  8
0
 10
263.8913642909991
 20
88.94238374897795
 30
0.0
 42
0.4142135623730952
  0
VERTEX
  5
2FD
  8
0
 10
262.3913642909991
 20
87.44238374897795
 30
0.0
 42
0.4142135623730952
  0
VERTEX
  5
2FE
  8
0
 10
263.8913642909991
 20
85.94238374897795
 30
0.0
 42
0.4142135623730952
  0
VERTEX
  5
2FF
  8
0
 10
265.3913642909991
 20
87.44238374897795
 30
0.0
 42
0.4142135623730952
  0
SEQEND
  5
77A
  8
0
  0
POLYLINE
  5
AA
  8
0
 66
     1
 10
0.0
 20
0.0
 30
0.0
 70
     1
  0
VERTEX
  5
300
  8
0
 10
263.2062800835991
 20
85.49823285767793
 30
0.0
 42
0.4142135623730952
  0
VERTEX
  5
301
  8
0
 10
261.7062800835991
 20
83.99823285767792
 30
0.0
 42
0.4142135623730952
  0
VERTEX
  5
302
  8
0
 10
263.2062800835991
 20
82.49823285767792
 30
0.0
 42
0.4142135623730952
  0
VERTEX
  5
303
  8
0
 10
264.7062800835991
 20
83.99823285767792
 30
0.0
 42
0.4142135623730952
  0
SEQEND
  5
77B
  8
0
  0
POLYLINE
  5
AB
  8
0
 66
     1
 10
0.0
 20
0.0
 30
0.0
 70
     1
  0
VERTEX
  5
304
  8
0
 10
263.8913642909991
 20
82.05408196637791
 30
0.0
 42
0.4142135623730952
  0
VERTEX
  5
305
  8
0
 10
262.3913642909991
 20
80.55408196637791
 30
0.0
 42
0.4142135623730952
  0
VERTEX
  5
306
  8
0
 10
263.8913642909991
 20
79.0540819663779
 30
0.0
 42
0.4142135623730952
  0
VERTEX
  5
307
  8
0
 10
265.3913642909991
 20
80.55408196637791
 30
0.0
 42
0.4142135623730952
  0
SEQEND
  5
77C
  8
0
  0
POLYLINE
  5
AC
  8
0
 66
     1
 10
0.0
 20
0.0
 30
0.0
 70
     1
  0
VERTEX
  5
308
  8
0
 10
264.3423190528991
 20
77.6342718269779
 30
0.0
 42
0.4142135623730952
  0
VERTEX
  5
309
  8
0
 10
265.8423190528991
 20
76.1342718269779
 30
0.0
 42
0.4142135623730952
  0
VERTEX
  5
30A
  8
0
 10
267.3423190528991
 20
77.6342718269779
 30
0.0
 42
0.4142135623730952
  0
VERTEX
  5
30B
  8
0
 10
265.8423190528991
 20
79.1342718269779
 30
0.0
 42
0.4142135623730952
  0
SEQEND
  5
77D
  8
0
  0
POLYLINE
  5
AD
  8
0
 66
     1
 10
0.0
 20
0.0
 30
0.0
 70
     1
  0
VERTEX
  5
30C
  8
0
 10
267.2621291922991
 20
75.6833170650779
 30
0.0
 42
0.4142135623730952
  0
VERTEX
  5
30D
  8
0
 10
268.7621291922991
 20
74.18331706507789
 30
0.0
 42
0.4142135623730952
  0
VERTEX
  5
30E
  8
0
 10
270.2621291922991
 20
75.6833170650779
 30
0.0
 42
0.4142135623730952
  0
VERTEX
  5
30F
  8
0
 10
268.7621291922991
 20
77.1833170650779
 30
0.0
 42
0.4142135623730952
  0
SEQEND
  5
77E
  8
0
  0
POLYLINE
  5
AE
  8
0
 66
     1
 10
0.0
 20
0.0
 30
0.0
 70
     1
  0
VERTEX
  5
310
  8
0
 10
268.7621291922991
 20
73.18331706507789
 30
0.0
 42
0.4142135623730952
  0
VERTEX
  5
311
  8
0
 10
267.2621291922991
 20
71.68331706507789
 30
0.0
 42
0.4142135623730952
  0
VERTEX
  5
312
  8
0
 10
268.7621291922991
 20
70.18331706507789
 30
0.0
 42
0.4142135623730952
  0
VERTEX
  5
313
  8
0
 10
270.2621291922991
 20
71.68331706507789
 30
0.0
 42
0.4142135623730952
  0
SEQEND
  5
77F
  8
0
  0
POLYLINE
  5
AF
  8
0
 66
     1
 10
0.0
 20
0.0
 30
0.0
 70
     1
  0
VERTEX
  5
314
  8
0
 10
270.7062800835991
 20
70.99331886767789
 30
0.0
 42
0.4142135623730952
  0
VERTEX
  5
315
  8
0
 10
272.2062800835991
 20
69.49331886767789
 30
0.0
 42
0.4142135623730952
  0
VERTEX
  5
316
  8
0
 10
273.7062800835991
 20
70.99331886767789
 30
0.0
 42
0.4142135623730952
  0
VERTEX
  5
317
  8
0
 10
272.2062800835991
 20
72.49331886767789
 30
0.0
 42
0.4142135623730952
  0
SEQEND
  5
780
  8
0
  0
POLYLINE
  5
B0
  8
0
 66
     1
 10
0.0
 20
0.0
 30
0.0
 70
     1
  0
VERTEX
  5
318
  8
0
 10
274.1504309748991
 20
71.68331706507789
 30
0.0
 42
0.4142135623730952
  0
VERTEX
  5
319
  8
0
 10
275.6504309748991
 20
70.18331706507789
 30
0.0
 42
0.4142135623730952
  0
VERTEX
  5
31A
  8
0
 10
277.1504309748991
 20
71.68331706507789
 30
0.0
 42
0.4142135623730952
  0
VERTEX
  5
31B
  8
0
 10
275.6504309748991
 20
73.18331706507789
 30
0.0
 42
0.4142135623730952
  0
SEQEND
  5
781
  8
0
  0
POLYLINE
  5
B1
  8
0
 66
     1
 10
0.0
 20
0.0
 30
0.0
 70
     1
  0
VERTEX
  5
31C
  8
0
 10
275.6504309748991
 20
74.18331706507789
 30
0.0
 42
0.4142135623730952
  0
VERTEX
  5
31D
  8
0
 10
277.1504309748991
 20
75.6833170650779
 30
0.0
 42
0.4142135623730952
  0
VERTEX
  5
31E
  8
0
 10
275.6504309748991
 20
77.1833170650779
 30
0.0
 42
0.4142135623730952
  0
VERTEX
  5
31F
  8
0
 10
274.1504309748991
 20
75.6833170650779
 30
0.0
 42
0.4142135623730952
  0
SEQEND
  5
782
  8
0
  0
POLYLINE
  5
B2
  8
0
 66
     1
 10
0.0
 20
0.0
 30
0.0
 70
     1
  0
VERTEX
  5
320
  8
0
 10
278.5702411142991
 20
76.1342718269779
 30
0.0
 42
0.4142135623730952
  0
VERTEX
  5
321
  8
0
 10
280.0702411142991
 20
77.6342718269779
 30
0.0
 42
0.4142135623730952
  0
VERTEX
  5
322
  8
0
 10
278.5702411142991
 20
79.1342718269779
 30
0.0
 42
0.4142135623730952
  0
VERTEX
  5
323
  8
0
 10
277.0702411142991
 20
77.6342718269779
 30
0.0
 42
0.4142135623730952
  0
SEQEND
  5
783
  8
0
  0
POLYLINE
  5
B3
  8
0
 66
     1
 10
0.0
 20
0.0
 30
0.0
 70
     1
  0
VERTEX
  5
324
  8
0
 10
280.5211958761991
 20
79.0540819663779
 30
0.0
 42
0.4142135623730952
  0
VERTEX
  5
325
  8
0
 10
282.0211958761991
 20
80.55408196637791
 30
0.0
 42
0.4142135623730952
  0
VERTEX
  5
326
  8
0
 10
280.5211958761991
 20
82.05408196637791
 30
0.0
 42
0.4142135623730952
  0
VERTEX
  5
327
  8
0
 10
279.0211958761991
 20
80.55408196637791
 30
0.0
 42
0.4142135623730952
  0
SEQEND
  5
784
  8
0
  0
POLYLINE
  5
B4
  8
0
 66
     1
 10
0.0
 20
0.0
 30
0.0
 70
     1
  0
VERTEX
  5
328
  8
0
 10
281.2062800835991
 20
82.49823285767792
 30
0.0
 42
0.4142135623730952
  0
VERTEX
  5
329
  8
0
 10
282.7062800835991
 20
83.99823285767792
 30
0.0
 42
0.4142135623730952
  0
VERTEX
  5
32A
  8
0
 10
281.2062800835991
 20
85.49823285767793
 30
0.0
 42
0.4142135623730952
  0
VERTEX
  5
32B
  8
0
 10
279.7062800835991
 20
83.99823285767792
 30
0.0
 42
0.4142135623730952
  0
SEQEND
  5
785
  8
0
  0
POLYLINE
  5
B5
  8
0
 66
     1
 10
0.0
 20
0.0
 30
0.0
 70
     1
  0
VERTEX
  5
32C
  8
0
 10
280.5211958761991
 20
85.94238374897795
 30
0.0
 42
0.4142135623730952
  0
VERTEX
  5
32D
  8
0
 10
282.0211958761991
 20
87.44238374897795
 30
0.0
 42
0.4142135623730952
  0
VERTEX
  5
32E
  8
0
 10
280.5211958761991
 20
88.94238374897795
 30
0.0
 42
0.4142135623730952
  0
VERTEX
  5
32F
  8
0
 10
279.0211958761991
 20
87.44238374897795
 30
0.0
 42
0.4142135623730952
  0
SEQEND
  5
786
  8
0
  0
POLYLINE
  5
B6
  8
0
 66
     1
 10
0.0
 20
0.0
 30
0.0
 70
     1
  0
VERTEX
  5
330
  8
0
 10
280.0702411142991
 20
90.36219388837796
 30
0.0
 42
0.4142135623730952
  0
VERTEX
  5
331
  8
0
 10
278.5702411142991
 20
91.86219388837796
 30
0.0
 42
0.4142135623730952
  0
VERTEX
  5
332
  8
0
 10
277.0702411142991
 20
90.36219388837796
 30
0.0
 42
0.4142135623730952
  0
VERTEX
  5
333
  8
0
 10
278.5702411142991
 20
88.86219388837794
 30
0.0
 42
0.4142135623730952
  0
SEQEND
  5
787
  8
0
  0
POLYLINE
  5
B7
  8
0
 66
     1
 10
0.0
 20
0.0
 30
0.0
 70
     1
  0
VERTEX
  5
334
  8
0
 10
277.1504309748991
 20
92.31314865027795
 30
0.0
 42
0.4142135623730952
  0
VERTEX
  5
335
  8
0
 10
275.6504309748991
 20
93.81314865027797
 30
0.0
 42
0.4142135623730952
  0
VERTEX
  5
336
  8
0
 10
274.1504309748991
 20
92.31314865027795
 30
0.0
 42
0.4142135623730952
  0
VERTEX
  5
337
  8
0
 10
275.6504309748991
 20
90.81314865027795
 30
0.0
 42
0.4142135623730952
  0
SEQEND
  5
788
  8
0
  0
POLYLINE
  5
B8
  8
0
 66
     1
 10
0.0
 20
0.0
 30
0.0
 70
     1
  0
VERTEX
  5
338
  8
0
 10
275.6504309748991
 20
94.81314865027797
 30
0.0
 42
0.4142135623730952
  0
VERTEX
  5
339
  8
0
 10
277.1504309748991
 20
96.31314865027797
 30
0.0
 42
0.4142135623730952
  0
VERTEX
  5
33A
  8
0
 10
275.6504309748991
 20
97.81314865027797
 30
0.0
 42
0.4142135623730952
  0
VERTEX
  5
33B
  8
0
 10
274.1504309748991
 20
96.31314865027797
 30
0.0
 42
0.4142135623730952
  0
SEQEND
  5
789
  8
0
  0
POLYLINE
  5
B9
  8
0
 66
     1
 10
0.0
 20
0.0
 30
0.0
 70
     1
  0
VERTEX
  5
33C
  8
0
 10
275.6504309748991
 20
98.81314865027798
 30
0.0
 42
0.4142135623730952
  0
VERTEX
  5
33D
  8
0
 10
277.1504309748991
 20
100.313148650278
 30
0.0
 42
0.4142135623730952
  0
VERTEX
  5
33E
  8
0
 10
275.6504309748991
 20
101.813148650278
 30
0.0
 42
0.4142135623730952
  0
VERTEX
  5
33F
  8
0
 10
274.1504309748991
 20
100.313148650278
 30
0.0
 42
0.4142135623730952
  0
SEQEND
  5
78A
  8
0
  0
POLYLINE
  5
BA
  8
0
 66
     1
 10
0.0
 20
0.0
 30
0.0
 70
     1
  0
VERTEX
  5
340
  8
0
 10
273.7062800835991
 20
97.00314684767797
 30
0.0
 42
0.4142135623730952
  0
VERTEX
  5
341
  8
0
 10
272.2062800835991
 20
98.50314684767798
 30
0.0
 42
0.4142135623730952
  0
VERTEX
  5
342
  8
0
 10
270.7062800835991
 20
97.00314684767797
 30
0.0
 42
0.4142135623730952
  0
VERTEX
  5
343
  8
0
 10
272.2062800835991
 20
95.50314684767797
 30
0.0
 42
0.4142135623730952
  0
SEQEND
  5
78B
  8
0
  0
POLYLINE
  5
BB
  8
0
 66
     1
 10
0.0
 20
0.0
 30
0.0
 70
     1
  0
VERTEX
  5
344
  8
0
 10
268.7621291922991
 20
98.81314865027798
 30
0.0
 42
0.4142135623730952
  0
VERTEX
  5
345
  8
0
 10
270.2621291922991
 20
100.313148650278
 30
0.0
 42
0.4142135623730952
  0
VERTEX
  5
346
  8
0
 10
268.7621291922991
 20
101.813148650278
 30
0.0
 42
0.4142135623730952
  0
VERTEX
  5
347
  8
0
 10
267.2621291922991
 20
100.313148650278
 30
0.0
 42
0.4142135623730952
  0
SEQEND
  5
78C
  8
0
  0
POLYLINE
  5
BC
  8
0
 66
     1
 10
0.0
 20
0.0
 30
0.0
 70
     1
  0
VERTEX
  5
348
  8
0
 10
268.7621291922991
 20
97.81314865027797
 30
0.0
 42
0.4142135623730952
  0
VERTEX
  5
349
  8
0
 10
267.2621291922991
 20
96.31314865027797
 30
0.0
 42
0.4142135623730952
  0
VERTEX
  5
34A
  8
0
 10
268.7621291922991
 20
94.81314865027797
 30
0.0
 42
0.4142135623730952
  0
VERTEX
  5
34B
  8
0
 10
270.2621291922991
 20
96.31314865027797
 30
0.0
 42
0.4142135623730952
  0
SEQEND
  5
78D
  8
0
  0
POLYLINE
  5
BD
  8
0
 66
     1
 10
0.0
 20
0.0
 30
0.0
 70
     1
  0
VERTEX
  5
34C
  8
0
 10
268.7621291922991
 20
93.81314865027797
 30
0.0
 42
0.4142135623730952
  0
VERTEX
  5
34D
  8
0
 10
267.2621291922991
 20
92.31314865027795
 30
0.0
 42
0.4142135623730952
  0
VERTEX
  5
34E
  8
0
 10
268.7621291922991
 20
90.81314865027795
 30
0.0
 42
0.4142135623730952
  0
VERTEX
  5
34F
  8
0
 10
270.2621291922991
 20
92.31314865027795
 30
0.0
 42
0.4142135623730952
  0
SEQEND
  5
78E
  8
0
  0
POLYLINE
  5
BE
  8
0
 66
     1
 10
0.0
 20
0.0
 30
0.0
 70
     1
  0
VERTEX
  5
350
  8
0
 10
265.8423190528991
 20
91.86219388837796
 30
0.0
 42
0.4142135623730952
  0
VERTEX
  5
351
  8
0
 10
264.3423190528991
 20
90.36219388837796
 30
0.0
 42
0.4142135623730952
  0
VERTEX
  5
352
  8
0
 10
265.8423190528991
 20
88.86219388837794
 30
0.0
 42
0.4142135623730952
  0
VERTEX
  5
353
  8
0
 10
267.3423190528991
 20
90.36219388837796
 30
0.0
 42
0.4142135623730952
  0
SEQEND
  5
78F
  8
0
  0
POLYLINE
  5
BF
  8
0
 66
     1
 10
0.0
 20
0.0
 30
0.0
 70
     1
  0
VERTEX
  5
354
  8
0
 10
268.6707461776991
 20
89.03376676357794
 30
0.0
 42
0.4142135623730952
  0
VERTEX
  5
355
  8
0
 10
267.1707461776991
 20
87.53376676357793
 30
0.0
 42
0.4142135623730952
  0
VERTEX
  5
356
  8
0
 10
268.6707461776991
 20
86.03376676357793
 30
0.0
 42
0.4142135623730952
  0
VERTEX
  5
357
  8
0
 10
270.1707461776991
 20
87.53376676357793
 30
0.0
 42
0.4142135623730952
  0
SEQEND
  5
790
  8
0
  0
POLYLINE
  5
C0
  8
0
 66
     1
 10
0.0
 20
0.0
 30
0.0
 70
     1
  0
VERTEX
  5
358
  8
0
 10
267.2062800835991
 20
85.49823285767793
 30
0.0
 42
0.4142135623730952
  0
VERTEX
  5
359
  8
0
 10
265.7062800835991
 20
83.99823285767792
 30
0.0
 42
0.4142135623730952
  0
VERTEX
  5
35A
  8
0
 10
267.2062800835991
 20
82.49823285767792
 30
0.0
 42
0.4142135623730952
  0
VERTEX
  5
35B
  8
0
 10
268.7062800835991
 20
83.99823285767792
 30
0.0
 42
0.4142135623730952
  0
SEQEND
  5
791
  8
0
  0
POLYLINE
  5
C1
  8
0
 66
     1
 10
0.0
 20
0.0
 30
0.0
 70
     1
  0
VERTEX
  5
35C
  8
0
 10
268.6707461776991
 20
81.96269895177792
 30
0.0
 42
0.4142135623730952
  0
VERTEX
  5
35D
  8
0
 10
267.1707461776991
 20
80.46269895177792
 30
0.0
 42
0.4142135623730952
  0
VERTEX
  5
35E
  8
0
 10
268.6707461776991
 20
78.96269895177791
 30
0.0
 42
0.4142135623730952
  0
VERTEX
  5
35F
  8
0
 10
270.1707461776991
 20
80.46269895177792
 30
0.0
 42
0.4142135623730952
  0
SEQEND
  5
792
  8
0
  0
POLYLINE
  5
C2
  8
0
 66
     1
 10
0.0
 20
0.0
 30
0.0
 70
     1
  0
VERTEX
  5
360
  8
0
 10
270.7062800835991
 20
78.9982328576779
 30
0.0
 42
0.4142135623730952
  0
VERTEX
  5
361
  8
0
 10
272.2062800835991
 20
77.4982328576779
 30
0.0
 42
0.4142135623730952
  0
VERTEX
  5
362
  8
0
 10
273.7062800835991
 20
78.9982328576779
 30
0.0
 42
0.4142135623730952
  0
VERTEX
  5
363
  8
0
 10
272.2062800835991
 20
80.49823285767792
 30
0.0
 42
0.4142135623730952
  0
SEQEND
  5
793
  8
0
  0
POLYLINE
  5
C3
  8
0
 66
     1
 10
0.0
 20
0.0
 30
0.0
 70
     1
  0
VERTEX
  5
364
  8
0
 10
274.2418139894991
 20
80.46269895177792
 30
0.0
 42
0.4142135623730952
  0
VERTEX
  5
365
  8
0
 10
275.7418139894991
 20
78.96269895177791
 30
0.0
 42
0.4142135623730952
  0
VERTEX
  5
366
  8
0
 10
277.2418139894991
 20
80.46269895177792
 30
0.0
 42
0.4142135623730952
  0
VERTEX
  5
367
  8
0
 10
275.7418139894991
 20
81.96269895177792
 30
0.0
 42
0.4142135623730952
  0
SEQEND
  5
794
  8
0
  0
POLYLINE
  5
C4
  8
0
 66
     1
 10
0.0
 20
0.0
 30
0.0
 70
     1
  0
VERTEX
  5
368
  8
0
 10
277.2062800835991
 20
82.49823285767792
 30
0.0
 42
0.4142135623730952
  0
VERTEX
  5
369
  8
0
 10
278.7062800835991
 20
83.99823285767792
 30
0.0
 42
0.4142135623730952
  0
VERTEX
  5
36A
  8
0
 10
277.2062800835991
 20
85.49823285767793
 30
0.0
 42
0.4142135623730952
  0
VERTEX
  5
36B
  8
0
 10
275.7062800835991
 20
83.99823285767792
 30
0.0
 42
0.4142135623730952
  0
SEQEND
  5
795
  8
0
  0
POLYLINE
  5
C5
  8
0
 66
     1
 10
0.0
 20
0.0
 30
0.0
 70
     1
  0
VERTEX
  5
36C
  8
0
 10
275.7418139894991
 20
86.03376676357793
 30
0.0
 42
0.4142135623730952
  0
VERTEX
  5
36D
  8
0
 10
277.2418139894991
 20
87.53376676357793
 30
0.0
 42
0.4142135623730952
  0
VERTEX
  5
36E
  8
0
 10
275.7418139894991
 20
89.03376676357794
 30
0.0
 42
0.4142135623730952
  0
VERTEX
  5
36F
  8
0
 10
274.2418139894991
 20
87.53376676357793
 30
0.0
 42
0.4142135623730952
  0
SEQEND
  5
796
  8
0
  0
POLYLINE
  5
C6
  8
0
 66
     1
 10
0.0
 20
0.0
 30
0.0
 70
     1
  0
VERTEX
  5
370
  8
0
 10
273.7062800835991
 20
88.99823285767793
 30
0.0
 42
0.4142135623730952
  0
VERTEX
  5
371
  8
0
 10
272.2062800835991
 20
90.49823285767795
 30
0.0
 42
0.4142135623730952
  0
VERTEX
  5
372
  8
0
 10
270.7062800835991
 20
88.99823285767793
 30
0.0
 42
0.4142135623730952
  0
VERTEX
  5
373
  8
0
 10
272.2062800835991
 20
87.49823285767793
 30
0.0
 42
0.4142135623730952
  0
SEQEND
  5
797
  8
0
  0
POLYLINE
  5
C7
  8
0
 66
     1
 10
0.0
 20
0.0
 30
0.0
 70
     1
  0
VERTEX
  5
374
  8
0
 10
272.2062800835991
 20
86.74823285767793
 30
0.0
 42
0.4142135623730951
  0
VERTEX
  5
375
  8
0
 10
269.4562800835991
 20
83.99823285767792
 30
0.0
 42
0.4142135623730951
  0
VERTEX
  5
376
  8
0
 10
272.2062800835991
 20
81.24823285767792
 30
0.0
 42
0.4142135623730951
  0
VERTEX
  5
377
  8
0
 10
274.9562800835991
 20
83.99823285767792
 30
0.0
 42
0.4142135623730951
  0
SEQEND
  5
798
  8
0
  0
POLYLINE
  5
C8
  8
0
 66
     1
 10
0.0
 20
0.0
 30
0.0
 70
     1
  0
VERTEX
  5
378
  8
0
 10
272.2062800835991
 20
91.49823285767795
 30
0.0
 42
0.4142135623730952
  0
VERTEX
  5
379
  8
0
 10
273.7062800835991
 20
92.99823285767795
 30
0.0
 42
0.4142135623730952
  0
VERTEX
  5
37A
  8
0
 10
272.2062800835991
 20
94.49823285767796
 30
0.0
 42
0.4142135623730952
  0
VERTEX
  5
37B
  8
0
 10
270.7062800835991
 20
92.99823285767795
 30
0.0
 42
0.4142135623730952
  0
SEQEND
  5
799
  8
0
  0
POLYLINE
  5
C9
  8
0
 66
     1
 10
0.0
 20
0.0
 30
0.0
 70
     1
  0
VERTEX
  5
37C
  8
0
 10
272.2062800835991
 20
76.4982328576779
 30
0.0
 42
0.4142135623730952
  0
VERTEX
  5
37D
  8
0
 10
270.7062800835991
 20
74.99823285767789
 30
0.0
 42
0.4142135623730952
  0
VERTEX
  5
37E
  8
0
 10
272.2062800835991
 20
73.49823285767789
 30
0.0
 42
0.4142135623730952
  0
VERTEX
  5
37F
  8
0
 10
273.7062800835991
 20
74.99823285767789
 30
0.0
 42
0.4142135623730952
  0
SEQEND
  5
79A
  8
0
  0
POLYLINE
  5
CA
  8
0
 66
     1
 10
0.0
 20
0.0
 30
0.0
 70
     1
  0
VERTEX
  5
380
  8
0
 10
260.2062800835991
 20
112.098232857678
 30
0.0
 42
0.4142135623730952
  0
VERTEX
  5
381
  8
0
 10
257.1062800835991
 20
108.998232857678
 30
0.0
 42
0.4142135623730952
  0
VERTEX
  5
382
  8
0
 10
260.2062800835991
 20
105.898232857678
 30
0.0
 42
0.4142135623730955
  0
VERTEX
  5
383
  8
0
 10
263.3062800835991
 20
108.998232857678
 30
0.0
 42
0.4142135623730951
  0
SEQEND
  5
79B
  8
0
  0
POLYLINE
  5
CB
  8
0
 66
     1
 10
0.0
 20
0.0
 30
0.0
 70
     1
  0
VERTEX
  5
384
  8
0
 10
281.1062800835991
 20
108.998232857678
 30
0.0
 42
0.4142135623730947
  0
VERTEX
  5
385
  8
0
 10
284.2062800835991
 20
105.898232857678
 30
0.0
 42
0.4142135623730963
  0
VERTEX
  5
386
  8
0
 10
287.3062800835991
 20
108.998232857678
 30
0.0
 42
0.4142135623730945
  0
VERTEX
  5
387
  8
0
 10
284.2062800835991
 20
112.098232857678
 30
0.0
 42
0.4142135623730953
  0
SEQEND
  5
79C
  8
0
  0
POLYLINE
  5
CC
  8
0
 66
     1
 10
0.0
 20
0.0
 30
0.0
 70
     1
  0
VERTEX
  5
388
  8
0
 10
199.4341131987926
 20
0.5441130677065154
 30
0.0
  0
VERTEX
  5
389
  8
0
 10
193.7541583472759
 20
6.226134327460848
 30
0.0
  0
VERTEX
  5
38A
  8
0
 10
194.20655484065
 20
6.428386110758893
 30
0.0
  0
VERTEX
  5
38B
  8
0
 10
194.6488914777166
 20
6.652390120684654
 30
0.0
  0
VERTEX
  5
38C
  8
0
 10
195.0803518813565
 20
6.897804805655581
 30
0.0
  0
VERTEX
  5
38D
  8
0
 10
195.5001196744504
 20
7.164288614089128
 30
0.0
  0
VERTEX
  5
38E
  8
0
 10
195.9073784798788
 20
7.451499994402745
 30
0.0
  0
VERTEX
  5
38F
  8
0
 10
196.3013119205224
 20
7.759097395013884
 30
0.0
  0
VERTEX
  5
390
  8
0
 10
196.681103619262
 20
8.086739264339997
 30
0.0
  0
VERTEX
  5
391
  8
0
 10
197.0459371989782
 20
8.434084050798534
 30
0.0
  0
VERTEX
  5
392
  8
0
 10
250.1708033463095
 20
61.55895019806766
 30
0.0
 42
0.0377426060985891
  0
VERTEX
  5
393
  8
0
 10
255.1084578174326
 20
67.30415275453859
 30
0.0
  0
VERTEX
  5
394
  8
0
 10
255.1089830723066
 20
67.30486905016866
 30
0.0
  0
VERTEX
  5
395
  8
0
 10
255.5952371892924
 20
67.9704552147677
 30
0.0
  0
VERTEX
  5
396
  8
0
 10
255.5957598958776
 20
67.97117337207871
 30
0.0
 42
0.5131326263677413
  0
VERTEX
  5
397
  8
0
 10
254.4430289766823
 20
71.44031508608
 30
0.0
 42
-0.3283402528679975
  0
VERTEX
  5
398
  8
0
 10
251.4562800835991
 20
75.49823285767752
 30
0.0
  0
VERTEX
  5
399
  8
0
 10
251.4562800835991
 20
92.49823285767835
 30
0.0
 42
-0.3283402528679871
  0
VERTEX
  5
39A
  8
0
 10
254.4430289766823
 20
96.55615062927588
 30
0.0
 42
0.5131326263677382
  0
VERTEX
  5
39B
  8
0
 10
255.5957598958776
 20
100.0252923432772
 30
0.0
  0
VERTEX
  5
39C
  8
0
 10
255.5952371892922
 20
100.0260105005885
 30
0.0
  0
VERTEX
  5
39D
  8
0
 10
255.1089830723053
 20
100.6915966651868
 30
0.0
  0
VERTEX
  5
39E
  8
0
 10
255.1084578174315
 20
100.6923129608165
 30
0.0
 42
0.0377426060985789
  0
VERTEX
  5
39F
  8
0
 10
250.1708033463086
 20
106.4375155172873
 30
0.0
  0
VERTEX
  5
3A0
  8
0
 10
197.0459371989782
 20
159.5623816645573
 30
0.0
  0
VERTEX
  5
3A1
  8
0
 10
196.681103619262
 20
159.9097264510158
 30
0.0
  0
VERTEX
  5
3A2
  8
0
 10
196.3013119205224
 20
160.237368320342
 30
0.0
  0
VERTEX
  5
3A3
  8
0
 10
195.9073784798788
 20
160.5449657209531
 30
0.0
  0
VERTEX
  5
3A4
  8
0
 10
195.5001196744504
 20
160.8321771012668
 30
0.0
  0
VERTEX
  5
3A5
  8
0
 10
195.0803518813565
 20
161.0986609097003
 30
0.0
  0
VERTEX
  5
3A6
  8
0
 10
194.6488914777166
 20
161.3440755946713
 30
0.0
  0
VERTEX
  5
3A7
  8
0
 10
194.20655484065
 20
161.568079604597
 30
0.0
  0
VERTEX
  5
3A8
  8
0
 10
193.7541583472759
 20
161.7703313878951
 30
0.0
  0
VERTEX
  5
3A9
  8
0
 10
199.4341815533817
 20
167.4503545940011
 30
0.0
  0
VERTEX
  5
3AA
  8
0
 10
199.6364333366798
 20
166.997958100627
 30
0.0
  0
VERTEX
  5
3AB
  8
0
 10
199.8604373466055
 20
166.5556214635603
 30
0.0
  0
VERTEX
  5
3AC
  8
0
 10
200.1058520315765
 20
166.1241610599204
 30
0.0
  0
VERTEX
  5
3AD
  8
0
 10
200.37233584001
 20
165.7043932668265
 30
0.0
  0
VERTEX
  5
3AE
  8
0
 10
200.6595472203237
 20
165.2971344613981
 30
0.0
  0
VERTEX
  5
3AF
  8
0
 10
200.9671446209348
 20
164.9032010207544
 30
0.0
  0
VERTEX
  5
3B0
  8
0
 10
201.294786490261
 20
164.5234093220148
 30
0.0
  0
VERTEX
  5
3B1
  8
0
 10
201.6421312767195
 20
164.1585757422986
 30
0.0
  0
VERTEX
  5
3B2
  8
0
 10
225.3682819613974
 20
140.4324250576263
 30
0.0
 42
0.0851835199861384
  0
VERTEX
  5
3B3
  8
0
 10
264.1069434428243
 20
113.0422800619547
 30
0.0
  0
VERTEX
  5
3B4
  8
0
 10
267.638494933715
 20
111.4149677682061
 30
0.0
 42
0.2121497714010853
  0
VERTEX
  5
3B5
  8
0
 10
276.7740652335092
 20
111.4149677681968
 30
0.0
  0
VERTEX
  5
3B6
  8
0
 10
280.3056167244019
 20
113.042280061946
 30
0.0
 42
0.0851835199861367
  0
VERTEX
  5
3B7
  8
0
 10
319.044278205801
 20
140.4324250576261
 30
0.0
  0
VERTEX
  5
3B8
  8
0
 10
342.7704288904786
 20
164.1585757422986
 30
0.0
  0
VERTEX
  5
3B9
  8
0
 10
343.1177736769371
 20
164.5234093220147
 30
0.0
  0
VERTEX
  5
3BA
  8
0
 10
343.4454155462632
 20
164.9032010207544
 30
0.0
  0
VERTEX
  5
3BB
  8
0
 10
343.7530129468744
 20
165.297134461398
 30
0.0
  0
VERTEX
  5
3BC
  8
0
 10
344.0402243271881
 20
165.7043932668265
 30
0.0
  0
VERTEX
  5
3BD
  8
0
 10
344.3067081356216
 20
166.1241610599203
 30
0.0
  0
VERTEX
  5
3BE
  8
0
 10
344.5521228205926
 20
166.5556214635602
 30
0.0
  0
VERTEX
  5
3BF
  8
0
 10
344.7761268305184
 20
166.9979581006269
 30
0.0
  0
VERTEX
  5
3C0
  8
0
 10
344.9783786138164
 20
167.450354594001
 30
0.0
  0
VERTEX
  5
3C1
  8
0
 10
350.7541333702562
 20
161.809240593729
 30
0.0
  0
VERTEX
  5
3C2
  8
0
 10
350.2848623840675
 20
161.6048852049196
 30
0.0
  0
VERTEX
  5
3C3
  8
0
 10
349.8270465804211
 20
161.377626158103
 30
0.0
  0
VERTEX
  5
3C4
  8
0
 10
349.3815058231794
 20
161.1279864283776
 30
0.0
  0
VERTEX
  5
3C5
  8
0
 10
348.9490599762047
 20
160.8564889908416
 30
0.0
  0
VERTEX
  5
3C6
  8
0
 10
348.5305289033591
 20
160.5636568205933
 30
0.0
  0
VERTEX
  5
3C7
  8
0
 10
348.1267324685051
 20
160.250012892731
 30
0.0
  0
VERTEX
  5
3C8
  8
0
 10
347.7384905355046
 20
159.9160801823529
 30
0.0
  0
VERTEX
  5
3C9
  8
0
 10
347.36662296822
 20
159.5623816645573
 30
0.0
  0
VERTEX
  5
3CA
  8
0
 10
294.2417568208914
 20
106.4375155172855
 30
0.0
 42
0.037742606098592
  0
VERTEX
  5
3CB
  8
0
 10
289.3041023497687
 20
100.692312960815
 30
0.0
  0
VERTEX
  5
3CC
  8
0
 10
289.3035770948954
 20
100.6915966651858
 30
0.0
  0
VERTEX
  5
3CD
  8
0
 10
288.8173229779064
 20
100.0260105005891
 30
0.0
  0
VERTEX
  5
3CE
  8
0
 10
288.8168002713205
 20
100.025292343277
 30
0.0
 42
0.5131326263677296
  0
VERTEX
  5
3CF
  8
0
 10
289.9695311905159
 20
96.5561506292759
 30
0.0
 42
-0.3283402528679879
  0
VERTEX
  5
3D0
  8
0
 10
292.9562800835991
 20
92.49823285767835
 30
0.0
  0
VERTEX
  5
3D1
  8
0
 10
292.9562800835991
 20
75.4982328576775
 30
0.0
 42
-0.3283402528679871
  0
VERTEX
  5
3D2
  8
0
 10
289.9695311905157
 20
71.44031508607995
 30
0.0
 42
0.5131326263677376
  0
VERTEX
  5
3D3
  8
0
 10
288.8168002713207
 20
67.97117337207857
 30
0.0
  0
VERTEX
  5
3D4
  8
0
 10
288.8173229779061
 20
67.97045521476727
 30
0.0
  0
VERTEX
  5
3D5
  8
0
 10
289.3035770948935
 20
67.3048690501694
 30
0.0
  0
VERTEX
  5
3D6
  8
0
 10
289.3041023497672
 20
67.30415275453979
 30
0.0
 42
0.0377426060985849
  0
VERTEX
  5
3D7
  8
0
 10
294.2417568208901
 20
61.55895019806908
 30
0.0
  0
VERTEX
  5
3D8
  8
0
 10
347.36662296822
 20
8.434084050798505
 30
0.0
  0
VERTEX
  5
3D9
  8
0
 10
347.7314565479362
 20
8.086739264339972
 30
0.0
  0
VERTEX
  5
3DA
  8
0
 10
348.1112482466758
 20
7.759097395013863
 30
0.0
  0
VERTEX
  5
3DB
  8
0
 10
348.5051816873195
 20
7.451499994402727
 30
0.0
  0
VERTEX
  5
3DC
  8
0
 10
348.9124404927479
 20
7.164288614089114
 30
0.0
  0
VERTEX
  5
3DD
  8
0
 10
349.3322082858417
 20
6.89780480565557
 30
0.0
  0
VERTEX
  5
3DE
  8
0
 10
349.7636686894816
 20
6.652390120684646
 30
0.0
  0
VERTEX
  5
3DF
  8
0
 10
350.2060053265483
 20
6.428386110758889
 30
0.0
  0
VERTEX
  5
3E0
  8
0
 10
350.6584018199223
 20
6.226134327460848
 30
0.0
  0
VERTEX
  5
3E1
  8
0
 10
344.9783786138165
 20
0.5461111213548655
 30
0.0
  0
VERTEX
  5
3E2
  8
0
 10
344.7761268305184
 20
0.9985076147289567
 30
0.0
  0
VERTEX
  5
3E3
  8
0
 10
344.5521228205926
 20
1.440844251795629
 30
0.0
  0
VERTEX
  5
3E4
  8
0
 10
344.3067081356216
 20
1.87230465543555
 30
0.0
  0
VERTEX
  5
3E5
  8
0
 10
344.0402243271881
 20
2.292072448529387
 30
0.0
  0
VERTEX
  5
3E6
  8
0
 10
343.7530129468745
 20
2.699331253957806
 30
0.0
  0
VERTEX
  5
3E7
  8
0
 10
343.4454155462633
 20
3.093264694601473
 30
0.0
  0
VERTEX
  5
3E8
  8
0
 10
343.1177736769372
 20
3.473056393341057
 30
0.0
  0
VERTEX
  5
3E9
  8
0
 10
342.7704288904786
 20
3.837889973057223
 30
0.0
  0
VERTEX
  5
3EA
  8
0
 10
319.044278205801
 20
27.56404065772969
 30
0.0
 42
0.0851835199861367
  0
VERTEX
  5
3EB
  8
0
 10
280.3056167244019
 20
54.95418565340995
 30
0.0
  0
VERTEX
  5
3EC
  8
0
 10
276.7740652335094
 20
56.58149794715908
 30
0.0
 42
0.2121497714010838
  0
VERTEX
  5
3ED
  8
0
 10
267.638494933689
 20
56.58149794715874
 30
0.0
  0
VERTEX
  5
3EE
  8
0
 10
264.1069434427963
 20
54.95418565340995
 30
0.0
 42
0.0851835199861378
  0
VERTEX
  5
3EF
  8
0
 10
225.368281961397
 20
27.56404065772995
 30
0.0
  0
VERTEX
  5
3F0
  8
0
 10
201.6421312767196
 20
3.837889973057194
 30
0.0
  0
VERTEX
  5
3F1
  8
0
 10
201.2944829647589
 20
3.472721206019484
 30
0.0
  0
VERTEX
  5
3F2
  8
0
 10
200.9665890845876
 20
3.092583373988878
 30
0.0
  0
VERTEX
  5
3F3
  8
0
 10
200.6588075706282
 20
2.698310531443094
 30
0.0
  0
VERTEX
  5
3F4
  8
0
 10
200.371496357303
 20
2.290736732859845
 30
0.0
  0
VERTEX
  5
3F5
  8
0
 10
200.1050133790344
 20
1.870696032716847
 30
0.0
  0
VERTEX
  5
3F6
  8
0
 10
199.8597165702449
 20
1.439022485491816
 30
0.0
  0
VERTEX
  5
3F7
  8
0
 10
199.6359638653568
 20
0.9965501456624668
 30
0.0
  0
SEQEND
  5
79D
  8
0
  0
POLYLINE
  5
CD
  8
0
 66
     1
 10
0.0
 20
0.0
 30
0.0
 70
     1
  0
VERTEX
  5
3F8
  8
0
 10
264.2562800835991
 20
93.99823285767796
 30
0.0
 42
0.4142135623730951
  0
VERTEX
  5
3F9
  8
0
 10
262.2062800835991
 20
96.04823285767797
 30
0.0
 42
0.4142135623730951
  0
VERTEX
  5
3FA
  8
0
 10
260.1562800835991
 20
93.99823285767796
 30
0.0
 42
0.4142135623730951
  0
VERTEX
  5
3FB
  8
0
 10
262.2062800835991
 20
91.94823285767794
 30
0.0
 42
0.4142135623730951
  0
SEQEND
  5
79E
  8
0
  0
POLYLINE
  5
CE
  8
0
 66
     1
 10
0.0
 20
0.0
 30
0.0
 70
     1
  0
VERTEX
  5
3FC
  8
0
 10
280.1562800835991
 20
93.99823285767796
 30
0.0
 42
0.4142135623730951
  0
VERTEX
  5
3FD
  8
0
 10
282.2062800835991
 20
91.94823285767794
 30
0.0
 42
0.4142135623730951
  0
VERTEX
  5
3FE
  8
0
 10
284.2562800835991
 20
93.99823285767796
 30
0.0
 42
0.4142135623730951
  0
VERTEX
  5
3FF
  8
0
 10
282.2062800835991
 20
96.04823285767797
 30
0.0
 42
0.4142135623730951
  0
SEQEND
  5
79F
  8
0
  0
POLYLINE
  5
CF
  8
0
 66
     1
 10
0.0
 20
0.0
 30
0.0
 70
     1
  0
VERTEX
  5
400
  8
0
 10
282.2062800835991
 20
76.04823285767792
 30
0.0
 42
0.4142135623730951
  0
VERTEX
  5
401
  8
0
 10
280.1562800835991
 20
73.99823285767789
 30
0.0
 42
0.4142135623730951
  0
VERTEX
  5
402
  8
0
 10
282.2062800835991
 20
71.94823285767788
 30
0.0
 42
0.4142135623730951
  0
VERTEX
  5
403
  8
0
 10
284.2562800835991
 20
73.99823285767789
 30
0.0
 42
0.4142135623730951
  0
SEQEND
  5
7A0
  8
0
  0
POLYLINE
  5
D0
  8
0
 66
     1
 10
0.0
 20
0.0
 30
0.0
 70
     1
  0
VERTEX
  5
404
  8
0
 10
264.2562800835991
 20
73.99823285767789
 30
0.0
 42
0.4142135623730951
  0
VERTEX
  5
405
  8
0
 10
262.2062800835991
 20
76.04823285767792
 30
0.0
 42
0.4142135623730951
  0
VERTEX
  5
406
  8
0
 10
260.1562800835991
 20
73.99823285767789
 30
0.0
 42
0.4142135623730951
  0
VERTEX
  5
407
  8
0
 10
262.2062800835991
 20
71.94823285767788
 30
0.0
 42
0.4142135623730951
  0
SEQEND
  5
7A1
  8
0
  0
POLYLINE
  5
D1
  8
0
 66
     1
 10
0.0
 20
0.0
 30
0.0
 70
     1
  0
VERTEX
  5
408
  8
0
 10
161.8532095882172
 20
58.02021153516063
 30
0.0
 42
0.7814663962464956
  0
VERTEX
  5
409
  8
0
 10
163.8452324306052
 20
59.40466616428242
 30
0.0
 42
-0.0357442977813981
  0
VERTEX
  5
40A
  8
0
 10
161.880378394904
 20
65.94644534245495
 30
0.0
 42
0.3510591646268036
  0
VERTEX
  5
40B
  8
0
 10
160.6605950276553
 20
66.92326310119157
 30
0.0
  0
VERTEX
  5
40C
  8
0
 10
156.5166723780504
 20
66.92326310119157
 30
0.0
 42
0.3510591646268095
  0
VERTEX
  5
40D
  8
0
 10
155.2968890107989
 20
65.94644534245563
 30
0.0
 42
-0.0357442977814017
  0
VERTEX
  5
40E
  8
0
 10
153.3320349750989
 20
59.40466616425391
 30
0.0
 42
0.7814663962281234
  0
VERTEX
  5
40F
  8
0
 10
155.324057817487
 20
58.0202115351596
 30
0.0
  0
VERTEX
  5
410
  8
0
 10
158.0944828164092
 20
60.4466958662033
 30
0.0
 42
-0.3760106010509145
  0
VERTEX
  5
411
  8
0
 10
159.0827845892963
 20
60.44669586620327
 30
0.0
  0
SEQEND
  5
7A2
  8
0
  0
POLYLINE
  5
D2
  8
0
 66
     1
 10
0.0
 20
0.0
 30
0.0
 70
     1
  0
VERTEX
  5
412
  8
0
 10
157.3386337028527
 20
69.9682631011915
 30
0.0
 42
0.4142135623730894
  0
VERTEX
  5
413
  8
0
 10
158.5886337028528
 20
68.71826310119158
 30
0.0
 42
0.414213562373095
  0
VERTEX
  5
414
  8
0
 10
159.8386337028527
 20
69.96826310119158
 30
0.0
 42
0.414213562373095
  0
VERTEX
  5
415
  8
0
 10
158.5886337028527
 20
71.21826310119158
 30
0.0
 42
0.4142135623730934
  0
SEQEND
  5
7A3
  8
0
  0
POLYLINE
  5
D3
  8
0
 66
     1
 10
0.0
 20
0.0
 30
0.0
 70
     1
  0
VERTEX
  5
416
  8
0
 10
158.5886337028527
 20
71.71826310119158
 30
0.0
 42
0.414213562373095
  0
VERTEX
  5
417
  8
0
 10
159.8386337028527
 20
72.96826310119158
 30
0.0
 42
0.4142135623730918
  0
VERTEX
  5
418
  8
0
 10
158.5886337028527
 20
74.21826310119161
 30
0.0
 42
0.4142135623730859
  0
VERTEX
  5
419
  8
0
 10
157.3386337028527
 20
72.9682631011915
 30
0.0
 42
0.414213562373095
  0
SEQEND
  5
7A4
  8
0
  0
POLYLINE
  5
D4
  8
0
 66
     1
 10
0.0
 20
0.0
 30
0.0
 70
     1
  0
VERTEX
  5
41A
  8
0
 10
158.5886337028527
 20
74.71826310119161
 30
0.0
 42
0.414213562373095
  0
VERTEX
  5
41B
  8
0
 10
159.8386337028527
 20
75.96826310119161
 30
0.0
 42
0.4142135623730918
  0
VERTEX
  5
41C
  8
0
 10
158.5886337028527
 20
77.21826310119158
 30
0.0
 42
0.414213562373086
  0
VERTEX
  5
41D
  8
0
 10
157.3386337028527
 20
75.96826310119152
 30
0.0
 42
0.414213562373095
  0
SEQEND
  5
7A5
  8
0
  0
POLYLINE
  5
D5
  8
0
 66
     1
 10
0.0
 20
0.0
 30
0.0
 70
     1
  0
VERTEX
  5
41E
  8
0
 10
158.5886337028527
 20
77.71826310119161
 30
0.0
 42
0.414213562373095
  0
VERTEX
  5
41F
  8
0
 10
159.8386337028527
 20
78.96826310119161
 30
0.0
 42
0.414213562373095
  0
VERTEX
  5
420
  8
0
 10
158.5886337028527
 20
80.21826310119161
 30
0.0
 42
0.414213562373095
  0
VERTEX
  5
421
  8
0
 10
157.3386337028527
 20
78.96826310119161
 30
0.0
 42
0.414213562373095
  0
SEQEND
  5
7A6
  8
0
  0
POLYLINE
  5
D6
  8
0
 66
     1
 10
0.0
 20
0.0
 30
0.0
 70
     1
  0
VERTEX
  5
422
  8
0
 10
158.5886337028527
 20
80.71826310119161
 30
0.0
 42
0.414213562373095
  0
VERTEX
  5
423
  8
0
 10
159.8386337028527
 20
81.96826310119161
 30
0.0
 42
0.4142135623730918
  0
VERTEX
  5
424
  8
0
 10
158.5886337028527
 20
83.21826310119155
 30
0.0
 42
0.414213562373086
  0
VERTEX
  5
425
  8
0
 10
157.3386337028527
 20
81.9682631011915
 30
0.0
 42
0.414213562373095
  0
SEQEND
  5
7A7
  8
0
  0
POLYLINE
  5
D7
  8
0
 66
     1
 10
0.0
 20
0.0
 30
0.0
 70
     1
  0
VERTEX
  5
426
  8
0
 10
158.5886337028527
 20
83.71826310119155
 30
0.0
 42
0.414213562373095
  0
VERTEX
  5
427
  8
0
 10
159.8386337028527
 20
84.96826310119155
 30
0.0
 42
0.414213562373095
  0
VERTEX
  5
428
  8
0
 10
158.5886337028527
 20
86.21826310119155
 30
0.0
 42
0.414213562373095
  0
VERTEX
  5
429
  8
0
 10
157.3386337028527
 20
84.96826310119155
 30
0.0
 42
0.414213562373095
  0
SEQEND
  5
7A8
  8
0
  0
POLYLINE
  5
D8
  8
0
 66
     1
 10
0.0
 20
0.0
 30
0.0
 70
     1
  0
VERTEX
  5
42A
  8
0
 10
158.5886337028527
 20
86.71826310119155
 30
0.0
 42
0.414213562373095
  0
VERTEX
  5
42B
  8
0
 10
159.8386337028527
 20
87.96826310119155
 30
0.0
 42
0.414213562373095
  0
VERTEX
  5
42C
  8
0
 10
158.5886337028527
 20
89.21826310119155
 30
0.0
 42
0.414213562373095
  0
VERTEX
  5
42D
  8
0
 10
157.3386337028527
 20
87.96826310119155
 30
0.0
 42
0.414213562373095
  0
SEQEND
  5
7A9
  8
0
  0
POLYLINE
  5
D9
  8
0
 66
     1
 10
0.0
 20
0.0
 30
0.0
 70
     1
  0
VERTEX
  5
42E
  8
0
 10
160.7409792020549
 20
91.01493931399159
 30
0.0
 42
0.5687610888172009
  0
VERTEX
  5
42F
  8
0
 10
161.8393117230955
 20
92.86173548797763
 30
0.0
  0
VERTEX
  5
430
  8
0
 10
159.7320617339158
 20
97.14905203315709
 30
0.0
 42
0.6515085452278323
  0
VERTEX
  5
431
  8
0
 10
157.4452056717914
 20
97.14905203315624
 30
0.0
  0
VERTEX
  5
432
  8
0
 10
155.3379556826116
 20
92.86173548797643
 30
0.0
 42
0.5687610888172258
  0
VERTEX
  5
433
  8
0
 10
156.4362882036508
 20
91.01493931399159
 30
0.0
  0
SEQEND
  5
7AA
  8
0
  0
POLYLINE
  5
DA
  8
0
 66
     1
 10
0.0
 20
0.0
 30
0.0
 70
     1
  0
VERTEX
  5
434
  8
0
 10
145.8476072538803
 20
105.0897976734986
 30
0.0
  0
VERTEX
  5
435
  8
0
 10
150.1467985612411
 20
110.260272943391
 30
0.0
 42
-0.4390861714046081
  0
VERTEX
  5
436
  8
0
 10
151.2378160707554
 20
110.0890711958646
 30
0.0
  0
VERTEX
  5
437
  8
0
 10
154.6826827276419
 20
104.9178755059674
 30
0.0
 42
0.2508573051010082
  0
VERTEX
  5
438
  8
0
 10
157.3874729885526
 20
103.4697105828915
 30
0.0
  0
VERTEX
  5
439
  8
0
 10
159.789794417153
 20
103.4697105828915
 30
0.0
 42
0.250857305101
  0
VERTEX
  5
43A
  8
0
 10
162.4945846780636
 20
104.9178755059674
 30
0.0
  0
VERTEX
  5
43B
  8
0
 10
165.9394513349502
 20
110.0890711958648
 30
0.0
 42
-0.4391050107979115
  0
VERTEX
  5
43C
  8
0
 10
167.0304688444644
 20
110.2602729433909
 30
0.0
  0
VERTEX
  5
43D
  8
0
 10
171.3281842683091
 20
105.0916680555672
 30
0.0
  0
VERTEX
  5
43E
  8
0
 10
171.1467597813343
 20
105.127453317418
 30
0.0
  0
VERTEX
  5
43F
  8
0
 10
170.9626236333529
 20
105.1529420547989
 30
0.0
  0
VERTEX
  5
440
  8
0
 10
170.7763801614855
 20
105.16819255397
 30
0.0
  0
VERTEX
  5
441
  8
0
 10
170.5886337028527
 20
105.1732631011915
 30
0.0
  0
VERTEX
  5
442
  8
0
 10
170.3497828860639
 20
105.1652412796345
 30
0.0
  0
VERTEX
  5
443
  8
0
 10
170.1152418098613
 20
105.1415205025023
 30
0.0
  0
VERTEX
  5
444
  8
0
 10
169.8855327681576
 20
105.1026178011037
 30
0.0
  0
VERTEX
  5
445
  8
0
 10
169.6611780548655
 20
105.0490502067471
 30
0.0
  0
VERTEX
  5
446
  8
0
 10
169.4426999638978
 20
104.9813347507411
 30
0.0
  0
VERTEX
  5
447
  8
0
 10
169.2306207891671
 20
104.8999884643942
 30
0.0
  0
VERTEX
  5
448
  8
0
 10
169.0254628245862
 20
104.8055283790149
 30
0.0
  0
VERTEX
  5
449
  8
0
 10
168.8277483640676
 20
104.6984715259119
 30
0.0
  0
VERTEX
  5
44A
  8
0
 10
168.6379997015242
 20
104.5793349363936
 30
0.0
  0
VERTEX
  5
44B
  8
0
 10
168.4567391308686
 20
104.4486356417686
 30
0.0
  0
VERTEX
  5
44C
  8
0
 10
168.2844889460137
 20
104.3068906733454
 30
0.0
  0
VERTEX
  5
44D
  8
0
 10
168.1217714408718
 20
104.1546170624327
 30
0.0
  0
VERTEX
  5
44E
  8
0
 10
167.969108909356
 20
103.9923318403389
 30
0.0
  0
VERTEX
  5
44F
  8
0
 10
167.8270236453787
 20
103.8205520383725
 30
0.0
  0
VERTEX
  5
450
  8
0
 10
167.6960379428529
 20
103.6397946878422
 30
0.0
  0
VERTEX
  5
451
  8
0
 10
167.576674095691
 20
103.4505768200565
 30
0.0
  0
VERTEX
  5
452
  8
0
 10
167.5591351849604
 20
103.5615378120896
 30
0.0
  0
VERTEX
  5
453
  8
0
 10
167.5318853572725
 20
103.6650534432188
 30
0.0
  0
VERTEX
  5
454
  8
0
 10
167.4955979633455
 20
103.7611238228217
 30
0.0
  0
VERTEX
  5
455
  8
0
 10
167.4509463538973
 20
103.8497490602756
 30
0.0
  0
VERTEX
  5
456
  8
0
 10
167.3986038796459
 20
103.9309292649582
 30
0.0
  0
VERTEX
  5
457
  8
0
 10
167.3392438913094
 20
104.0046645462469
 30
0.0
  0
VERTEX
  5
458
  8
0
 10
167.2735397396057
 20
104.0709550135194
 30
0.0
  0
VERTEX
  5
459
  8
0
 10
167.2021647752528
 20
104.1298007761531
 30
0.0
  0
VERTEX
  5
45A
  8
0
 10
167.1257923489688
 20
104.1812019435255
 30
0.0
  0
VERTEX
  5
45B
  8
0
 10
167.0450958114716
 20
104.2251586250142
 30
0.0
  0
VERTEX
  5
45C
  8
0
 10
166.9607485134794
 20
104.2616709299967
 30
0.0
  0
VERTEX
  5
45D
  8
0
 10
166.8734238057099
 20
104.2907389678504
 30
0.0
  0
VERTEX
  5
45E
  8
0
 10
166.7837950388814
 20
104.3123628479531
 30
0.0
  0
VERTEX
  5
45F
  8
0
 10
166.6925355637117
 20
104.3265426796821
 30
0.0
  0
VERTEX
  5
460
  8
0
 10
166.507817891221
 20
104.3325706355293
 30
0.0
  0
VERTEX
  5
461
  8
0
 10
166.415706395336
 20
104.3244189784026
 30
0.0
  0
VERTEX
  5
462
  8
0
 10
166.3246575939819
 20
104.3088237104123
 30
0.0
  0
VERTEX
  5
463
  8
0
 10
166.2353448378767
 20
104.285784940936
 30
0.0
  0
VERTEX
  5
464
  8
0
 10
166.1484414777384
 20
104.2553027793513
 30
0.0
  0
VERTEX
  5
465
  8
0
 10
166.0646208642851
 20
104.2173773350356
 30
0.0
  0
VERTEX
  5
466
  8
0
 10
165.9845563482347
 20
104.1720087173664
 30
0.0
  0
VERTEX
  5
467
  8
0
 10
165.9089212803052
 20
104.1191970357213
 30
0.0
  0
VERTEX
  5
468
  8
0
 10
165.8383890112146
 20
104.0589423994779
 30
0.0
  0
VERTEX
  5
469
  8
0
 10
165.773632891681
 20
103.9912449180136
 30
0.0
  0
VERTEX
  5
46A
  8
0
 10
165.7153262724224
 20
103.9161047007059
 30
0.0
  0
VERTEX
  5
46B
  8
0
 10
165.6641425041567
 20
103.8335218569325
 30
0.0
  0
VERTEX
  5
46C
  8
0
 10
165.6207549376019
 20
103.7434964960707
 30
0.0
  0
VERTEX
  5
46D
  8
0
 10
165.5858369234762
 20
103.6460287274982
 30
0.0
  0
VERTEX
  5
46E
  8
0
 10
165.5600618124974
 20
103.5411186605925
 30
0.0
  0
VERTEX
  5
46F
  8
0
 10
165.5441029553836
 20
103.4287664047311
 30
0.0
  0
VERTEX
  5
470
  8
0
 10
165.5386337028527
 20
103.3089720692915
 30
0.0
  0
VERTEX
  5
471
  8
0
 10
165.5386337028527
 20
99.30897206929157
 30
0.0
 42
1.0
  0
VERTEX
  5
472
  8
0
 10
167.5886337028527
 20
99.30897206929146
 30
0.0
  0
VERTEX
  5
473
  8
0
 10
167.5855669346165
 20
99.87985047781112
 30
0.0
  0
VERTEX
  5
474
  8
0
 10
167.7064389219394
 20
99.69062067802054
 30
0.0
  0
VERTEX
  5
475
  8
0
 10
167.8387910002901
 20
99.51023123037592
 30
0.0
  0
VERTEX
  5
476
  8
0
 10
167.9820722840396
 20
99.33914686195321
 30
0.0
  0
VERTEX
  5
477
  8
0
 10
168.1357318875588
 20
99.17783229982828
 30
0.0
  0
VERTEX
  5
478
  8
0
 10
168.2992189252186
 20
99.02675227107707
 30
0.0
  0
VERTEX
  5
479
  8
0
 10
168.4719825113901
 20
98.88637150277549
 30
0.0
  0
VERTEX
  5
47A
  8
0
 10
168.6534717604442
 20
98.75715472199947
 30
0.0
  0
VERTEX
  5
47B
  8
0
 10
168.8431357867517
 20
98.63956665582492
 30
0.0
  0
VERTEX
  5
47C
  8
0
 10
169.0404237046837
 20
98.53407203132778
 30
0.0
  0
VERTEX
  5
47D
  8
0
 10
169.2447846286112
 20
98.44113557558391
 30
0.0
  0
VERTEX
  5
47E
  8
0
 10
169.455667672905
 20
98.36122201566928
 30
0.0
  0
VERTEX
  5
47F
  8
0
 10
169.6725219519362
 20
98.29479607865977
 30
0.0
  0
VERTEX
  5
480
  8
0
 10
169.8947965800755
 20
98.24232249163131
 30
0.0
  0
VERTEX
  5
481
  8
0
 10
170.1219406716941
 20
98.20426598165986
 30
0.0
  0
VERTEX
  5
482
  8
0
 10
170.3534033411628
 20
98.18109127582129
 30
0.0
  0
VERTEX
  5
483
  8
0
 10
170.5886337028527
 20
98.17326310119151
 30
0.0
  0
VERTEX
  5
484
  8
0
 10
170.8853052665646
 20
98.18566992455784
 30
0.0
  0
VERTEX
  5
485
  8
0
 10
171.1750243575633
 20
98.2222636725178
 30
0.0
  0
VERTEX
  5
486
  8
0
 10
171.4567072302626
 20
98.28210426186273
 30
0.0
  0
VERTEX
  5
487
  8
0
 10
171.7292701390762
 20
98.36425160938401
 30
0.0
  0
VERTEX
  5
488
  8
0
 10
171.991629338418
 20
98.46776563187302
 30
0.0
  0
VERTEX
  5
489
  8
0
 10
172.2427010827018
 20
98.59170624612112
 30
0.0
  0
VERTEX
  5
48A
  8
0
 10
172.4814016263415
 20
98.73513336891966
 30
0.0
  0
VERTEX
  5
48B
  8
0
 10
172.7066472237508
 20
98.89710691706003
 30
0.0
  0
VERTEX
  5
48C
  8
0
 10
172.3161676891744
 20
98.2635303661296
 30
0.0
  0
VERTEX
  5
48D
  8
0
 10
171.9378244475768
 20
97.62486740343995
 30
0.0
  0
VERTEX
  5
48E
  8
0
 10
171.5716169848916
 20
96.98127879556708
 30
0.0
  0
VERTEX
  5
48F
  8
0
 10
171.2175447870524
 20
96.33292530908702
 30
0.0
  0
VERTEX
  5
490
  8
0
 10
170.8756073399928
 20
95.6799677105758
 30
0.0
  0
VERTEX
  5
491
  8
0
 10
170.5458041296463
 20
95.02256676660943
 30
0.0
  0
VERTEX
  5
492
  8
0
 10
170.2281346419466
 20
94.36088324376391
 30
0.0
  0
VERTEX
  5
493
  8
0
 10
169.9225983628273
 20
93.6950779086153
 30
0.0
  0
VERTEX
  5
494
  8
0
 10
169.6291947782219
 20
93.0253115277396
 30
0.0
  0
VERTEX
  5
495
  8
0
 10
169.3479233740641
 20
92.35174486771282
 30
0.0
  0
VERTEX
  5
496
  8
0
 10
169.0787836362874
 20
91.67453869511101
 30
0.0
  0
VERTEX
  5
497
  8
0
 10
168.8217750508254
 20
90.99385377651015
 30
0.0
  0
VERTEX
  5
498
  8
0
 10
168.5768971036118
 20
90.30985087848629
 30
0.0
  0
VERTEX
  5
499
  8
0
 10
168.34414928058
 20
89.62269076761544
 30
0.0
  0
VERTEX
  5
49A
  8
0
 10
168.1235310676638
 20
88.93253421047363
 30
0.0
  0
VERTEX
  5
49B
  8
0
 10
167.9150419507966
 20
88.23954197363688
 30
0.0
  0
VERTEX
  5
49C
  8
0
 10
167.7186814159122
 20
87.5438748236812
 30
0.0
  0
VERTEX
  5
49D
  8
0
 10
167.534448948944
 20
86.84569352718259
 30
0.0
  0
VERTEX
  5
49E
  8
0
 10
167.3623440358256
 20
86.1451588507171
 30
0.0
  0
VERTEX
  5
49F
  8
0
 10
167.2023661624908
 20
85.44243156086075
 30
0.0
  0
VERTEX
  5
4A0
  8
0
 10
167.0545148148729
 20
84.73767242418955
 30
0.0
  0
VERTEX
  5
4A1
  8
0
 10
166.9187894789058
 20
84.03104220727951
 30
0.0
  0
VERTEX
  5
4A2
  8
0
 10
166.7951896405228
 20
83.32270167670669
 30
0.0
  0
VERTEX
  5
4A3
  8
0
 10
166.6837147856577
 20
82.61281159904706
 30
0.0
  0
VERTEX
  5
4A4
  8
0
 10
166.5843644002439
 20
81.90153274087669
 30
0.0
  0
VERTEX
  5
4A5
  8
0
 10
166.4971379702152
 20
81.18902586877154
 30
0.0
  0
VERTEX
  5
4A6
  8
0
 10
166.4220349815051
 20
80.47545174930767
 30
0.0
  0
VERTEX
  5
4A7
  8
0
 10
166.3590549200472
 20
79.7609711490611
 30
0.0
  0
VERTEX
  5
4A8
  8
0
 10
166.308197271775
 20
79.04574483460786
 30
0.0
  0
VERTEX
  5
4A9
  8
0
 10
166.2694615226222
 20
78.32993357252394
 30
0.0
  0
VERTEX
  5
4AA
  8
0
 10
166.2428471585224
 20
77.61369812938538
 30
0.0
  0
VERTEX
  5
4AB
  8
0
 10
166.2283536654091
 20
76.89719927176819
 30
0.0
  0
VERTEX
  5
4AC
  8
0
 10
166.225980529216
 20
76.18059776624838
 30
0.0
  0
VERTEX
  5
4AD
  8
0
 10
166.2357272358766
 20
75.464054379402
 30
0.0
  0
VERTEX
  5
4AE
  8
0
 10
166.2575932713246
 20
74.74772987780506
 30
0.0
  0
VERTEX
  5
4AF
  8
0
 10
166.2915781214934
 20
74.03178502803357
 30
0.0
  0
VERTEX
  5
4B0
  8
0
 10
166.3376812723168
 20
73.31638059666355
 30
0.0
  0
VERTEX
  5
4B1
  8
0
 10
166.3959022097283
 20
72.60167735027102
 30
0.0
  0
VERTEX
  5
4B2
  8
0
 10
166.4662404196615
 20
71.88783605543202
 30
0.0
  0
VERTEX
  5
4B3
  8
0
 10
166.5486953880499
 20
71.17501747872255
 30
0.0
  0
VERTEX
  5
4B4
  8
0
 10
166.6432666008272
 20
70.46338238671865
 30
0.0
  0
VERTEX
  5
4B5
  8
0
 10
166.7499535439271
 20
69.7530915459963
 30
0.0
  0
VERTEX
  5
4B6
  8
0
 10
166.8687557032829
 20
69.04430572313154
 30
0.0
  0
VERTEX
  5
4B7
  8
0
 10
166.9996725648284
 20
68.33718568470042
 30
0.0
  0
VERTEX
  5
4B8
  8
0
 10
167.1427036144972
 20
67.63189219727893
 30
0.0
  0
VERTEX
  5
4B9
  8
0
 10
167.2978483382227
 20
66.92858602744309
 30
0.0
  0
VERTEX
  5
4BA
  8
0
 10
167.4651062219388
 20
66.22742794176894
 30
0.0
  0
VERTEX
  5
4BB
  8
0
 10
167.6444767515788
 20
65.52857870683248
 30
0.0
  0
VERTEX
  5
4BC
  8
0
 10
167.8359594130764
 20
64.83219908920974
 30
0.0
  0
VERTEX
  5
4BD
  8
0
 10
168.0395536923652
 20
64.13844985547674
 30
0.0
  0
VERTEX
  5
4BE
  8
0
 10
168.2552590753789
 20
63.44749177220947
 30
0.0
  0
VERTEX
  5
4BF
  8
0
 10
168.4830750480509
 20
62.759485605984
 30
0.0
  0
VERTEX
  5
4C0
  8
0
 10
168.7230010963148
 20
62.07459212337633
 30
0.0
  0
VERTEX
  5
4C1
  8
0
 10
168.9750367061044
 20
61.39297209096247
 30
0.0
  0
VERTEX
  5
4C2
  8
0
 10
169.2391813633531
 20
60.71478627531845
 30
0.0
  0
VERTEX
  5
4C3
  8
0
 10
169.5154345539946
 20
60.04019544302028
 30
0.0
  0
VERTEX
  5
4C4
  8
0
 10
169.8037957639624
 20
59.369360360644
 30
0.0
  0
VERTEX
  5
4C5
  8
0
 10
170.1042644791901
 20
58.70244179476562
 30
0.0
  0
VERTEX
  5
4C6
  8
0
 10
170.4168401856113
 20
58.03960051196115
 30
0.0
  0
VERTEX
  5
4C7
  8
0
 10
170.7415223691597
 20
57.38099727880662
 30
0.0
  0
VERTEX
  5
4C8
  8
0
 10
171.0783105157687
 20
56.72679286187804
 30
0.0
  0
VERTEX
  5
4C9
  8
0
 10
171.4272041113721
 20
56.07714802775145
 30
0.0
  0
VERTEX
  5
4CA
  8
0
 10
171.7882026419034
 20
55.43222354300286
 30
0.0
  0
VERTEX
  5
4CB
  8
0
 10
172.1613055932961
 20
54.79218017420828
 30
0.0
  0
VERTEX
  5
4CC
  8
0
 10
171.9819999433829
 20
54.87925696707672
 30
0.0
  0
VERTEX
  5
4CD
  8
0
 10
171.7969638615156
 20
54.95561323422642
 30
0.0
  0
VERTEX
  5
4CE
  8
0
 10
171.6065942299009
 20
55.02097474894595
 30
0.0
  0
VERTEX
  5
4CF
  8
0
 10
171.4112879307456
 20
55.07506728452391
 30
0.0
  0
VERTEX
  5
4D0
  8
0
 10
171.2114418462564
 20
55.11761661424887
 30
0.0
  0
VERTEX
  5
4D1
  8
0
 10
171.0074528586401
 20
55.14834851140941
 30
0.0
  0
VERTEX
  5
4D2
  8
0
 10
170.7997178501033
 20
55.1669887492941
 30
0.0
  0
VERTEX
  5
4D3
  8
0
 10
170.5886337028529
 20
55.17326310119154
 30
0.0
 42
0.4142135623730963
  0
VERTEX
  5
4D4
  8
0
 10
167.0886337028527
 20
51.67326310119154
 30
0.0
  0
VERTEX
  5
4D5
  8
0
 10
167.0924678031042
 20
51.50918884738693
 30
0.0
  0
VERTEX
  5
4D6
  8
0
 10
167.1038857905441
 20
51.34645706116944
 30
0.0
  0
VERTEX
  5
4D7
  8
0
 10
167.1489675471022
 20
51.02590749691961
 30
0.0
  0
VERTEX
  5
4D8
  8
0
 10
167.2228672127531
 20
50.71338761928968
 30
0.0
  0
VERTEX
  5
4D9
  8
0
 10
167.3245730277227
 20
50.41067063912725
 30
0.0
  0
VERTEX
  5
4DA
  8
0
 10
167.4530732322372
 20
50.11952976727994
 30
0.0
  0
VERTEX
  5
4DB
  8
0
 10
167.6073560665224
 20
49.84173821459535
 30
0.0
  0
VERTEX
  5
4DC
  8
0
 10
167.7864097708043
 20
49.57906919192111
 30
0.0
  0
VERTEX
  5
4DD
  8
0
 10
167.9892225853091
 20
49.33329591010482
 30
0.0
  0
VERTEX
  5
4DE
  8
0
 10
163.2927045000135
 20
51.65023917165831
 30
0.0
 42
0.2191067921341517
  0
VERTEX
  5
4DF
  8
0
 10
153.8845629056888
 20
51.65023917166559
 30
0.0
  0
VERTEX
  5
4E0
  8
0
 10
149.1982410928174
 20
49.34090725941556
 30
0.0
  0
VERTEX
  5
4E1
  8
0
 10
149.397945788224
 20
49.58579524796649
 30
0.0
  0
VERTEX
  5
4E2
  8
0
 10
149.5745911816452
 20
49.84736876968059
 30
0.0
  0
VERTEX
  5
4E3
  8
0
 10
149.7270775499091
 20
50.12395027107212
 30
0.0
  0
VERTEX
  5
4E4
  8
0
 10
149.8543051698438
 20
50.41386219865538
 30
0.0
  0
VERTEX
  5
4E5
  8
0
 10
149.9551743182774
 20
50.71542699894466
 30
0.0
  0
VERTEX
  5
4E6
  8
0
 10
150.028585272038
 20
51.02696711845425
 30
0.0
  0
VERTEX
  5
4E7
  8
0
 10
150.0546502624247
 20
51.18595368745238
 30
0.0
  0
VERTEX
  5
4E8
  8
0
 10
150.0734383079538
 20
51.34680500369845
 30
0.0
  0
VERTEX
  5
4E9
  8
0
 10
150.0848119432286
 20
51.50931137300674
 30
0.0
  0
VERTEX
  5
4EA
  8
0
 10
150.0886337028527
 20
51.67326310119154
 30
0.0
 42
0.4142135623730935
  0
VERTEX
  5
4EB
  8
0
 10
146.5886337028525
 20
55.17326310119154
 30
0.0
  0
VERTEX
  5
4EC
  8
0
 10
146.3770728327796
 20
55.16696597386854
 30
0.0
  0
VERTEX
  5
4ED
  8
0
 10
146.1689118321194
 20
55.14828289175502
 30
0.0
  0
VERTEX
  5
4EE
  8
0
 10
145.9645846989808
 20
55.11752630463415
 30
0.0
  0
VERTEX
  5
4EF
  8
0
 10
145.7645254314725
 20
55.07500866228915
 30
0.0
  0
VERTEX
  5
4F0
  8
0
 10
145.5691680277035
 20
55.02104241450319
 30
0.0
  0
VERTEX
  5
4F1
  8
0
 10
145.3789464857824
 20
54.95594001105947
 30
0.0
  0
VERTEX
  5
4F2
  8
0
 10
145.1942948038184
 20
54.88001390174117
 30
0.0
  0
VERTEX
  5
4F3
  8
0
 10
145.01564697992
 20
54.7935765363315
 30
0.0
  0
VERTEX
  5
4F4
  8
0
 10
145.3887873111375
 20
55.43376943463053
 30
0.0
  0
VERTEX
  5
4F5
  8
0
 10
145.749819975656
 20
56.07883748991549
 30
0.0
  0
VERTEX
  5
4F6
  8
0
 10
146.098744576879
 20
56.72861997022365
 30
0.0
  0
VERTEX
  5
4F7
  8
0
 10
146.4355607182107
 20
57.38295614359225
 30
0.0
  0
VERTEX
  5
4F8
  8
0
 10
146.7602680030549
 20
58.04168527805859
 30
0.0
  0
VERTEX
  5
4F9
  8
0
 10
147.0728660348154
 20
58.70464664165992
 30
0.0
  0
VERTEX
  5
4FA
  8
0
 10
147.3733544168963
 20
59.37167950243351
 30
0.0
  0
VERTEX
  5
4FB
  8
0
 10
147.6617327527013
 20
60.04262312841661
 30
0.0
  0
VERTEX
  5
4FC
  8
0
 10
147.9380006456344
 20
60.71731678764652
 30
0.0
  0
VERTEX
  5
4FD
  8
0
 10
148.2021576990994
 20
61.39559974816049
 30
0.0
  0
VERTEX
  5
4FE
  8
0
 10
148.4542035165003
 20
62.07731127799578
 30
0.0
  0
VERTEX
  5
4FF
  8
0
 10
148.694137701241
 20
62.76229064518965
 30
0.0
  0
VERTEX
  5
500
  8
0
 10
148.9219598567253
 20
63.45037711777939
 30
0.0
  0
VERTEX
  5
501
  8
0
 10
149.1376695863572
 20
64.14140996380225
 30
0.0
  0
VERTEX
  5
502
  8
0
 10
149.3412664935404
 20
64.83522845129549
 30
0.0
  0
VERTEX
  5
503
  8
0
 10
149.532750181679
 20
65.53167184829641
 30
0.0
  0
VERTEX
  5
504
  8
0
 10
149.7121202541769
 20
66.23057942284225
 30
0.0
  0
VERTEX
  5
505
  8
0
 10
149.8793763144378
 20
66.93179044297028
 30
0.0
  0
VERTEX
  5
506
  8
0
 10
150.0345179658658
 20
67.63514417671774
 30
0.0
  0
VERTEX
  5
507
  8
0
 10
150.1775448118647
 20
68.34047989212195
 30
0.0
  0
VERTEX
  5
508
  8
0
 10
150.3084564558383
 20
69.04763685722014
 30
0.0
  0
VERTEX
  5
509
  8
0
 10
150.4272525011907
 20
69.75645434004957
 30
0.0
  0
VERTEX
  5
50A
  8
0
 10
150.5339325513256
 20
70.46677160864753
 30
0.0
  0
VERTEX
  5
50B
  8
0
 10
150.6284962096471
 20
71.17842793105129
 30
0.0
  0
VERTEX
  5
50C
  8
0
 10
150.7109430795589
 20
71.8912625752981
 30
0.0
  0
VERTEX
  5
50D
  8
0
 10
150.781272764465
 20
72.60511480942522
 30
0.0
  0
VERTEX
  5
50E
  8
0
 10
150.8394848677693
 20
73.31982390146993
 30
0.0
  0
VERTEX
  5
50F
  8
0
 10
150.8855789928756
 20
74.0352291194695
 30
0.0
  0
VERTEX
  5
510
  8
0
 10
150.9195547431879
 20
74.75116973146119
 30
0.0
  0
VERTEX
  5
511
  8
0
 10
150.94141172211
 20
75.46748500548227
 30
0.0
  0
VERTEX
  5
512
  8
0
 10
150.9511495330459
 20
76.18401420957
 30
0.0
  0
VERTEX
  5
513
  8
0
 10
150.9487677793994
 20
76.90059661176164
 30
0.0
  0
VERTEX
  5
514
  8
0
 10
150.9342660645745
 20
77.61707148009447
 30
0.0
  0
VERTEX
  5
515
  8
0
 10
150.907643991975
 20
78.33327808260576
 30
0.0
  0
VERTEX
  5
516
  8
0
 10
150.8689011650048
 20
79.04905568733275
 30
0.0
  0
VERTEX
  5
517
  8
0
 10
150.8180371870677
 20
79.76424356231274
 30
0.0
  0
VERTEX
  5
518
  8
0
 10
150.7550516615678
 20
80.47868097558299
 30
0.0
  0
VERTEX
  5
519
  8
0
 10
150.679944191909
 20
81.19220719518074
 30
0.0
  0
VERTEX
  5
51A
  8
0
 10
150.5927143814951
 20
81.90466148914328
 30
0.0
  0
VERTEX
  5
51B
  8
0
 10
150.4933618337299
 20
82.61588312550786
 30
0.0
  0
VERTEX
  5
51C
  8
0
 10
150.3818861520174
 20
83.32571137231176
 30
0.0
  0
VERTEX
  5
51D
  8
0
 10
150.2582869397615
 20
84.03398549759225
 30
0.0
  0
VERTEX
  5
51E
  8
0
 10
150.122563800366
 20
84.74054476938659
 30
0.0
  0
VERTEX
  5
51F
  8
0
 10
149.974716337235
 20
85.44522845573204
 30
0.0
  0
VERTEX
  5
520
  8
0
 10
149.8147441537722
 20
86.14787582466587
 30
0.0
  0
VERTEX
  5
521
  8
0
 10
149.6426468533815
 20
86.84832614422535
 30
0.0
  0
VERTEX
  5
522
  8
0
 10
149.4584240394669
 20
87.54641868244775
 30
0.0
  0
VERTEX
  5
523
  8
0
 10
149.2620753154323
 20
88.24199270737034
 30
0.0
  0
VERTEX
  5
524
  8
0
 10
149.0536002846815
 20
88.93488748703038
 30
0.0
  0
VERTEX
  5
525
  8
0
 10
148.8329985506184
 20
89.62494228946511
 30
0.0
  0
VERTEX
  5
526
  8
0
 10
148.600269716647
 20
90.31199638271184
 30
0.0
  0
VERTEX
  5
527
  8
0
 10
148.3554133861711
 20
90.99588903480782
 30
0.0
  0
VERTEX
  5
528
  8
0
 10
148.0984291625946
 20
91.67645951379029
 30
0.0
  0
VERTEX
  5
529
  8
0
 10
147.8293166493214
 20
92.35354708769657
 30
0.0
  0
VERTEX
  5
52A
  8
0
 10
147.5480754497554
 20
93.02699102456388
 30
0.0
  0
VERTEX
  5
52B
  8
0
 10
147.2547051673005
 20
93.6966305924295
 30
0.0
  0
VERTEX
  5
52C
  8
0
 10
146.9492054053607
 20
94.3623050593307
 30
0.0
  0
VERTEX
  5
52D
  8
0
 10
146.6315757673397
 20
95.02385369330474
 30
0.0
  0
VERTEX
  5
52E
  8
0
 10
146.3018158566415
 20
95.68111576238891
 30
0.0
  0
VERTEX
  5
52F
  8
0
 10
145.95992527667
 20
96.33393053462044
 30
0.0
  0
VERTEX
  5
530
  8
0
 10
145.6059036308291
 20
96.98213727803662
 30
0.0
  0
VERTEX
  5
531
  8
0
 10
145.2397505225226
 20
97.62557526067471
 30
0.0
  0
VERTEX
  5
532
  8
0
 10
144.8614655551545
 20
98.26408375057198
 30
0.0
  0
VERTEX
  5
533
  8
0
 10
144.4710483321286
 20
98.8975020157657
 30
0.0
  0
VERTEX
  5
534
  8
0
 10
144.6968231455967
 20
98.73517186859874
 30
0.0
  0
VERTEX
  5
535
  8
0
 10
144.9358267114085
 20
98.59154057405621
 30
0.0
  0
VERTEX
  5
536
  8
0
 10
145.1870051330883
 20
98.4675158890895
 30
0.0
  0
VERTEX
  5
537
  8
0
 10
145.4493045141602
 20
98.36400557064995
 30
0.0
  0
VERTEX
  5
538
  8
0
 10
145.7216709581483
 20
98.28191737568899
 30
0.0
  0
VERTEX
  5
539
  8
0
 10
146.003050568577
 20
98.22215906115801
 30
0.0
  0
VERTEX
  5
53A
  8
0
 10
146.2923894489703
 20
98.1856383840084
 30
0.0
  0
VERTEX
  5
53B
  8
0
 10
146.5886337028524
 20
98.17326310119151
 30
0.0
  0
VERTEX
  5
53C
  8
0
 10
146.8259866859938
 20
98.18118474366327
 30
0.0
  0
VERTEX
  5
53D
  8
0
 10
147.0590902609012
 20
98.2046133827163
 30
0.0
  0
VERTEX
  5
53E
  8
0
 10
147.2874346889897
 20
98.24304458580724
 30
0.0
  0
VERTEX
  5
53F
  8
0
 10
147.5105102316743
 20
98.29597392039265
 30
0.0
  0
VERTEX
  5
540
  8
0
 10
147.7278071503701
 20
98.36289695392917
 30
0.0
  0
VERTEX
  5
541
  8
0
 10
147.9388157064919
 20
98.44330925387337
 30
0.0
  0
VERTEX
  5
542
  8
0
 10
148.1430261614549
 20
98.53670638768187
 30
0.0
  0
VERTEX
  5
543
  8
0
 10
148.3399287766741
 20
98.64258392281127
 30
0.0
  0
VERTEX
  5
544
  8
0
 10
148.5290138135645
 20
98.76043742671817
 30
0.0
  0
VERTEX
  5
545
  8
0
 10
148.709771533541
 20
98.88976246685918
 30
0.0
  0
VERTEX
  5
546
  8
0
 10
148.8816921980188
 20
99.0300546106909
 30
0.0
  0
VERTEX
  5
547
  8
0
 10
149.0442660684128
 20
99.18080942566993
 30
0.0
  0
VERTEX
  5
548
  8
0
 10
149.196983406138
 20
99.34152247925287
 30
0.0
  0
VERTEX
  5
549
  8
0
 10
149.3393344726095
 20
99.51168933889633
 30
0.0
  0
VERTEX
  5
54A
  8
0
 10
149.4708095292423
 20
99.69080557205689
 30
0.0
  0
VERTEX
  5
54B
  8
0
 10
149.5908988374514
 20
99.87836674619118
 30
0.0
  0
VERTEX
  5
54C
  8
0
 10
149.5886337028527
 20
99.3089720692914
 30
0.0
 42
0.9999999999999913
  0
VERTEX
  5
54D
  8
0
 10
151.6386337028527
 20
99.30897206929157
 30
0.0
  0
VERTEX
  5
54E
  8
0
 10
151.6386337028527
 20
103.3089720692915
 30
0.0
  0
VERTEX
  5
54F
  8
0
 10
151.6331523668105
 20
103.4288958838233
 30
0.0
  0
VERTEX
  5
550
  8
0
 10
151.6171587299856
 20
103.5413615392387
 30
0.0
  0
VERTEX
  5
551
  8
0
 10
151.5913283493309
 20
103.646369448245
 30
0.0
  0
VERTEX
  5
552
  8
0
 10
151.5563367817993
 20
103.7439200235495
 30
0.0
  0
VERTEX
  5
553
  8
0
 10
151.5128595843436
 20
103.8340136778594
 30
0.0
  0
VERTEX
  5
554
  8
0
 10
151.4615723139166
 20
103.916650823882
 30
0.0
  0
VERTEX
  5
555
  8
0
 10
151.4031505274712
 20
103.9918318743245
 30
0.0
  0
VERTEX
  5
556
  8
0
 10
151.3382697819603
 20
104.0595572418943
 30
0.0
  0
VERTEX
  5
557
  8
0
 10
151.2676056343367
 20
104.1198273392986
 30
0.0
  0
VERTEX
  5
558
  8
0
 10
151.1918336415532
 20
104.1726425792446
 30
0.0
  0
VERTEX
  5
559
  8
0
 10
151.1116293605626
 20
104.2180033744397
 30
0.0
  0
VERTEX
  5
55A
  8
0
 10
151.0276683483179
 20
104.2559101375911
 30
0.0
  0
VERTEX
  5
55B
  8
0
 10
150.9406261617719
 20
104.286363281406
 30
0.0
  0
VERTEX
  5
55C
  8
0
 10
150.8511783578774
 20
104.3093632185918
 30
0.0
  0
VERTEX
  5
55D
  8
0
 10
150.6677681258543
 20
104.333005123905
 30
0.0
  0
VERTEX
  5
55E
  8
0
 10
150.4828421078714
 20
104.3268391551887
 30
0.0
  0
VERTEX
  5
55F
  8
0
 10
150.3914995715271
 20
104.3125792498378
 30
0.0
  0
VERTEX
  5
560
  8
0
 10
150.3018047595514
 20
104.2908686141012
 30
0.0
  0
VERTEX
  5
561
  8
0
 10
150.2144332288972
 20
104.2617076606864
 30
0.0
  0
VERTEX
  5
562
  8
0
 10
150.1300605365172
 20
104.2250968023006
 30
0.0
  0
VERTEX
  5
563
  8
0
 10
150.0493622393643
 20
104.181036451651
 30
0.0
  0
VERTEX
  5
564
  8
0
 10
149.9730138943915
 20
104.129527021445
 30
0.0
  0
VERTEX
  5
565
  8
0
 10
149.9016910585514
 20
104.0705689243898
 30
0.0
  0
VERTEX
  5
566
  8
0
 10
149.836069288797
 20
104.0041625731926
 30
0.0
  0
VERTEX
  5
567
  8
0
 10
149.7768241420811
 20
103.9303083805607
 30
0.0
  0
VERTEX
  5
568
  8
0
 10
149.7246311753565
 20
103.8490067592015
 30
0.0
  0
VERTEX
  5
569
  8
0
 10
149.6801659455762
 20
103.7602581218221
 30
0.0
  0
VERTEX
  5
56A
  8
0
 10
149.6441040096929
 20
103.6640628811299
 30
0.0
  0
VERTEX
  5
56B
  8
0
 10
149.6171209246595
 20
103.5604214498321
 30
0.0
  0
VERTEX
  5
56C
  8
0
 10
149.5998922474288
 20
103.4493342406359
 30
0.0
  0
VERTEX
  5
56D
  8
0
 10
149.4804520220198
 20
103.6388893816947
 30
0.0
  0
VERTEX
  5
56E
  8
0
 10
149.3494114263259
 20
103.8199261437532
 30
0.0
  0
VERTEX
  5
56F
  8
0
 10
149.2072915844473
 20
103.991932476961
 30
0.0
  0
VERTEX
  5
570
  8
0
 10
149.0546136204843
 20
104.1543963314672
 30
0.0
  0
VERTEX
  5
571
  8
0
 10
148.8918986585373
 20
104.3068056574213
 30
0.0
  0
VERTEX
  5
572
  8
0
 10
148.7196678227064
 20
104.4486484049726
 30
0.0
  0
VERTEX
  5
573
  8
0
 10
148.5384422370921
 20
104.5794125242705
 30
0.0
  0
VERTEX
  5
574
  8
0
 10
148.3487430257945
 20
104.6985859654644
 30
0.0
  0
VERTEX
  5
575
  8
0
 10
148.151091312914
 20
104.8056566787035
 30
0.0
  0
VERTEX
  5
576
  8
0
 10
147.9460082225509
 20
104.9001126141373
 30
0.0
  0
VERTEX
  5
577
  8
0
 10
147.7340148788054
 20
104.981441721915
 30
0.0
  0
VERTEX
  5
578
  8
0
 10
147.5156324057778
 20
105.0491319521862
 30
0.0
  0
VERTEX
  5
579
  8
0
 10
147.2913819275685
 20
105.1026712551001
 30
0.0
  0
VERTEX
  5
57A
  8
0
 10
147.0617845682777
 20
105.141547580806
 30
0.0
  0
VERTEX
  5
57B
  8
0
 10
146.8273614520057
 20
105.1652488794534
 30
0.0
  0
VERTEX
  5
57C
  8
0
 10
146.5886337028527
 20
105.1732631011915
 30
0.0
  0
VERTEX
  5
57D
  8
0
 10
146.4012931373786
 20
105.1681838780015
 30
0.0
  0
VERTEX
  5
57E
  8
0
 10
146.2150336612522
 20
105.1527630537104
 30
0.0
  0
VERTEX
  5
57F
  8
0
 10
146.030317593683
 20
105.1267258962366
 30
0.0
  0
SEQEND
  5
7AB
  8
0
  0
POLYLINE
  5
DB
  8
0
 66
     1
 10
0.0
 20
0.0
 30
0.0
 70
     1
  0
VERTEX
  5
580
  8
0
 10
196.9646745563698
 20
58.02021153516063
 30
0.0
 42
0.7814663962464956
  0
VERTEX
  5
581
  8
0
 10
198.9566973987578
 20
59.40466616428242
 30
0.0
 42
-0.0357442977813981
  0
VERTEX
  5
582
  8
0
 10
196.9918433630566
 20
65.94644534245495
 30
0.0
 42
0.3510591646268036
  0
VERTEX
  5
583
  8
0
 10
195.7720599958078
 20
66.92326310119157
 30
0.0
  0
VERTEX
  5
584
  8
0
 10
191.628137346203
 20
66.92326310119157
 30
0.0
 42
0.3510591646268095
  0
VERTEX
  5
585
  8
0
 10
190.4083539789515
 20
65.94644534245563
 30
0.0
 42
-0.0357442977814017
  0
VERTEX
  5
586
  8
0
 10
188.4434999432515
 20
59.40466616425391
 30
0.0
 42
0.7814663962281234
  0
VERTEX
  5
587
  8
0
 10
190.4355227856396
 20
58.0202115351596
 30
0.0
  0
VERTEX
  5
588
  8
0
 10
193.2059477845618
 20
60.4466958662033
 30
0.0
 42
-0.3760106010509145
  0
VERTEX
  5
589
  8
0
 10
194.1942495574489
 20
60.44669586620327
 30
0.0
  0
SEQEND
  5
7AC
  8
0
  0
POLYLINE
  5
DC
  8
0
 66
     1
 10
0.0
 20
0.0
 30
0.0
 70
     1
  0
VERTEX
  5
58A
  8
0
 10
192.4500986710053
 20
69.9682631011915
 30
0.0
 42
0.4142135623730894
  0
VERTEX
  5
58B
  8
0
 10
193.7000986710054
 20
68.71826310119158
 30
0.0
 42
0.414213562373095
  0
VERTEX
  5
58C
  8
0
 10
194.9500986710053
 20
69.96826310119158
 30
0.0
 42
0.414213562373095
  0
VERTEX
  5
58D
  8
0
 10
193.7000986710053
 20
71.21826310119158
 30
0.0
 42
0.4142135623730934
  0
SEQEND
  5
7AD
  8
0
  0
POLYLINE
  5
DD
  8
0
 66
     1
 10
0.0
 20
0.0
 30
0.0
 70
     1
  0
VERTEX
  5
58E
  8
0
 10
193.7000986710053
 20
71.71826310119158
 30
0.0
 42
0.414213562373095
  0
VERTEX
  5
58F
  8
0
 10
194.9500986710053
 20
72.96826310119158
 30
0.0
 42
0.4142135623730918
  0
VERTEX
  5
590
  8
0
 10
193.7000986710052
 20
74.21826310119161
 30
0.0
 42
0.4142135623730859
  0
VERTEX
  5
591
  8
0
 10
192.4500986710053
 20
72.9682631011915
 30
0.0
 42
0.414213562373095
  0
SEQEND
  5
7AE
  8
0
  0
POLYLINE
  5
DE
  8
0
 66
     1
 10
0.0
 20
0.0
 30
0.0
 70
     1
  0
VERTEX
  5
592
  8
0
 10
193.7000986710053
 20
74.71826310119161
 30
0.0
 42
0.414213562373095
  0
VERTEX
  5
593
  8
0
 10
194.9500986710053
 20
75.96826310119161
 30
0.0
 42
0.4142135623730918
  0
VERTEX
  5
594
  8
0
 10
193.7000986710052
 20
77.21826310119158
 30
0.0
 42
0.414213562373086
  0
VERTEX
  5
595
  8
0
 10
192.4500986710053
 20
75.96826310119152
 30
0.0
 42
0.414213562373095
  0
SEQEND
  5
7AF
  8
0
  0
POLYLINE
  5
DF
  8
0
 66
     1
 10
0.0
 20
0.0
 30
0.0
 70
     1
  0
VERTEX
  5
596
  8
0
 10
193.7000986710053
 20
77.71826310119161
 30
0.0
 42
0.414213562373095
  0
VERTEX
  5
597
  8
0
 10
194.9500986710053
 20
78.96826310119161
 30
0.0
 42
0.414213562373095
  0
VERTEX
  5
598
  8
0
 10
193.7000986710053
 20
80.21826310119161
 30
0.0
 42
0.414213562373095
  0
VERTEX
  5
599
  8
0
 10
192.4500986710053
 20
78.96826310119161
 30
0.0
 42
0.414213562373095
  0
SEQEND
  5
7B0
  8
0
  0
POLYLINE
  5
E0
  8
0
 66
     1
 10
0.0
 20
0.0
 30
0.0
 70
     1
  0
VERTEX
  5
59A
  8
0
 10
193.7000986710053
 20
80.71826310119161
 30
0.0
 42
0.414213562373095
  0
VERTEX
  5
59B
  8
0
 10
194.9500986710053
 20
81.96826310119161
 30
0.0
 42
0.4142135623730918
  0
VERTEX
  5
59C
  8
0
 10
193.7000986710052
 20
83.21826310119155
 30
0.0
 42
0.414213562373086
  0
VERTEX
  5
59D
  8
0
 10
192.4500986710053
 20
81.9682631011915
 30
0.0
 42
0.414213562373095
  0
SEQEND
  5
7B1
  8
0
  0
POLYLINE
  5
E1
  8
0
 66
     1
 10
0.0
 20
0.0
 30
0.0
 70
     1
  0
VERTEX
  5
59E
  8
0
 10
193.7000986710053
 20
83.71826310119155
 30
0.0
 42
0.414213562373095
  0
VERTEX
  5
59F
  8
0
 10
194.9500986710053
 20
84.96826310119155
 30
0.0
 42
0.414213562373095
  0
VERTEX
  5
5A0
  8
0
 10
193.7000986710053
 20
86.21826310119155
 30
0.0
 42
0.414213562373095
  0
VERTEX
  5
5A1
  8
0
 10
192.4500986710053
 20
84.96826310119155
 30
0.0
 42
0.414213562373095
  0
SEQEND
  5
7B2
  8
0
  0
POLYLINE
  5
E2
  8
0
 66
     1
 10
0.0
 20
0.0
 30
0.0
 70
     1
  0
VERTEX
  5
5A2
  8
0
 10
193.7000986710053
 20
86.71826310119155
 30
0.0
 42
0.414213562373095
  0
VERTEX
  5
5A3
  8
0
 10
194.9500986710053
 20
87.96826310119155
 30
0.0
 42
0.414213562373095
  0
VERTEX
  5
5A4
  8
0
 10
193.7000986710053
 20
89.21826310119155
 30
0.0
 42
0.414213562373095
  0
VERTEX
  5
5A5
  8
0
 10
192.4500986710053
 20
87.96826310119155
 30
0.0
 42
0.414213562373095
  0
SEQEND
  5
7B3
  8
0
  0
POLYLINE
  5
E3
  8
0
 66
     1
 10
0.0
 20
0.0
 30
0.0
 70
     1
  0
VERTEX
  5
5A6
  8
0
 10
195.8524441702075
 20
91.01493931399159
 30
0.0
 42
0.5687610888172009
  0
VERTEX
  5
5A7
  8
0
 10
196.9507766912481
 20
92.86173548797763
 30
0.0
  0
VERTEX
  5
5A8
  8
0
 10
194.8435267020684
 20
97.14905203315709
 30
0.0
 42
0.6515085452278323
  0
VERTEX
  5
5A9
  8
0
 10
192.556670639944
 20
97.14905203315624
 30
0.0
  0
VERTEX
  5
5AA
  8
0
 10
190.4494206507642
 20
92.86173548797643
 30
0.0
 42
0.5687610888172258
  0
VERTEX
  5
5AB
  8
0
 10
191.5477531718034
 20
91.01493931399159
 30
0.0
  0
SEQEND
  5
7B4
  8
0
  0
POLYLINE
  5
E4
  8
0
 66
     1
 10
0.0
 20
0.0
 30
0.0
 70
     1
  0
VERTEX
  5
5AC
  8
0
 10
180.9590722220329
 20
105.0897976734986
 30
0.0
  0
VERTEX
  5
5AD
  8
0
 10
185.2582635293936
 20
110.260272943391
 30
0.0
 42
-0.4390861714046081
  0
VERTEX
  5
5AE
  8
0
 10
186.349281038908
 20
110.0890711958646
 30
0.0
  0
VERTEX
  5
5AF
  8
0
 10
189.7941476957944
 20
104.9178755059674
 30
0.0
 42
0.2508573051010082
  0
VERTEX
  5
5B0
  8
0
 10
192.4989379567052
 20
103.4697105828915
 30
0.0
  0
VERTEX
  5
5B1
  8
0
 10
194.9012593853056
 20
103.4697105828915
 30
0.0
 42
0.250857305101
  0
VERTEX
  5
5B2
  8
0
 10
197.6060496462162
 20
104.9178755059674
 30
0.0
  0
VERTEX
  5
5B3
  8
0
 10
201.0509163031028
 20
110.0890711958648
 30
0.0
 42
-0.4391050107979115
  0
VERTEX
  5
5B4
  8
0
 10
202.141933812617
 20
110.2602729433909
 30
0.0
  0
VERTEX
  5
5B5
  8
0
 10
206.4396492364617
 20
105.0916680555672
 30
0.0
  0
VERTEX
  5
5B6
  8
0
 10
206.2582247494869
 20
105.127453317418
 30
0.0
  0
VERTEX
  5
5B7
  8
0
 10
206.0740886015055
 20
105.1529420547989
 30
0.0
  0
VERTEX
  5
5B8
  8
0
 10
205.8878451296381
 20
105.16819255397
 30
0.0
  0
VERTEX
  5
5B9
  8
0
 10
205.7000986710053
 20
105.1732631011915
 30
0.0
  0
VERTEX
  5
5BA
  8
0
 10
205.4612478542165
 20
105.1652412796345
 30
0.0
  0
VERTEX
  5
5BB
  8
0
 10
205.2267067780139
 20
105.1415205025023
 30
0.0
  0
VERTEX
  5
5BC
  8
0
 10
204.9969977363102
 20
105.1026178011037
 30
0.0
  0
VERTEX
  5
5BD
  8
0
 10
204.7726430230181
 20
105.0490502067471
 30
0.0
  0
VERTEX
  5
5BE
  8
0
 10
204.5541649320504
 20
104.9813347507411
 30
0.0
  0
VERTEX
  5
5BF
  8
0
 10
204.3420857573197
 20
104.8999884643942
 30
0.0
  0
VERTEX
  5
5C0
  8
0
 10
204.1369277927387
 20
104.8055283790149
 30
0.0
  0
VERTEX
  5
5C1
  8
0
 10
203.9392133322202
 20
104.6984715259119
 30
0.0
  0
VERTEX
  5
5C2
  8
0
 10
203.7494646696768
 20
104.5793349363936
 30
0.0
  0
VERTEX
  5
5C3
  8
0
 10
203.5682040990212
 20
104.4486356417686
 30
0.0
  0
VERTEX
  5
5C4
  8
0
 10
203.3959539141662
 20
104.3068906733454
 30
0.0
  0
VERTEX
  5
5C5
  8
0
 10
203.2332364090244
 20
104.1546170624327
 30
0.0
  0
VERTEX
  5
5C6
  8
0
 10
203.0805738775086
 20
103.9923318403389
 30
0.0
  0
VERTEX
  5
5C7
  8
0
 10
202.9384886135313
 20
103.8205520383725
 30
0.0
  0
VERTEX
  5
5C8
  8
0
 10
202.8075029110054
 20
103.6397946878422
 30
0.0
  0
VERTEX
  5
5C9
  8
0
 10
202.6881390638436
 20
103.4505768200565
 30
0.0
  0
VERTEX
  5
5CA
  8
0
 10
202.670600153113
 20
103.5615378120896
 30
0.0
  0
VERTEX
  5
5CB
  8
0
 10
202.6433503254251
 20
103.6650534432188
 30
0.0
  0
VERTEX
  5
5CC
  8
0
 10
202.6070629314981
 20
103.7611238228217
 30
0.0
  0
VERTEX
  5
5CD
  8
0
 10
202.5624113220499
 20
103.8497490602756
 30
0.0
  0
VERTEX
  5
5CE
  8
0
 10
202.5100688477985
 20
103.9309292649582
 30
0.0
  0
VERTEX
  5
5CF
  8
0
 10
202.4507088594619
 20
104.0046645462469
 30
0.0
  0
VERTEX
  5
5D0
  8
0
 10
202.3850047077582
 20
104.0709550135194
 30
0.0
  0
VERTEX
  5
5D1
  8
0
 10
202.3136297434054
 20
104.1298007761531
 30
0.0
  0
VERTEX
  5
5D2
  8
0
 10
202.2372573171214
 20
104.1812019435255
 30
0.0
  0
VERTEX
  5
5D3
  8
0
 10
202.1565607796242
 20
104.2251586250142
 30
0.0
  0
VERTEX
  5
5D4
  8
0
 10
202.0722134816319
 20
104.2616709299967
 30
0.0
  0
VERTEX
  5
5D5
  8
0
 10
201.9848887738625
 20
104.2907389678504
 30
0.0
  0
VERTEX
  5
5D6
  8
0
 10
201.8952600070339
 20
104.3123628479531
 30
0.0
  0
VERTEX
  5
5D7
  8
0
 10
201.8040005318642
 20
104.3265426796821
 30
0.0
  0
VERTEX
  5
5D8
  8
0
 10
201.6192828593736
 20
104.3325706355293
 30
0.0
  0
VERTEX
  5
5D9
  8
0
 10
201.5271713634886
 20
104.3244189784026
 30
0.0
  0
VERTEX
  5
5DA
  8
0
 10
201.4361225621345
 20
104.3088237104123
 30
0.0
  0
VERTEX
  5
5DB
  8
0
 10
201.3468098060293
 20
104.285784940936
 30
0.0
  0
VERTEX
  5
5DC
  8
0
 10
201.259906445891
 20
104.2553027793513
 30
0.0
  0
VERTEX
  5
5DD
  8
0
 10
201.1760858324376
 20
104.2173773350356
 30
0.0
  0
VERTEX
  5
5DE
  8
0
 10
201.0960213163872
 20
104.1720087173664
 30
0.0
  0
VERTEX
  5
5DF
  8
0
 10
201.0203862484577
 20
104.1191970357213
 30
0.0
  0
VERTEX
  5
5E0
  8
0
 10
200.9498539793672
 20
104.0589423994779
 30
0.0
  0
VERTEX
  5
5E1
  8
0
 10
200.8850978598336
 20
103.9912449180136
 30
0.0
  0
VERTEX
  5
5E2
  8
0
 10
200.8267912405749
 20
103.9161047007059
 30
0.0
  0
VERTEX
  5
5E3
  8
0
 10
200.7756074723092
 20
103.8335218569325
 30
0.0
  0
VERTEX
  5
5E4
  8
0
 10
200.7322199057545
 20
103.7434964960707
 30
0.0
  0
VERTEX
  5
5E5
  8
0
 10
200.6973018916287
 20
103.6460287274982
 30
0.0
  0
VERTEX
  5
5E6
  8
0
 10
200.6715267806499
 20
103.5411186605925
 30
0.0
  0
VERTEX
  5
5E7
  8
0
 10
200.6555679235361
 20
103.4287664047311
 30
0.0
  0
VERTEX
  5
5E8
  8
0
 10
200.6500986710053
 20
103.3089720692915
 30
0.0
  0
VERTEX
  5
5E9
  8
0
 10
200.6500986710053
 20
99.30897206929157
 30
0.0
 42
1.0
  0
VERTEX
  5
5EA
  8
0
 10
202.7000986710053
 20
99.30897206929146
 30
0.0
  0
VERTEX
  5
5EB
  8
0
 10
202.6970319027691
 20
99.87985047781112
 30
0.0
  0
VERTEX
  5
5EC
  8
0
 10
202.8179038900919
 20
99.69062067802054
 30
0.0
  0
VERTEX
  5
5ED
  8
0
 10
202.9502559684427
 20
99.51023123037592
 30
0.0
  0
VERTEX
  5
5EE
  8
0
 10
203.0935372521921
 20
99.33914686195321
 30
0.0
  0
VERTEX
  5
5EF
  8
0
 10
203.2471968557113
 20
99.17783229982828
 30
0.0
  0
VERTEX
  5
5F0
  8
0
 10
203.4106838933712
 20
99.02675227107707
 30
0.0
  0
VERTEX
  5
5F1
  8
0
 10
203.5834474795427
 20
98.88637150277549
 30
0.0
  0
VERTEX
  5
5F2
  8
0
 10
203.7649367285968
 20
98.75715472199947
 30
0.0
  0
VERTEX
  5
5F3
  8
0
 10
203.9546007549043
 20
98.63956665582492
 30
0.0
  0
VERTEX
  5
5F4
  8
0
 10
204.1518886728363
 20
98.53407203132778
 30
0.0
  0
VERTEX
  5
5F5
  8
0
 10
204.3562495967638
 20
98.44113557558391
 30
0.0
  0
VERTEX
  5
5F6
  8
0
 10
204.5671326410576
 20
98.36122201566928
 30
0.0
  0
VERTEX
  5
5F7
  8
0
 10
204.7839869200888
 20
98.29479607865977
 30
0.0
  0
VERTEX
  5
5F8
  8
0
 10
205.0062615482281
 20
98.24232249163131
 30
0.0
  0
VERTEX
  5
5F9
  8
0
 10
205.2334056398467
 20
98.20426598165986
 30
0.0
  0
VERTEX
  5
5FA
  8
0
 10
205.4648683093154
 20
98.18109127582129
 30
0.0
  0
VERTEX
  5
5FB
  8
0
 10
205.7000986710053
 20
98.17326310119151
 30
0.0
  0
VERTEX
  5
5FC
  8
0
 10
205.9967702347172
 20
98.18566992455784
 30
0.0
  0
VERTEX
  5
5FD
  8
0
 10
206.2864893257159
 20
98.2222636725178
 30
0.0
  0
VERTEX
  5
5FE
  8
0
 10
206.5681721984151
 20
98.28210426186273
 30
0.0
  0
VERTEX
  5
5FF
  8
0
 10
206.8407351072287
 20
98.36425160938401
 30
0.0
  0
VERTEX
  5
600
  8
0
 10
207.1030943065705
 20
98.46776563187302
 30
0.0
  0
VERTEX
  5
601
  8
0
 10
207.3541660508544
 20
98.59170624612112
 30
0.0
  0
VERTEX
  5
602
  8
0
 10
207.5928665944941
 20
98.73513336891966
 30
0.0
  0
VERTEX
  5
603
  8
0
 10
207.8181121919034
 20
98.89710691706003
 30
0.0
  0
VERTEX
  5
604
  8
0
 10
207.427632657327
 20
98.2635303661296
 30
0.0
  0
VERTEX
  5
605
  8
0
 10
207.0492894157294
 20
97.62486740343995
 30
0.0
  0
VERTEX
  5
606
  8
0
 10
206.6830819530442
 20
96.98127879556708
 30
0.0
  0
VERTEX
  5
607
  8
0
 10
206.329009755205
 20
96.33292530908702
 30
0.0
  0
VERTEX
  5
608
  8
0
 10
205.9870723081453
 20
95.6799677105758
 30
0.0
  0
VERTEX
  5
609
  8
0
 10
205.6572690977989
 20
95.02256676660943
 30
0.0
  0
VERTEX
  5
60A
  8
0
 10
205.3395996100992
 20
94.36088324376391
 30
0.0
  0
VERTEX
  5
60B
  8
0
 10
205.0340633309799
 20
93.6950779086153
 30
0.0
  0
VERTEX
  5
60C
  8
0
 10
204.7406597463745
 20
93.0253115277396
 30
0.0
  0
VERTEX
  5
60D
  8
0
 10
204.4593883422167
 20
92.35174486771282
 30
0.0
  0
VERTEX
  5
60E
  8
0
 10
204.19024860444
 20
91.67453869511101
 30
0.0
  0
VERTEX
  5
60F
  8
0
 10
203.933240018978
 20
90.99385377651015
 30
0.0
  0
VERTEX
  5
610
  8
0
 10
203.6883620717643
 20
90.30985087848629
 30
0.0
  0
VERTEX
  5
611
  8
0
 10
203.4556142487326
 20
89.62269076761544
 30
0.0
  0
VERTEX
  5
612
  8
0
 10
203.2349960358164
 20
88.93253421047363
 30
0.0
  0
VERTEX
  5
613
  8
0
 10
203.0265069189492
 20
88.23954197363688
 30
0.0
  0
VERTEX
  5
614
  8
0
 10
202.8301463840647
 20
87.5438748236812
 30
0.0
  0
VERTEX
  5
615
  8
0
 10
202.6459139170965
 20
86.84569352718259
 30
0.0
  0
VERTEX
  5
616
  8
0
 10
202.4738090039782
 20
86.1451588507171
 30
0.0
  0
VERTEX
  5
617
  8
0
 10
202.3138311306433
 20
85.44243156086075
 30
0.0
  0
VERTEX
  5
618
  8
0
 10
202.1659797830255
 20
84.73767242418955
 30
0.0
  0
VERTEX
  5
619
  8
0
 10
202.0302544470583
 20
84.03104220727951
 30
0.0
  0
VERTEX
  5
61A
  8
0
 10
201.9066546086754
 20
83.32270167670669
 30
0.0
  0
VERTEX
  5
61B
  8
0
 10
201.7951797538102
 20
82.61281159904706
 30
0.0
  0
VERTEX
  5
61C
  8
0
 10
201.6958293683965
 20
81.90153274087669
 30
0.0
  0
VERTEX
  5
61D
  8
0
 10
201.6086029383678
 20
81.18902586877154
 30
0.0
  0
VERTEX
  5
61E
  8
0
 10
201.5334999496577
 20
80.47545174930767
 30
0.0
  0
VERTEX
  5
61F
  8
0
 10
201.4705198881998
 20
79.7609711490611
 30
0.0
  0
VERTEX
  5
620
  8
0
 10
201.4196622399276
 20
79.04574483460786
 30
0.0
  0
VERTEX
  5
621
  8
0
 10
201.3809264907748
 20
78.32993357252394
 30
0.0
  0
VERTEX
  5
622
  8
0
 10
201.354312126675
 20
77.61369812938538
 30
0.0
  0
VERTEX
  5
623
  8
0
 10
201.3398186335617
 20
76.89719927176819
 30
0.0
  0
VERTEX
  5
624
  8
0
 10
201.3374454973686
 20
76.18059776624838
 30
0.0
  0
VERTEX
  5
625
  8
0
 10
201.3471922040292
 20
75.464054379402
 30
0.0
  0
VERTEX
  5
626
  8
0
 10
201.3690582394771
 20
74.74772987780506
 30
0.0
  0
VERTEX
  5
627
  8
0
 10
201.403043089646
 20
74.03178502803357
 30
0.0
  0
VERTEX
  5
628
  8
0
 10
201.4491462404694
 20
73.31638059666355
 30
0.0
  0
VERTEX
  5
629
  8
0
 10
201.5073671778808
 20
72.60167735027102
 30
0.0
  0
VERTEX
  5
62A
  8
0
 10
201.577705387814
 20
71.88783605543202
 30
0.0
  0
VERTEX
  5
62B
  8
0
 10
201.6601603562025
 20
71.17501747872255
 30
0.0
  0
VERTEX
  5
62C
  8
0
 10
201.7547315689798
 20
70.46338238671865
 30
0.0
  0
VERTEX
  5
62D
  8
0
 10
201.8614185120796
 20
69.7530915459963
 30
0.0
  0
VERTEX
  5
62E
  8
0
 10
201.9802206714355
 20
69.04430572313154
 30
0.0
  0
VERTEX
  5
62F
  8
0
 10
202.111137532981
 20
68.33718568470042
 30
0.0
  0
VERTEX
  5
630
  8
0
 10
202.2541685826498
 20
67.63189219727893
 30
0.0
  0
VERTEX
  5
631
  8
0
 10
202.4093133063753
 20
66.92858602744309
 30
0.0
  0
VERTEX
  5
632
  8
0
 10
202.5765711900913
 20
66.22742794176894
 30
0.0
  0
VERTEX
  5
633
  8
0
 10
202.7559417197313
 20
65.52857870683248
 30
0.0
  0
VERTEX
  5
634
  8
0
 10
202.947424381229
 20
64.83219908920974
 30
0.0
  0
VERTEX
  5
635
  8
0
 10
203.1510186605178
 20
64.13844985547674
 30
0.0
  0
VERTEX
  5
636
  8
0
 10
203.3667240435314
 20
63.44749177220947
 30
0.0
  0
VERTEX
  5
637
  8
0
 10
203.5945400162034
 20
62.759485605984
 30
0.0
  0
VERTEX
  5
638
  8
0
 10
203.8344660644674
 20
62.07459212337633
 30
0.0
  0
VERTEX
  5
639
  8
0
 10
204.086501674257
 20
61.39297209096247
 30
0.0
  0
VERTEX
  5
63A
  8
0
 10
204.3506463315057
 20
60.71478627531845
 30
0.0
  0
VERTEX
  5
63B
  8
0
 10
204.6268995221471
 20
60.04019544302028
 30
0.0
  0
VERTEX
  5
63C
  8
0
 10
204.9152607321149
 20
59.369360360644
 30
0.0
  0
VERTEX
  5
63D
  8
0
 10
205.2157294473427
 20
58.70244179476562
 30
0.0
  0
VERTEX
  5
63E
  8
0
 10
205.5283051537639
 20
58.03960051196115
 30
0.0
  0
VERTEX
  5
63F
  8
0
 10
205.8529873373123
 20
57.38099727880662
 30
0.0
  0
VERTEX
  5
640
  8
0
 10
206.1897754839213
 20
56.72679286187804
 30
0.0
  0
VERTEX
  5
641
  8
0
 10
206.5386690795247
 20
56.07714802775145
 30
0.0
  0
VERTEX
  5
642
  8
0
 10
206.899667610056
 20
55.43222354300286
 30
0.0
  0
VERTEX
  5
643
  8
0
 10
207.2727705614487
 20
54.79218017420828
 30
0.0
  0
VERTEX
  5
644
  8
0
 10
207.0934649115354
 20
54.87925696707672
 30
0.0
  0
VERTEX
  5
645
  8
0
 10
206.9084288296681
 20
54.95561323422642
 30
0.0
  0
VERTEX
  5
646
  8
0
 10
206.7180591980535
 20
55.02097474894595
 30
0.0
  0
VERTEX
  5
647
  8
0
 10
206.5227528988982
 20
55.07506728452391
 30
0.0
  0
VERTEX
  5
648
  8
0
 10
206.322906814409
 20
55.11761661424887
 30
0.0
  0
VERTEX
  5
649
  8
0
 10
206.1189178267927
 20
55.14834851140941
 30
0.0
  0
VERTEX
  5
64A
  8
0
 10
205.9111828182559
 20
55.1669887492941
 30
0.0
  0
VERTEX
  5
64B
  8
0
 10
205.7000986710055
 20
55.17326310119154
 30
0.0
 42
0.4142135623730963
  0
VERTEX
  5
64C
  8
0
 10
202.2000986710053
 20
51.67326310119154
 30
0.0
  0
VERTEX
  5
64D
  8
0
 10
202.2039327712567
 20
51.50918884738693
 30
0.0
  0
VERTEX
  5
64E
  8
0
 10
202.2153507586967
 20
51.34645706116944
 30
0.0
  0
VERTEX
  5
64F
  8
0
 10
202.2604325152548
 20
51.02590749691961
 30
0.0
  0
VERTEX
  5
650
  8
0
 10
202.3343321809057
 20
50.71338761928968
 30
0.0
  0
VERTEX
  5
651
  8
0
 10
202.4360379958753
 20
50.41067063912725
 30
0.0
  0
VERTEX
  5
652
  8
0
 10
202.5645382003897
 20
50.11952976727994
 30
0.0
  0
VERTEX
  5
653
  8
0
 10
202.7188210346749
 20
49.84173821459535
 30
0.0
  0
VERTEX
  5
654
  8
0
 10
202.8978747389569
 20
49.57906919192111
 30
0.0
  0
VERTEX
  5
655
  8
0
 10
203.1006875534617
 20
49.33329591010482
 30
0.0
  0
VERTEX
  5
656
  8
0
 10
198.4041694681661
 20
51.65023917165831
 30
0.0
 42
0.2191067921341517
  0
VERTEX
  5
657
  8
0
 10
188.9960278738414
 20
51.65023917166559
 30
0.0
  0
VERTEX
  5
658
  8
0
 10
184.3097060609699
 20
49.34090725941556
 30
0.0
  0
VERTEX
  5
659
  8
0
 10
184.5094107563766
 20
49.58579524796649
 30
0.0
  0
VERTEX
  5
65A
  8
0
 10
184.6860561497978
 20
49.84736876968059
 30
0.0
  0
VERTEX
  5
65B
  8
0
 10
184.8385425180617
 20
50.12395027107212
 30
0.0
  0
VERTEX
  5
65C
  8
0
 10
184.9657701379964
 20
50.41386219865538
 30
0.0
  0
VERTEX
  5
65D
  8
0
 10
185.06663928643
 20
50.71542699894466
 30
0.0
  0
VERTEX
  5
65E
  8
0
 10
185.1400502401906
 20
51.02696711845425
 30
0.0
  0
VERTEX
  5
65F
  8
0
 10
185.1661152305773
 20
51.18595368745238
 30
0.0
  0
VERTEX
  5
660
  8
0
 10
185.1849032761063
 20
51.34680500369845
 30
0.0
  0
VERTEX
  5
661
  8
0
 10
185.1962769113811
 20
51.50931137300674
 30
0.0
  0
VERTEX
  5
662
  8
0
 10
185.2000986710053
 20
51.67326310119154
 30
0.0
 42
0.4142135623730935
  0
VERTEX
  5
663
  8
0
 10
181.7000986710051
 20
55.17326310119154
 30
0.0
  0
VERTEX
  5
664
  8
0
 10
181.4885378009322
 20
55.16696597386854
 30
0.0
  0
VERTEX
  5
665
  8
0
 10
181.280376800272
 20
55.14828289175502
 30
0.0
  0
VERTEX
  5
666
  8
0
 10
181.0760496671334
 20
55.11752630463415
 30
0.0
  0
VERTEX
  5
667
  8
0
 10
180.8759903996251
 20
55.07500866228915
 30
0.0
  0
VERTEX
  5
668
  8
0
 10
180.680632995856
 20
55.02104241450319
 30
0.0
  0
VERTEX
  5
669
  8
0
 10
180.490411453935
 20
54.95594001105947
 30
0.0
  0
VERTEX
  5
66A
  8
0
 10
180.3057597719709
 20
54.88001390174117
 30
0.0
  0
VERTEX
  5
66B
  8
0
 10
180.1271119480726
 20
54.7935765363315
 30
0.0
  0
VERTEX
  5
66C
  8
0
 10
180.5002522792901
 20
55.43376943463053
 30
0.0
  0
VERTEX
  5
66D
  8
0
 10
180.8612849438085
 20
56.07883748991549
 30
0.0
  0
VERTEX
  5
66E
  8
0
 10
181.2102095450316
 20
56.72861997022365
 30
0.0
  0
VERTEX
  5
66F
  8
0
 10
181.5470256863633
 20
57.38295614359225
 30
0.0
  0
VERTEX
  5
670
  8
0
 10
181.8717329712075
 20
58.04168527805859
 30
0.0
  0
VERTEX
  5
671
  8
0
 10
182.184331002968
 20
58.70464664165992
 30
0.0
  0
VERTEX
  5
672
  8
0
 10
182.4848193850489
 20
59.37167950243351
 30
0.0
  0
VERTEX
  5
673
  8
0
 10
182.7731977208539
 20
60.04262312841661
 30
0.0
  0
VERTEX
  5
674
  8
0
 10
183.049465613787
 20
60.71731678764652
 30
0.0
  0
VERTEX
  5
675
  8
0
 10
183.313622667252
 20
61.39559974816049
 30
0.0
  0
VERTEX
  5
676
  8
0
 10
183.5656684846529
 20
62.07731127799578
 30
0.0
  0
VERTEX
  5
677
  8
0
 10
183.8056026693936
 20
62.76229064518965
 30
0.0
  0
VERTEX
  5
678
  8
0
 10
184.0334248248779
 20
63.45037711777939
 30
0.0
  0
VERTEX
  5
679
  8
0
 10
184.2491345545097
 20
64.14140996380225
 30
0.0
  0
VERTEX
  5
67A
  8
0
 10
184.452731461693
 20
64.83522845129549
 30
0.0
  0
VERTEX
  5
67B
  8
0
 10
184.6442151498316
 20
65.53167184829641
 30
0.0
  0
VERTEX
  5
67C
  8
0
 10
184.8235852223295
 20
66.23057942284225
 30
0.0
  0
VERTEX
  5
67D
  8
0
 10
184.9908412825904
 20
66.93179044297028
 30
0.0
  0
VERTEX
  5
67E
  8
0
 10
185.1459829340184
 20
67.63514417671774
 30
0.0
  0
VERTEX
  5
67F
  8
0
 10
185.2890097800172
 20
68.34047989212195
 30
0.0
  0
VERTEX
  5
680
  8
0
 10
185.4199214239909
 20
69.04763685722014
 30
0.0
  0
VERTEX
  5
681
  8
0
 10
185.5387174693433
 20
69.75645434004957
 30
0.0
  0
VERTEX
  5
682
  8
0
 10
185.6453975194782
 20
70.46677160864753
 30
0.0
  0
VERTEX
  5
683
  8
0
 10
185.7399611777997
 20
71.17842793105129
 30
0.0
  0
VERTEX
  5
684
  8
0
 10
185.8224080477115
 20
71.8912625752981
 30
0.0
  0
VERTEX
  5
685
  8
0
 10
185.8927377326176
 20
72.60511480942522
 30
0.0
  0
VERTEX
  5
686
  8
0
 10
185.9509498359219
 20
73.31982390146993
 30
0.0
  0
VERTEX
  5
687
  8
0
 10
185.9970439610282
 20
74.0352291194695
 30
0.0
  0
VERTEX
  5
688
  8
0
 10
186.0310197113405
 20
74.75116973146119
 30
0.0
  0
VERTEX
  5
689
  8
0
 10
186.0528766902626
 20
75.46748500548227
 30
0.0
  0
VERTEX
  5
68A
  8
0
 10
186.0626145011985
 20
76.18401420957
 30
0.0
  0
VERTEX
  5
68B
  8
0
 10
186.060232747552
 20
76.90059661176164
 30
0.0
  0
VERTEX
  5
68C
  8
0
 10
186.045731032727
 20
77.61707148009447
 30
0.0
  0
VERTEX
  5
68D
  8
0
 10
186.0191089601275
 20
78.33327808260576
 30
0.0
  0
VERTEX
  5
68E
  8
0
 10
185.9803661331573
 20
79.04905568733275
 30
0.0
  0
VERTEX
  5
68F
  8
0
 10
185.9295021552203
 20
79.76424356231274
 30
0.0
  0
VERTEX
  5
690
  8
0
 10
185.8665166297204
 20
80.47868097558299
 30
0.0
  0
VERTEX
  5
691
  8
0
 10
185.7914091600616
 20
81.19220719518074
 30
0.0
  0
VERTEX
  5
692
  8
0
 10
185.7041793496476
 20
81.90466148914328
 30
0.0
  0
VERTEX
  5
693
  8
0
 10
185.6048268018824
 20
82.61588312550786
 30
0.0
  0
VERTEX
  5
694
  8
0
 10
185.49335112017
 20
83.32571137231176
 30
0.0
  0
VERTEX
  5
695
  8
0
 10
185.369751907914
 20
84.03398549759225
 30
0.0
  0
VERTEX
  5
696
  8
0
 10
185.2340287685186
 20
84.74054476938659
 30
0.0
  0
VERTEX
  5
697
  8
0
 10
185.0861813053875
 20
85.44522845573204
 30
0.0
  0
VERTEX
  5
698
  8
0
 10
184.9262091219247
 20
86.14787582466587
 30
0.0
  0
VERTEX
  5
699
  8
0
 10
184.7541118215341
 20
86.84832614422535
 30
0.0
  0
VERTEX
  5
69A
  8
0
 10
184.5698890076195
 20
87.54641868244775
 30
0.0
  0
VERTEX
  5
69B
  8
0
 10
184.3735402835848
 20
88.24199270737034
 30
0.0
  0
VERTEX
  5
69C
  8
0
 10
184.1650652528341
 20
88.93488748703038
 30
0.0
  0
VERTEX
  5
69D
  8
0
 10
183.944463518771
 20
89.62494228946511
 30
0.0
  0
VERTEX
  5
69E
  8
0
 10
183.7117346847996
 20
90.31199638271184
 30
0.0
  0
VERTEX
  5
69F
  8
0
 10
183.4668783543236
 20
90.99588903480782
 30
0.0
  0
VERTEX
  5
6A0
  8
0
 10
183.2098941307471
 20
91.67645951379029
 30
0.0
  0
VERTEX
  5
6A1
  8
0
 10
182.9407816174739
 20
92.35354708769657
 30
0.0
  0
VERTEX
  5
6A2
  8
0
 10
182.6595404179079
 20
93.02699102456388
 30
0.0
  0
VERTEX
  5
6A3
  8
0
 10
182.3661701354531
 20
93.6966305924295
 30
0.0
  0
VERTEX
  5
6A4
  8
0
 10
182.0606703735132
 20
94.3623050593307
 30
0.0
  0
VERTEX
  5
6A5
  8
0
 10
181.7430407354923
 20
95.02385369330474
 30
0.0
  0
VERTEX
  5
6A6
  8
0
 10
181.4132808247941
 20
95.68111576238891
 30
0.0
  0
VERTEX
  5
6A7
  8
0
 10
181.0713902448226
 20
96.33393053462044
 30
0.0
  0
VERTEX
  5
6A8
  8
0
 10
180.7173685989816
 20
96.98213727803662
 30
0.0
  0
VERTEX
  5
6A9
  8
0
 10
180.3512154906751
 20
97.62557526067471
 30
0.0
  0
VERTEX
  5
6AA
  8
0
 10
179.9729305233071
 20
98.26408375057198
 30
0.0
  0
VERTEX
  5
6AB
  8
0
 10
179.5825133002812
 20
98.8975020157657
 30
0.0
  0
VERTEX
  5
6AC
  8
0
 10
179.8082881137492
 20
98.73517186859874
 30
0.0
  0
VERTEX
  5
6AD
  8
0
 10
180.0472916795611
 20
98.59154057405621
 30
0.0
  0
VERTEX
  5
6AE
  8
0
 10
180.2984701012408
 20
98.4675158890895
 30
0.0
  0
VERTEX
  5
6AF
  8
0
 10
180.5607694823127
 20
98.36400557064995
 30
0.0
  0
VERTEX
  5
6B0
  8
0
 10
180.8331359263009
 20
98.28191737568899
 30
0.0
  0
VERTEX
  5
6B1
  8
0
 10
181.1145155367296
 20
98.22215906115801
 30
0.0
  0
VERTEX
  5
6B2
  8
0
 10
181.4038544171228
 20
98.1856383840084
 30
0.0
  0
VERTEX
  5
6B3
  8
0
 10
181.700098671005
 20
98.17326310119151
 30
0.0
  0
VERTEX
  5
6B4
  8
0
 10
181.9374516541463
 20
98.18118474366327
 30
0.0
  0
VERTEX
  5
6B5
  8
0
 10
182.1705552290538
 20
98.2046133827163
 30
0.0
  0
VERTEX
  5
6B6
  8
0
 10
182.3988996571423
 20
98.24304458580724
 30
0.0
  0
VERTEX
  5
6B7
  8
0
 10
182.6219751998269
 20
98.29597392039265
 30
0.0
  0
VERTEX
  5
6B8
  8
0
 10
182.8392721185226
 20
98.36289695392917
 30
0.0
  0
VERTEX
  5
6B9
  8
0
 10
183.0502806746445
 20
98.44330925387337
 30
0.0
  0
VERTEX
  5
6BA
  8
0
 10
183.2544911296075
 20
98.53670638768187
 30
0.0
  0
VERTEX
  5
6BB
  8
0
 10
183.4513937448267
 20
98.64258392281127
 30
0.0
  0
VERTEX
  5
6BC
  8
0
 10
183.640478781717
 20
98.76043742671817
 30
0.0
  0
VERTEX
  5
6BD
  8
0
 10
183.8212365016936
 20
98.88976246685918
 30
0.0
  0
VERTEX
  5
6BE
  8
0
 10
183.9931571661713
 20
99.0300546106909
 30
0.0
  0
VERTEX
  5
6BF
  8
0
 10
184.1557310365653
 20
99.18080942566993
 30
0.0
  0
VERTEX
  5
6C0
  8
0
 10
184.3084483742906
 20
99.34152247925287
 30
0.0
  0
VERTEX
  5
6C1
  8
0
 10
184.4507994407621
 20
99.51168933889633
 30
0.0
  0
VERTEX
  5
6C2
  8
0
 10
184.5822744973949
 20
99.69080557205689
 30
0.0
  0
VERTEX
  5
6C3
  8
0
 10
184.702363805604
 20
99.87836674619118
 30
0.0
  0
VERTEX
  5
6C4
  8
0
 10
184.7000986710053
 20
99.3089720692914
 30
0.0
 42
0.9999999999999913
  0
VERTEX
  5
6C5
  8
0
 10
186.7500986710053
 20
99.30897206929157
 30
0.0
  0
VERTEX
  5
6C6
  8
0
 10
186.7500986710053
 20
103.3089720692915
 30
0.0
  0
VERTEX
  5
6C7
  8
0
 10
186.744617334963
 20
103.4288958838233
 30
0.0
  0
VERTEX
  5
6C8
  8
0
 10
186.7286236981381
 20
103.5413615392387
 30
0.0
  0
VERTEX
  5
6C9
  8
0
 10
186.7027933174834
 20
103.646369448245
 30
0.0
  0
VERTEX
  5
6CA
  8
0
 10
186.6678017499518
 20
103.7439200235495
 30
0.0
  0
VERTEX
  5
6CB
  8
0
 10
186.6243245524961
 20
103.8340136778594
 30
0.0
  0
VERTEX
  5
6CC
  8
0
 10
186.5730372820692
 20
103.916650823882
 30
0.0
  0
VERTEX
  5
6CD
  8
0
 10
186.5146154956238
 20
103.9918318743245
 30
0.0
  0
VERTEX
  5
6CE
  8
0
 10
186.4497347501129
 20
104.0595572418943
 30
0.0
  0
VERTEX
  5
6CF
  8
0
 10
186.3790706024893
 20
104.1198273392986
 30
0.0
  0
VERTEX
  5
6D0
  8
0
 10
186.3032986097057
 20
104.1726425792446
 30
0.0
  0
VERTEX
  5
6D1
  8
0
 10
186.2230943287152
 20
104.2180033744397
 30
0.0
  0
VERTEX
  5
6D2
  8
0
 10
186.1391333164705
 20
104.2559101375911
 30
0.0
  0
VERTEX
  5
6D3
  8
0
 10
186.0520911299245
 20
104.286363281406
 30
0.0
  0
VERTEX
  5
6D4
  8
0
 10
185.9626433260299
 20
104.3093632185918
 30
0.0
  0
VERTEX
  5
6D5
  8
0
 10
185.7792330940068
 20
104.333005123905
 30
0.0
  0
VERTEX
  5
6D6
  8
0
 10
185.5943070760239
 20
104.3268391551887
 30
0.0
  0
VERTEX
  5
6D7
  8
0
 10
185.5029645396797
 20
104.3125792498378
 30
0.0
  0
VERTEX
  5
6D8
  8
0
 10
185.413269727704
 20
104.2908686141012
 30
0.0
  0
VERTEX
  5
6D9
  8
0
 10
185.3258981970498
 20
104.2617076606864
 30
0.0
  0
VERTEX
  5
6DA
  8
0
 10
185.2415255046698
 20
104.2250968023006
 30
0.0
  0
VERTEX
  5
6DB
  8
0
 10
185.1608272075169
 20
104.181036451651
 30
0.0
  0
VERTEX
  5
6DC
  8
0
 10
185.084478862544
 20
104.129527021445
 30
0.0
  0
VERTEX
  5
6DD
  8
0
 10
185.013156026704
 20
104.0705689243898
 30
0.0
  0
VERTEX
  5
6DE
  8
0
 10
184.9475342569496
 20
104.0041625731926
 30
0.0
  0
VERTEX
  5
6DF
  8
0
 10
184.8882891102337
 20
103.9303083805607
 30
0.0
  0
VERTEX
  5
6E0
  8
0
 10
184.8360961435091
 20
103.8490067592015
 30
0.0
  0
VERTEX
  5
6E1
  8
0
 10
184.7916309137288
 20
103.7602581218221
 30
0.0
  0
VERTEX
  5
6E2
  8
0
 10
184.7555689778455
 20
103.6640628811299
 30
0.0
  0
VERTEX
  5
6E3
  8
0
 10
184.728585892812
 20
103.5604214498321
 30
0.0
  0
VERTEX
  5
6E4
  8
0
 10
184.7113572155814
 20
103.4493342406359
 30
0.0
  0
VERTEX
  5
6E5
  8
0
 10
184.5919169901724
 20
103.6388893816947
 30
0.0
  0
VERTEX
  5
6E6
  8
0
 10
184.4608763944785
 20
103.8199261437532
 30
0.0
  0
VERTEX
  5
6E7
  8
0
 10
184.3187565525999
 20
103.991932476961
 30
0.0
  0
VERTEX
  5
6E8
  8
0
 10
184.1660785886369
 20
104.1543963314672
 30
0.0
  0
VERTEX
  5
6E9
  8
0
 10
184.0033636266899
 20
104.3068056574213
 30
0.0
  0
VERTEX
  5
6EA
  8
0
 10
183.831132790859
 20
104.4486484049726
 30
0.0
  0
VERTEX
  5
6EB
  8
0
 10
183.6499072052447
 20
104.5794125242705
 30
0.0
  0
VERTEX
  5
6EC
  8
0
 10
183.4602079939471
 20
104.6985859654644
 30
0.0
  0
VERTEX
  5
6ED
  8
0
 10
183.2625562810666
 20
104.8056566787035
 30
0.0
  0
VERTEX
  5
6EE
  8
0
 10
183.0574731907035
 20
104.9001126141373
 30
0.0
  0
VERTEX
  5
6EF
  8
0
 10
182.845479846958
 20
104.981441721915
 30
0.0
  0
VERTEX
  5
6F0
  8
0
 10
182.6270973739304
 20
105.0491319521862
 30
0.0
  0
VERTEX
  5
6F1
  8
0
 10
182.402846895721
 20
105.1026712551001
 30
0.0
  0
VERTEX
  5
6F2
  8
0
 10
182.1732495364303
 20
105.141547580806
 30
0.0
  0
VERTEX
  5
6F3
  8
0
 10
181.9388264201583
 20
105.1652488794534
 30
0.0
  0
VERTEX
  5
6F4
  8
0
 10
181.7000986710053
 20
105.1732631011915
 30
0.0
  0
VERTEX
  5
6F5
  8
0
 10
181.5127581055311
 20
105.1681838780015
 30
0.0
  0
VERTEX
  5
6F6
  8
0
 10
181.3264986294047
 20
105.1527630537104
 30
0.0
  0
VERTEX
  5
6F7
  8
0
 10
181.1417825618356
 20
105.1267258962366
 30
0.0
  0
SEQEND
  5
7B5
  8
0
  0
POLYLINE
  5
E5
  8
0
 66
     1
 10
0.0
 20
0.0
 30
0.0
 70
     1
  0
VERTEX
  5
6F8
  8
0
 10
54.32407791801767
 20
154.4936165882214
 30
0.0
 42
0.3251169026083013
  0
VERTEX
  5
6F9
  8
0
 10
55.6446189944184
 20
147.8609477368269
 30
0.0
 42
-0.0599874154204256
  0
VERTEX
  5
6FA
  8
0
 10
62.35803249789925
 20
139.9768302208951
 30
0.0
 42
0.9999999999999838
  0
VERTEX
  5
6FB
  8
0
 10
64.44156770656278
 20
141.3584528300699
 30
0.0
 42
0.0599874154202842
  0
VERTEX
  5
6FC
  8
0
 10
57.34064059700156
 20
149.6976596694895
 30
0.0
 42
-0.3251169026083042
  0
VERTEX
  5
6FD
  8
0
 10
56.59424781466928
 20
153.4465594550692
 30
0.0
 42
-0.292608549755414
  0
VERTEX
  5
6FE
  8
0
 10
58.63740072172914
 20
154.754208035168
 30
0.0
 42
0.4142135623730971
  0
VERTEX
  5
6FF
  8
0
 10
59.88740072173149
 20
156.0042080351681
 30
0.0
 42
0.4142135623730999
  0
VERTEX
  5
700
  8
0
 10
58.63740072173142
 20
157.254208035168
 30
0.0
 42
0.2926085497554156
  0
SEQEND
  5
7B6
  8
0
  0
POLYLINE
  5
E6
  8
0
 66
     1
 10
0.0
 20
0.0
 30
0.0
 70
     1
  0
VERTEX
  5
701
  8
0
 10
60.90941901723149
 20
149.4642122885679
 30
0.0
 42
0.4142135623730849
  0
VERTEX
  5
702
  8
0
 10
62.15941901723149
 20
148.214212288568
 30
0.0
 42
0.4142135623730921
  0
VERTEX
  5
703
  8
0
 10
63.40941901723149
 20
149.464212288568
 30
0.0
 42
0.4142135623730931
  0
VERTEX
  5
704
  8
0
 10
62.15941901723149
 20
150.714212288568
 30
0.0
 42
0.1622770523438774
  0
VERTEX
  5
705
  8
0
 10
61.40943670419721
 20
150.4642299755337
 30
0.0
 42
0.1622681024946957
  0
VERTEX
  5
706
  8
0
 10
61.65941901723149
 20
151.214212288568
 30
0.0
 42
0.4142135623730971
  0
VERTEX
  5
707
  8
0
 10
60.40941901723149
 20
152.464212288568
 30
0.0
 42
0.4142135623730931
  0
VERTEX
  5
708
  8
0
 10
59.15941901723149
 20
151.214212288568
 30
0.0
 42
0.4142135623730939
  0
VERTEX
  5
709
  8
0
 10
60.40941901723149
 20
149.964212288568
 30
0.0
 42
0.1622770523438282
  0
VERTEX
  5
70A
  8
0
 10
61.15940133026579
 20
150.2141946016023
 30
0.0
 42
0.162268102494656
  0
SEQEND
  5
7B7
  8
0
  0
POLYLINE
  5
E7
  8
0
 66
     1
 10
0.0
 20
0.0
 30
0.0
 70
     1
  0
VERTEX
  5
70B
  8
0
 10
58.63740072173062
 20
159.254208035168
 30
0.0
 42
0.2926085497554143
  0
VERTEX
  5
70C
  8
0
 10
52.50794200062484
 20
155.3312622948047
 30
0.0
 42
0.3251169026091503
  0
VERTEX
  5
70D
  8
0
 10
54.28780171238508
 20
146.3915781906775
 30
0.0
 42
-0.0890054735489461
  0
VERTEX
  5
70E
  8
0
 10
63.09162744644683
 20
134.7542080351995
 30
0.0
  0
VERTEX
  5
70F
  8
0
 10
64.49485748541724
 20
134.7542080352055
 30
0.0
 42
-0.36838057220139
  0
VERTEX
  5
710
  8
0
 10
65.48225543372726
 20
135.595857479468
 30
0.0
 42
-0.4456393487980416
  0
VERTEX
  5
711
  8
0
 10
66.47663462432327
 20
134.4899612800195
 30
0.0
  0
VERTEX
  5
712
  8
0
 10
69.97181691069756
 20
134.5224816312381
 30
0.0
  0
VERTEX
  5
713
  8
0
 10
69.97663462434424
 20
143.7987850707683
 30
0.0
 42
-0.1722196306094659
  0
VERTEX
  5
714
  8
0
 10
75.46281662992179
 20
159.2542080351641
 30
0.0
  0
VERTEX
  5
715
  8
0
 10
70.7767354498449
 20
159.2542080351678
 30
0.0
 42
-0.8810240304738889
  0
VERTEX
  5
716
  8
0
 10
68.80847902183147
 20
159.504208035168
 30
0.0
  0
VERTEX
  5
717
  8
0
 10
65.30847902183152
 20
159.504208035168
 30
0.0
 42
-0.8810136929932972
  0
VERTEX
  5
718
  8
0
 10
63.34022259381799
 20
159.254208035168
 30
0.0
  0
SEQEND
  5
7B8
  8
0
  0
POLYLINE
  5
E8
  8
0
 66
     1
 10
0.0
 20
0.0
 30
0.0
 70
     1
  0
VERTEX
  5
719
  8
0
 10
101.305983685775
 20
154.4936165882214
 30
0.0
 42
-0.3251169026083013
  0
VERTEX
  5
71A
  8
0
 10
99.98544260937425
 20
147.8609477368269
 30
0.0
 42
0.0599874154204256
  0
VERTEX
  5
71B
  8
0
 10
93.27202910589338
 20
139.9768302208951
 30
0.0
 42
-0.9999999999999838
  0
VERTEX
  5
71C
  8
0
 10
91.18849389722986
 20
141.3584528300699
 30
0.0
 42
-0.0599874154202842
  0
VERTEX
  5
71D
  8
0
 10
98.28942100679109
 20
149.6976596694895
 30
0.0
 42
0.3251169026083042
  0
VERTEX
  5
71E
  8
0
 10
99.03581378912338
 20
153.4465594550692
 30
0.0
 42
0.292608549755414
  0
VERTEX
  5
71F
  8
0
 10
96.9926608820635
 20
154.754208035168
 30
0.0
 42
-0.4142135623730971
  0
VERTEX
  5
720
  8
0
 10
95.74266088206116
 20
156.0042080351681
 30
0.0
 42
-0.4142135623730999
  0
VERTEX
  5
721
  8
0
 10
96.99266088206123
 20
157.254208035168
 30
0.0
 42
-0.2926085497554156
  0
SEQEND
  5
7B9
  8
0
  0
POLYLINE
  5
E9
  8
0
 66
     1
 10
0.0
 20
0.0
 30
0.0
 70
     1
  0
VERTEX
  5
722
  8
0
 10
94.72064258656115
 20
149.4642122885679
 30
0.0
 42
-0.4142135623730849
  0
VERTEX
  5
723
  8
0
 10
93.47064258656113
 20
148.214212288568
 30
0.0
 42
-0.4142135623730921
  0
VERTEX
  5
724
  8
0
 10
92.22064258656114
 20
149.464212288568
 30
0.0
 42
-0.4142135623730931
  0
VERTEX
  5
725
  8
0
 10
93.47064258656114
 20
150.714212288568
 30
0.0
 42
-0.1622770523438774
  0
VERTEX
  5
726
  8
0
 10
94.22062489959542
 20
150.4642299755337
 30
0.0
 42
-0.1622681024946957
  0
VERTEX
  5
727
  8
0
 10
93.97064258656114
 20
151.214212288568
 30
0.0
 42
-0.4142135623730971
  0
VERTEX
  5
728
  8
0
 10
95.22064258656115
 20
152.464212288568
 30
0.0
 42
-0.4142135623730931
  0
VERTEX
  5
729
  8
0
 10
96.47064258656114
 20
151.214212288568
 30
0.0
 42
-0.4142135623730939
  0
VERTEX
  5
72A
  8
0
 10
95.22064258656115
 20
149.964212288568
 30
0.0
 42
-0.1622770523438282
  0
VERTEX
  5
72B
  8
0
 10
94.47066027352685
 20
150.2141946016023
 30
0.0
 42
-0.162268102494656
  0
SEQEND
  5
7BA
  8
0
  0
POLYLINE
  5
EA
  8
0
 66
     1
 10
0.0
 20
0.0
 30
0.0
 70
     1
  0
VERTEX
  5
72C
  8
0
 10
96.99266088206203
 20
159.254208035168
 30
0.0
 42
-0.2926085497554143
  0
VERTEX
  5
72D
  8
0
 10
103.1221196031678
 20
155.3312622948047
 30
0.0
 42
-0.3251169026091503
  0
VERTEX
  5
72E
  8
0
 10
101.3422598914076
 20
146.3915781906775
 30
0.0
 42
0.0890054735489461
  0
VERTEX
  5
72F
  8
0
 10
92.5384341573458
 20
134.7542080351995
 30
0.0
  0
VERTEX
  5
730
  8
0
 10
91.1352041183754
 20
134.7542080352055
 30
0.0
 42
0.36838057220139
  0
VERTEX
  5
731
  8
0
 10
90.14780617006537
 20
135.595857479468
 30
0.0
 42
0.4456393487980416
  0
VERTEX
  5
732
  8
0
 10
89.15342697946936
 20
134.4899612800195
 30
0.0
  0
VERTEX
  5
733
  8
0
 10
85.65824469309507
 20
134.5224816312381
 30
0.0
  0
VERTEX
  5
734
  8
0
 10
85.65342697944838
 20
143.7987850707683
 30
0.0
 42
0.1722196306094659
  0
VERTEX
  5
735
  8
0
 10
80.16724497387082
 20
159.2542080351641
 30
0.0
  0
VERTEX
  5
736
  8
0
 10
84.8533261539477
 20
159.2542080351678
 30
0.0
 42
0.8810240304738889
  0
VERTEX
  5
737
  8
0
 10
86.82158258196114
 20
159.504208035168
 30
0.0
  0
VERTEX
  5
738
  8
0
 10
90.32158258196111
 20
159.504208035168
 30
0.0
 42
0.8810136929932972
  0
VERTEX
  5
739
  8
0
 10
92.28983900997464
 20
159.254208035168
 30
0.0
  0
SEQEND
  5
7BB
  8
0
  0
ENDSEC
  0
EOF
