  0
SECTION
  2
HEADER
  9
$ACADVER
  1
AC1009
  9
$DWGCODEPAGE
  3
ansi_1252
  9
$INSBASE
 10
0.0
 20
0.0
 30
0.0
  9
$EXTMIN
 10
0.4058584766688926
 20
0.225278652174512
 30
0.0
  9
$EXTMAX
 10
183.0378130134631
 20
192.8572331889698
 30
0.0
  9
$LIMMIN
 10
0.0
 20
0.0
  9
$LIMMAX
 10
12.0
 20
9.0
  9
$ORTHOMODE
 70
     0
  9
$REGENMODE
 70
     1
  9
$FILLMODE
 70
     1
  9
$QTEXTMODE
 70
     0
  9
$MIRRTEXT
 70
     1
  9
$DRAGMODE
 70
     2
  9
$LTSCALE
 40
1.0
  9
$OSMODE
 70
    37
  9
$ATTMODE
 70
     1
  9
$TEXTSIZE
 40
0.2
  9
$TRACEWID
 40
0.05
  9
$TEXTSTYLE
  7
STANDARD
  9
$CLAYER
  8
0
  9
$CELTYPE
  6
BYLAYER
  9
$CECOLOR
 62
   256
  9
$DIMSCALE
 40
1.0
  9
$DIMASZ
 40
0.18
  9
$DIMEXO
 40
0.0625
  9
$DIMDLI
 40
0.38
  9
$DIMRND
 40
0.0
  9
$DIMDLE
 40
0.0
  9
$DIMEXE
 40
0.18
  9
$DIMTP
 40
0.0
  9
$DIMTM
 40
0.0
  9
$DIMTXT
 40
0.18
  9
$DIMCEN
 40
0.09
  9
$DIMTSZ
 40
0.0
  9
$DIMTOL
 70
     0
  9
$DIMLIM
 70
     0
  9
$DIMTIH
 70
     1
  9
$DIMTOH
 70
     1
  9
$DIMSE1
 70
     0
  9
$DIMSE2
 70
     0
  9
$DIMTAD
 70
     0
  9
$DIMZIN
 70
     0
  9
$DIMBLK
  1

  9
$DIMASO
 70
     1
  9
$DIMSHO
 70
     1
  9
$DIMPOST
  1

  9
$DIMAPOST
  1

  9
$DIMALT
 70
     0
  9
$DIMALTD
 70
     2
  9
$DIMALTF
 40
25.4
  9
$DIMLFAC
 40
1.0
  9
$DIMTOFL
 70
     0
  9
$DIMTVP
 40
0.0
  9
$DIMTIX
 70
     0
  9
$DIMSOXD
 70
     0
  9
$DIMSAH
 70
     0
  9
$DIMBLK1
  1

  9
$DIMBLK2
  1

  9
$DIMSTYLE
  2
STANDARD
  9
$DIMCLRD
 70
     0
  9
$DIMCLRE
 70
     0
  9
$DIMCLRT
 70
     0
  9
$DIMTFAC
 40
1.0
  9
$DIMGAP
 40
0.09
  9
$LUNITS
 70
     2
  9
$LUPREC
 70
     4
  9
$SKETCHINC
 40
0.1
  9
$FILLETRAD
 40
0.5
  9
$AUNITS
 70
     0
  9
$AUPREC
 70
     0
  9
$MENU
  1
.
  9
$ELEVATION
 40
0.0
  9
$PELEVATION
 40
0.0
  9
$THICKNESS
 40
0.0
  9
$LIMCHECK
 70
     0
  9
$CHAMFERA
 40
0.0
  9
$CHAMFERB
 40
0.0
  9
$SKPOLY
 70
     0
  9
$TDCREATE
 40
2454910.5
  9
$TDUPDATE
 40
2459265.89004838
  9
$TDINDWG
 40
0.0000000116
  9
$TDUSRTIMER
 40
0.0000000116
  9
$USRTIMER
 70
     1
  9
$ANGBASE
 50
0.0
  9
$ANGDIR
 70
     0
  9
$PDMODE
 70
     0
  9
$PDSIZE
 40
0.0
  9
$PLINEWID
 40
0.0
  9
$COORDS
 70
     1
  9
$SPLFRAME
 70
     0
  9
$SPLINETYPE
 70
     6
  9
$SPLINESEGS
 70
     8
  9
$ATTDIA
 70
     0
  9
$ATTREQ
 70
     1
  9
$HANDLING
 70
     1
  9
$HANDSEED
  5
25C
  9
$SURFTAB1
 70
     6
  9
$SURFTAB2
 70
     6
  9
$SURFTYPE
 70
     6
  9
$SURFU
 70
     6
  9
$SURFV
 70
     6
  9
$UCSNAME
  2

  9
$UCSORG
 10
0.0
 20
0.0
 30
0.0
  9
$UCSXDIR
 10
1.0
 20
0.0
 30
0.0
  9
$UCSYDIR
 10
0.0
 20
1.0
 30
0.0
  9
$PUCSNAME
  2

  9
$PUCSORG
 10
0.0
 20
0.0
 30
0.0
  9
$PUCSXDIR
 10
1.0
 20
0.0
 30
0.0
  9
$PUCSYDIR
 10
0.0
 20
1.0
 30
0.0
  9
$USERI1
 70
     0
  9
$USERI2
 70
     0
  9
$USERI3
 70
     0
  9
$USERI4
 70
     0
  9
$USERI5
 70
     0
  9
$USERR1
 40
0.0
  9
$USERR2
 40
0.0
  9
$USERR3
 40
0.0
  9
$USERR4
 40
0.0
  9
$USERR5
 40
0.0
  9
$WORLDVIEW
 70
     1
  9
$SHADEDGE
 70
     3
  9
$SHADEDIF
 70
    70
  9
$TILEMODE
 70
     1
  9
$MAXACTVP
 70
    64
  9
$PLIMCHECK
 70
     0
  9
$PEXTMIN
 10
1.000000000000000E+20
 20
1.000000000000000E+20
 30
1.000000000000000E+20
  9
$PEXTMAX
 10
-1.000000000000000E+20
 20
-1.000000000000000E+20
 30
-1.000000000000000E+20
  9
$PLIMMIN
 10
0.0
 20
0.0
  9
$PLIMMAX
 10
12.0
 20
9.0
  9
$UNITMODE
 70
     0
  9
$VISRETAIN
 70
     1
  9
$PLINEGEN
 70
     0
  9
$PSLTSCALE
 70
     1
  0
ENDSEC
  0
SECTION
  2
TABLES
  0
TABLE
  2
VPORT
 70
     1
  0
VPORT
  2
*ACTIVE
 70
     0
 10
0.0
 20
0.0
 11
1.0
 21
1.0
 12
10.42990654205607
 22
4.5
 13
0.0
 23
0.0
 14
0.5
 24
0.5
 15
0.5
 25
0.5
 16
0.0
 26
0.0
 36
1.0
 17
0.0
 27
0.0
 37
0.0
 40
9.0
 41
1.972972972850329
 42
50.0
 43
0.0
 44
0.0
 50
0.0
 51
0.0
 71
     0
 72
   100
 73
     1
 74
     3
 75
     0
 76
     0
 77
     0
 78
     0
  0
ENDTAB
  0
TABLE
  2
LTYPE
 70
     2
  0
LTYPE
  2
CONTINUOUS
 70
     0
  3
Solid line
 72
    65
 73
     0
 40
0.0
  0
LTYPE
  2
CONTINUOUS2
 70
     0
  3
Solid Line
 72
    65
 73
     0
 40
0.0
  0
ENDTAB
  0
TABLE
  2
LAYER
 70
     1
  0
LAYER
  2
0
 70
     0
 62
     7
  6
CONTINUOUS
  0
ENDTAB
  0
TABLE
  2
STYLE
 70
     1
  0
STYLE
  2
STANDARD
 70
     0
 40
0.0
 41
1.0
 50
0.0
 71
     0
 42
0.2
  3
txt
  4

  0
ENDTAB
  0
TABLE
  2
VIEW
 70
     0
  0
ENDTAB
  0
TABLE
  2
UCS
 70
     0
  0
ENDTAB
  0
TABLE
  2
APPID
 70
     1
  0
APPID
  2
ACAD
 70
     0
  0
ENDTAB
  0
TABLE
  2
DIMSTYLE
 70
     1
  0
DIMSTYLE
  2
STANDARD
 70
     0
  3

  4

  5

  6

  7

 40
1.0
 41
0.18
 42
0.0625
 43
0.38
 44
0.18
 45
0.0
 46
0.0
 47
0.0
 48
0.0
140
0.18
141
0.09
142
0.0
143
25.4
144
1.0
145
0.0
146
1.0
147
0.09
 71
     0
 72
     0
 73
     1
 74
     1
 75
     0
 76
     0
 77
     0
 78
     0
170
     0
171
     2
172
     0
173
     0
174
     0
175
     0
176
     0
177
     0
178
     0
  0
ENDTAB
  0
ENDSEC
  0
SECTION
  2
BLOCKS
  0
BLOCK
  8
0
  2
$MODEL_SPACE
 70
     0
 10
0.0
 20
0.0
 30
0.0
  3
$MODEL_SPACE
  1

  0
ENDBLK
  5
21
  8
0
  0
BLOCK
 67
     1
  8
0
  2
$PAPER_SPACE
 70
     0
 10
0.0
 20
0.0
 30
0.0
  3
$PAPER_SPACE
  1

  0
ENDBLK
  5
1D
 67
     1
  8
0
  0
ENDSEC
  0
SECTION
  2
ENTITIES
  0
POLYLINE
  5
6B
  8
0
 66
     1
 10
0.0
 20
0.0
 30
0.0
 70
     1
  0
VERTEX
  5
B8
  8
0
 10
91.72183574506566
 20
84.78634193057302
 30
0.0
 42
0.4142135623730951
  0
VERTEX
  5
B9
  8
0
 10
90.47183574506566
 20
83.53634193057302
 30
0.0
 42
0.4142135623730951
  0
VERTEX
  5
BA
  8
0
 10
91.72183574506566
 20
82.28634193057302
 30
0.0
 42
0.4142135623730951
  0
VERTEX
  5
BB
  8
0
 10
92.97183574506566
 20
83.53634193057302
 30
0.0
 42
0.4142135623730951
  0
SEQEND
  5
216
  8
0
  0
POLYLINE
  5
6C
  8
0
 66
     1
 10
0.0
 20
0.0
 30
0.0
 70
     1
  0
VERTEX
  5
BC
  8
0
 10
95.1659866363657
 20
85.47634012797302
 30
0.0
 42
0.4142135623730951
  0
VERTEX
  5
BD
  8
0
 10
93.91598663636567
 20
84.22634012797302
 30
0.0
 42
0.4142135623730951
  0
VERTEX
  5
BE
  8
0
 10
95.1659866363657
 20
82.97634012797302
 30
0.0
 42
0.4142135623730951
  0
VERTEX
  5
BF
  8
0
 10
96.4159866363657
 20
84.22634012797302
 30
0.0
 42
0.4142135623730951
  0
SEQEND
  5
217
  8
0
  0
POLYLINE
  5
6D
  8
0
 66
     1
 10
0.0
 20
0.0
 30
0.0
 70
     1
  0
VERTEX
  5
C0
  8
0
 10
88.27768485376568
 20
110.106171713173
 30
0.0
 42
0.4142135623730951
  0
VERTEX
  5
C1
  8
0
 10
87.02768485376568
 20
108.856171713173
 30
0.0
 42
0.4142135623730951
  0
VERTEX
  5
C2
  8
0
 10
88.27768485376568
 20
107.606171713173
 30
0.0
 42
0.4142135623730951
  0
VERTEX
  5
C3
  8
0
 10
89.52768485376565
 20
108.856171713173
 30
0.0
 42
0.4142135623730951
  0
SEQEND
  5
218
  8
0
  0
POLYLINE
  5
6E
  8
0
 66
     1
 10
0.0
 20
0.0
 30
0.0
 70
     1
  0
VERTEX
  5
C4
  8
0
 10
103.7218357450657
 20
73.04125592057302
 30
0.0
 42
0.4142135623730951
  0
VERTEX
  5
C5
  8
0
 10
102.2218357450657
 20
71.54125592057302
 30
0.0
 42
0.4142135623730951
  0
VERTEX
  5
C6
  8
0
 10
103.7218357450657
 20
70.04125592057302
 30
0.0
 42
0.4142135623730951
  0
VERTEX
  5
C7
  8
0
 10
105.2218357450657
 20
71.54125592057302
 30
0.0
 42
0.4142135623730951
  0
SEQEND
  5
219
  8
0
  0
POLYLINE
  5
6F
  8
0
 66
     1
 10
0.0
 20
0.0
 30
0.0
 70
     1
  0
VERTEX
  5
C8
  8
0
 10
3.405858476665725
 20
10.22527865217293
 30
0.0
 42
0.4142135623730951
  0
VERTEX
  5
C9
  8
0
 10
2.405858476665755
 20
9.22527865217293
 30
0.0
 42
0.4142135623730951
  0
VERTEX
  5
CA
  8
0
 10
3.405858476665725
 20
8.225278652172964
 30
0.0
 42
0.4142135623730951
  0
VERTEX
  5
CB
  8
0
 10
4.405858476665724
 20
9.22527865217293
 30
0.0
 42
0.4142135623730951
  0
SEQEND
  5
21A
  8
0
  0
POLYLINE
  5
70
  8
0
 66
     1
 10
0.0
 20
0.0
 30
0.0
 70
     1
  0
VERTEX
  5
CC
  8
0
 10
9.405858476665706
 20
11.97527865217296
 30
0.0
 42
0.4142135623730951
  0
VERTEX
  5
CD
  8
0
 10
6.655858476665683
 20
9.22527865217293
 30
0.0
 42
0.4142135623730951
  0
VERTEX
  5
CE
  8
0
 10
9.405858476665706
 20
6.475278652172905
 30
0.0
 42
0.4142135623730951
  0
VERTEX
  5
CF
  8
0
 10
12.15585847666572
 20
9.22527865217293
 30
0.0
 42
0.4142135623730951
  0
SEQEND
  5
21B
  8
0
  0
POLYLINE
  5
71
  8
0
 66
     1
 10
0.0
 20
0.0
 30
0.0
 70
     1
  0
VERTEX
  5
D0
  8
0
 10
9.405858476665706
 20
16.22527865217295
 30
0.0
 42
0.4142135623730951
  0
VERTEX
  5
D1
  8
0
 10
8.405858476665708
 20
15.22527865217295
 30
0.0
 42
0.4142135623730951
  0
VERTEX
  5
D2
  8
0
 10
9.405858476665706
 20
14.22527865217296
 30
0.0
 42
0.4142135623730951
  0
VERTEX
  5
D3
  8
0
 10
10.4058584766657
 20
15.22527865217295
 30
0.0
 42
0.4142135623730951
  0
SEQEND
  5
21C
  8
0
  0
POLYLINE
  5
72
  8
0
 66
     1
 10
0.0
 20
0.0
 30
0.0
 70
     1
  0
VERTEX
  5
D4
  8
0
 10
174.0378130134663
 20
11.97527865217296
 30
0.0
 42
0.4142135623730951
  0
VERTEX
  5
D5
  8
0
 10
171.2878130134662
 20
9.22527865217293
 30
0.0
 42
0.4142135623730951
  0
VERTEX
  5
D6
  8
0
 10
174.0378130134663
 20
6.475278652172905
 30
0.0
 42
0.4142135623730951
  0
VERTEX
  5
D7
  8
0
 10
176.7878130134663
 20
9.22527865217293
 30
0.0
 42
0.4142135623730951
  0
SEQEND
  5
21D
  8
0
  0
POLYLINE
  5
73
  8
0
 66
     1
 10
0.0
 20
0.0
 30
0.0
 70
     1
  0
VERTEX
  5
D8
  8
0
 10
174.0378130134663
 20
4.225278652172907
 30
0.0
 42
0.4142135623730951
  0
VERTEX
  5
D9
  8
0
 10
173.0378130134663
 20
3.225278652172935
 30
0.0
 42
0.4142135623730951
  0
VERTEX
  5
DA
  8
0
 10
174.0378130134663
 20
2.225278652172936
 30
0.0
 42
0.4142135623730951
  0
VERTEX
  5
DB
  8
0
 10
175.0378130134663
 20
3.225278652172935
 30
0.0
 42
0.4142135623730951
  0
SEQEND
  5
21E
  8
0
  0
POLYLINE
  5
74
  8
0
 66
     1
 10
0.0
 20
0.0
 30
0.0
 70
     1
  0
VERTEX
  5
DC
  8
0
 10
168.0378130134662
 20
10.22527865217293
 30
0.0
 42
0.4142135623730951
  0
VERTEX
  5
DD
  8
0
 10
167.0378130134662
 20
9.22527865217293
 30
0.0
 42
0.4142135623730951
  0
VERTEX
  5
DE
  8
0
 10
168.0378130134662
 20
8.225278652172964
 30
0.0
 42
0.4142135623730951
  0
VERTEX
  5
DF
  8
0
 10
169.0378130134662
 20
9.22527865217293
 30
0.0
 42
0.4142135623730951
  0
SEQEND
  5
21F
  8
0
  0
POLYLINE
  5
75
  8
0
 66
     1
 10
0.0
 20
0.0
 30
0.0
 70
     1
  0
VERTEX
  5
E0
  8
0
 10
174.0378130134663
 20
16.22527865217295
 30
0.0
 42
0.4142135623730951
  0
VERTEX
  5
E1
  8
0
 10
173.0378130134663
 20
15.22527865217295
 30
0.0
 42
0.4142135623730951
  0
VERTEX
  5
E2
  8
0
 10
174.0378130134663
 20
14.22527865217296
 30
0.0
 42
0.4142135623730951
  0
VERTEX
  5
E3
  8
0
 10
175.0378130134663
 20
15.22527865217295
 30
0.0
 42
0.4142135623730951
  0
SEQEND
  5
220
  8
0
  0
POLYLINE
  5
76
  8
0
 66
     1
 10
0.0
 20
0.0
 30
0.0
 70
     1
  0
VERTEX
  5
E4
  8
0
 10
180.0378130134663
 20
184.8572331889729
 30
0.0
 42
0.4142135623730951
  0
VERTEX
  5
E5
  8
0
 10
179.0378130134663
 20
183.857233188973
 30
0.0
 42
0.4142135623730951
  0
VERTEX
  5
E6
  8
0
 10
180.0378130134663
 20
182.857233188973
 30
0.0
 42
0.4142135623730951
  0
VERTEX
  5
E7
  8
0
 10
181.0378130134662
 20
183.857233188973
 30
0.0
 42
0.4142135623730951
  0
SEQEND
  5
221
  8
0
  0
POLYLINE
  5
77
  8
0
 66
     1
 10
0.0
 20
0.0
 30
0.0
 70
     1
  0
VERTEX
  5
E8
  8
0
 10
174.0378130134663
 20
190.857233188973
 30
0.0
 42
0.4142135623730951
  0
VERTEX
  5
E9
  8
0
 10
173.0378130134663
 20
189.857233188973
 30
0.0
 42
0.4142135623730951
  0
VERTEX
  5
EA
  8
0
 10
174.0378130134663
 20
188.857233188973
 30
0.0
 42
0.4142135623730951
  0
VERTEX
  5
EB
  8
0
 10
175.0378130134663
 20
189.857233188973
 30
0.0
 42
0.4142135623730951
  0
SEQEND
  5
222
  8
0
  0
POLYLINE
  5
78
  8
0
 66
     1
 10
0.0
 20
0.0
 30
0.0
 70
     1
  0
VERTEX
  5
EC
  8
0
 10
86.72183574506569
 20
97.79125592057302
 30
0.0
 42
0.4142135623730951
  0
VERTEX
  5
ED
  8
0
 10
85.47183574506569
 20
96.54125592057302
 30
0.0
 42
0.4142135623730951
  0
VERTEX
  5
EE
  8
0
 10
86.72183574506569
 20
95.29125592057302
 30
0.0
 42
0.4142135623730951
  0
VERTEX
  5
EF
  8
0
 10
87.97183574506569
 20
96.54125592057302
 30
0.0
 42
0.4142135623730951
  0
SEQEND
  5
223
  8
0
  0
POLYLINE
  5
79
  8
0
 66
     1
 10
0.0
 20
0.0
 30
0.0
 70
     1
  0
VERTEX
  5
F0
  8
0
 10
180.0378130134663
 20
10.22527865217293
 30
0.0
 42
0.4142135623730951
  0
VERTEX
  5
F1
  8
0
 10
179.0378130134663
 20
9.22527865217293
 30
0.0
 42
0.4142135623730951
  0
VERTEX
  5
F2
  8
0
 10
180.0378130134663
 20
8.225278652172964
 30
0.0
 42
0.4142135623730951
  0
VERTEX
  5
F3
  8
0
 10
181.0378130134663
 20
9.22527865217293
 30
0.0
 42
0.4142135623730951
  0
SEQEND
  5
224
  8
0
  0
POLYLINE
  5
7A
  8
0
 66
     1
 10
0.0
 20
0.0
 30
0.0
 70
     1
  0
VERTEX
  5
F4
  8
0
 10
168.0378130134662
 20
184.857233188973
 30
0.0
 42
0.4142135623730951
  0
VERTEX
  5
F5
  8
0
 10
167.0378130134662
 20
183.857233188973
 30
0.0
 42
0.4142135623730951
  0
VERTEX
  5
F6
  8
0
 10
168.0378130134662
 20
182.857233188973
 30
0.0
 42
0.4142135623730951
  0
VERTEX
  5
F7
  8
0
 10
169.0378130134662
 20
183.857233188973
 30
0.0
 42
0.4142135623730951
  0
SEQEND
  5
225
  8
0
  0
POLYLINE
  5
7B
  8
0
 66
     1
 10
0.0
 20
0.0
 30
0.0
 70
     1
  0
VERTEX
  5
F8
  8
0
 10
174.0378130134663
 20
186.607233188973
 30
0.0
 42
0.4142135623730951
  0
VERTEX
  5
F9
  8
0
 10
171.2878130134662
 20
183.857233188973
 30
0.0
 42
0.4142135623730951
  0
VERTEX
  5
FA
  8
0
 10
174.0378130134663
 20
181.1072331889729
 30
0.0
 42
0.4142135623730951
  0
VERTEX
  5
FB
  8
0
 10
176.7878130134663
 20
183.857233188973
 30
0.0
 42
0.4142135623730951
  0
SEQEND
  5
226
  8
0
  0
POLYLINE
  5
7C
  8
0
 66
     1
 10
0.0
 20
0.0
 30
0.0
 70
     1
  0
VERTEX
  5
FC
  8
0
 10
174.0378130134663
 20
178.8572331889729
 30
0.0
 42
0.4142135623730951
  0
VERTEX
  5
FD
  8
0
 10
173.0378130134663
 20
177.8572331889729
 30
0.0
 42
0.4142135623730951
  0
VERTEX
  5
FE
  8
0
 10
174.0378130134663
 20
176.857233188973
 30
0.0
 42
0.4142135623730951
  0
VERTEX
  5
FF
  8
0
 10
175.0378130134663
 20
177.8572331889729
 30
0.0
 42
0.4142135623730951
  0
SEQEND
  5
227
  8
0
  0
POLYLINE
  5
7D
  8
0
 66
     1
 10
0.0
 20
0.0
 30
0.0
 70
     1
  0
VERTEX
  5
100
  8
0
 10
15.40585847666569
 20
10.22527865217293
 30
0.0
 42
0.4142135623730951
  0
VERTEX
  5
101
  8
0
 10
14.40585847666572
 20
9.22527865217293
 30
0.0
 42
0.4142135623730951
  0
VERTEX
  5
102
  8
0
 10
15.40585847666569
 20
8.225278652172964
 30
0.0
 42
0.4142135623730951
  0
VERTEX
  5
103
  8
0
 10
16.40585847666568
 20
9.22527865217293
 30
0.0
 42
0.4142135623730951
  0
SEQEND
  5
228
  8
0
  0
POLYLINE
  5
7E
  8
0
 66
     1
 10
0.0
 20
0.0
 30
0.0
 70
     1
  0
VERTEX
  5
104
  8
0
 10
9.405858476665706
 20
4.225278652172907
 30
0.0
 42
0.4142135623730951
  0
VERTEX
  5
105
  8
0
 10
8.405858476665736
 20
3.225278652172935
 30
0.0
 42
0.4142135623730951
  0
VERTEX
  5
106
  8
0
 10
9.405858476665706
 20
2.225278652172936
 30
0.0
 42
0.4142135623730951
  0
VERTEX
  5
107
  8
0
 10
10.4058584766657
 20
3.225278652172935
 30
0.0
 42
0.4142135623730951
  0
SEQEND
  5
229
  8
0
  0
POLYLINE
  5
7F
  8
0
 66
     1
 10
0.0
 20
0.0
 30
0.0
 70
     1
  0
VERTEX
  5
108
  8
0
 10
103.7218357450657
 20
123.041255920573
 30
0.0
 42
0.4142135623730951
  0
VERTEX
  5
109
  8
0
 10
102.2218357450657
 20
121.541255920573
 30
0.0
 42
0.4142135623730951
  0
VERTEX
  5
10A
  8
0
 10
103.7218357450657
 20
120.041255920573
 30
0.0
 42
0.4142135623730951
  0
VERTEX
  5
10B
  8
0
 10
105.2218357450657
 20
121.541255920573
 30
0.0
 42
0.4142135623730951
  0
SEQEND
  5
22A
  8
0
  0
POLYLINE
  5
80
  8
0
 66
     1
 10
0.0
 20
0.0
 30
0.0
 70
     1
  0
VERTEX
  5
10C
  8
0
 10
79.72183574506569
 20
123.041255920573
 30
0.0
 42
0.4142135623730951
  0
VERTEX
  5
10D
  8
0
 10
78.22183574506569
 20
121.541255920573
 30
0.0
 42
0.4142135623730951
  0
VERTEX
  5
10E
  8
0
 10
79.72183574506569
 20
120.041255920573
 30
0.0
 42
0.4142135623730951
  0
VERTEX
  5
10F
  8
0
 10
81.22183574506569
 20
121.541255920573
 30
0.0
 42
0.4142135623730951
  0
SEQEND
  5
22B
  8
0
  0
POLYLINE
  5
81
  8
0
 66
     1
 10
0.0
 20
0.0
 30
0.0
 70
     1
  0
VERTEX
  5
110
  8
0
 10
79.72183574506569
 20
73.04125592057302
 30
0.0
 42
0.4142135623730951
  0
VERTEX
  5
111
  8
0
 10
78.22183574506569
 20
71.54125592057302
 30
0.0
 42
0.4142135623730951
  0
VERTEX
  5
112
  8
0
 10
79.72183574506569
 20
70.04125592057302
 30
0.0
 42
0.4142135623730951
  0
VERTEX
  5
113
  8
0
 10
81.22183574506569
 20
71.54125592057302
 30
0.0
 42
0.4142135623730951
  0
SEQEND
  5
22C
  8
0
  0
POLYLINE
  5
82
  8
0
 66
     1
 10
0.0
 20
0.0
 30
0.0
 70
     1
  0
VERTEX
  5
114
  8
0
 10
88.1863018391657
 20
94.25572201467303
 30
0.0
 42
0.4142135623730951
  0
VERTEX
  5
115
  8
0
 10
86.9363018391657
 20
93.00572201467303
 30
0.0
 42
0.4142135623730951
  0
VERTEX
  5
116
  8
0
 10
88.1863018391657
 20
91.75572201467303
 30
0.0
 42
0.4142135623730951
  0
VERTEX
  5
117
  8
0
 10
89.4363018391657
 20
93.00572201467303
 30
0.0
 42
0.4142135623730951
  0
SEQEND
  5
22D
  8
0
  0
POLYLINE
  5
83
  8
0
 66
     1
 10
0.0
 20
0.0
 30
0.0
 70
     1
  0
VERTEX
  5
118
  8
0
 10
91.72183574506566
 20
92.79125592057302
 30
0.0
 42
0.4142135623730951
  0
VERTEX
  5
119
  8
0
 10
90.47183574506566
 20
91.54125592057302
 30
0.0
 42
0.4142135623730951
  0
VERTEX
  5
11A
  8
0
 10
91.72183574506566
 20
90.29125592057302
 30
0.0
 42
0.4142135623730951
  0
VERTEX
  5
11B
  8
0
 10
92.97183574506566
 20
91.54125592057302
 30
0.0
 42
0.4142135623730951
  0
SEQEND
  5
22E
  8
0
  0
POLYLINE
  5
84
  8
0
 66
     1
 10
0.0
 20
0.0
 30
0.0
 70
     1
  0
VERTEX
  5
11C
  8
0
 10
95.25736965096566
 20
94.25572201467303
 30
0.0
 42
0.4142135623730951
  0
VERTEX
  5
11D
  8
0
 10
94.00736965096563
 20
93.00572201467303
 30
0.0
 42
0.4142135623730951
  0
VERTEX
  5
11E
  8
0
 10
95.25736965096566
 20
91.75572201467303
 30
0.0
 42
0.4142135623730951
  0
VERTEX
  5
11F
  8
0
 10
96.50736965096566
 20
93.00572201467303
 30
0.0
 42
0.4142135623730951
  0
SEQEND
  5
22F
  8
0
  0
POLYLINE
  5
85
  8
0
 66
     1
 10
0.0
 20
0.0
 30
0.0
 70
     1
  0
VERTEX
  5
120
  8
0
 10
96.72183574506569
 20
97.79125592057302
 30
0.0
 42
0.4142135623730951
  0
VERTEX
  5
121
  8
0
 10
95.47183574506569
 20
96.54125592057302
 30
0.0
 42
0.4142135623730951
  0
VERTEX
  5
122
  8
0
 10
96.72183574506569
 20
95.29125592057302
 30
0.0
 42
0.4142135623730951
  0
VERTEX
  5
123
  8
0
 10
97.97183574506569
 20
96.54125592057302
 30
0.0
 42
0.4142135623730951
  0
SEQEND
  5
230
  8
0
  0
POLYLINE
  5
86
  8
0
 66
     1
 10
0.0
 20
0.0
 30
0.0
 70
     1
  0
VERTEX
  5
124
  8
0
 10
95.25736965096566
 20
101.326789826473
 30
0.0
 42
0.4142135623730951
  0
VERTEX
  5
125
  8
0
 10
94.00736965096563
 20
100.076789826473
 30
0.0
 42
0.4142135623730951
  0
VERTEX
  5
126
  8
0
 10
95.25736965096566
 20
98.82678982647302
 30
0.0
 42
0.4142135623730951
  0
VERTEX
  5
127
  8
0
 10
96.50736965096566
 20
100.076789826473
 30
0.0
 42
0.4142135623730951
  0
SEQEND
  5
231
  8
0
  0
POLYLINE
  5
87
  8
0
 66
     1
 10
0.0
 20
0.0
 30
0.0
 70
     1
  0
VERTEX
  5
128
  8
0
 10
91.72183574506566
 20
102.791255920573
 30
0.0
 42
0.4142135623730951
  0
VERTEX
  5
129
  8
0
 10
90.47183574506566
 20
101.541255920573
 30
0.0
 42
0.4142135623730951
  0
VERTEX
  5
12A
  8
0
 10
91.72183574506566
 20
100.291255920573
 30
0.0
 42
0.4142135623730951
  0
VERTEX
  5
12B
  8
0
 10
92.97183574506566
 20
101.541255920573
 30
0.0
 42
0.4142135623730951
  0
SEQEND
  5
232
  8
0
  0
POLYLINE
  5
88
  8
0
 66
     1
 10
0.0
 20
0.0
 30
0.0
 70
     1
  0
VERTEX
  5
12C
  8
0
 10
88.1863018391657
 20
101.326789826473
 30
0.0
 42
0.4142135623730951
  0
VERTEX
  5
12D
  8
0
 10
86.9363018391657
 20
100.076789826473
 30
0.0
 42
0.4142135623730951
  0
VERTEX
  5
12E
  8
0
 10
88.1863018391657
 20
98.82678982647302
 30
0.0
 42
0.4142135623730951
  0
VERTEX
  5
12F
  8
0
 10
89.4363018391657
 20
100.076789826473
 30
0.0
 42
0.4142135623730951
  0
SEQEND
  5
233
  8
0
  0
POLYLINE
  5
89
  8
0
 66
     1
 10
0.0
 20
0.0
 30
0.0
 70
     1
  0
VERTEX
  5
130
  8
0
 10
91.72183574506566
 20
99.04125592057302
 30
0.0
 42
0.4142135623730951
  0
VERTEX
  5
131
  8
0
 10
89.22183574506566
 20
96.54125592057302
 30
0.0
 42
0.4142135623730951
  0
VERTEX
  5
132
  8
0
 10
91.72183574506566
 20
94.04125592057302
 30
0.0
 42
0.4142135623730951
  0
VERTEX
  5
133
  8
0
 10
94.22183574506566
 20
96.54125592057302
 30
0.0
 42
0.4142135623730951
  0
SEQEND
  5
234
  8
0
  0
POLYLINE
  5
8A
  8
0
 66
     1
 10
0.0
 20
0.0
 30
0.0
 70
     1
  0
VERTEX
  5
134
  8
0
 10
82.72183574506569
 20
97.79125592057302
 30
0.0
 42
0.4142135623730951
  0
VERTEX
  5
135
  8
0
 10
81.47183574506569
 20
96.54125592057302
 30
0.0
 42
0.4142135623730951
  0
VERTEX
  5
136
  8
0
 10
82.72183574506569
 20
95.29125592057302
 30
0.0
 42
0.4142135623730951
  0
VERTEX
  5
137
  8
0
 10
83.97183574506569
 20
96.54125592057302
 30
0.0
 42
0.4142135623730951
  0
SEQEND
  5
235
  8
0
  0
POLYLINE
  5
8B
  8
0
 66
     1
 10
0.0
 20
0.0
 30
0.0
 70
     1
  0
VERTEX
  5
138
  8
0
 10
83.40691995246569
 20
94.34710502927301
 30
0.0
 42
0.4142135623730951
  0
VERTEX
  5
139
  8
0
 10
82.15691995246569
 20
93.09710502927301
 30
0.0
 42
0.4142135623730951
  0
VERTEX
  5
13A
  8
0
 10
83.40691995246569
 20
91.84710502927301
 30
0.0
 42
0.4142135623730951
  0
VERTEX
  5
13B
  8
0
 10
84.65691995246569
 20
93.09710502927301
 30
0.0
 42
0.4142135623730951
  0
SEQEND
  5
236
  8
0
  0
POLYLINE
  5
8C
  8
0
 66
     1
 10
0.0
 20
0.0
 30
0.0
 70
     1
  0
VERTEX
  5
13C
  8
0
 10
85.35787471436568
 20
91.42729488987301
 30
0.0
 42
0.4142135623730951
  0
VERTEX
  5
13D
  8
0
 10
84.10787471436568
 20
90.17729488987301
 30
0.0
 42
0.4142135623730951
  0
VERTEX
  5
13E
  8
0
 10
85.35787471436568
 20
88.92729488987301
 30
0.0
 42
0.4142135623730951
  0
VERTEX
  5
13F
  8
0
 10
86.60787471436568
 20
90.17729488987301
 30
0.0
 42
0.4142135623730951
  0
SEQEND
  5
237
  8
0
  0
POLYLINE
  5
8D
  8
0
 66
     1
 10
0.0
 20
0.0
 30
0.0
 70
     1
  0
VERTEX
  5
140
  8
0
 10
88.27768485376568
 20
89.47634012797302
 30
0.0
 42
0.4142135623730951
  0
VERTEX
  5
141
  8
0
 10
87.02768485376568
 20
88.22634012797302
 30
0.0
 42
0.4142135623730951
  0
VERTEX
  5
142
  8
0
 10
88.27768485376568
 20
86.97634012797302
 30
0.0
 42
0.4142135623730951
  0
VERTEX
  5
143
  8
0
 10
89.52768485376565
 20
88.22634012797302
 30
0.0
 42
0.4142135623730951
  0
SEQEND
  5
238
  8
0
  0
POLYLINE
  5
8E
  8
0
 66
     1
 10
0.0
 20
0.0
 30
0.0
 70
     1
  0
VERTEX
  5
144
  8
0
 10
91.72183574506566
 20
88.79125592057302
 30
0.0
 42
0.4142135623730951
  0
VERTEX
  5
145
  8
0
 10
90.47183574506566
 20
87.54125592057302
 30
0.0
 42
0.4142135623730951
  0
VERTEX
  5
146
  8
0
 10
91.72183574506566
 20
86.29125592057302
 30
0.0
 42
0.4142135623730951
  0
VERTEX
  5
147
  8
0
 10
92.97183574506566
 20
87.54125592057302
 30
0.0
 42
0.4142135623730951
  0
SEQEND
  5
239
  8
0
  0
POLYLINE
  5
8F
  8
0
 66
     1
 10
0.0
 20
0.0
 30
0.0
 70
     1
  0
VERTEX
  5
148
  8
0
 10
95.1659866363657
 20
89.47634012797302
 30
0.0
 42
0.4142135623730951
  0
VERTEX
  5
149
  8
0
 10
93.91598663636567
 20
88.22634012797302
 30
0.0
 42
0.4142135623730951
  0
VERTEX
  5
14A
  8
0
 10
95.1659866363657
 20
86.97634012797302
 30
0.0
 42
0.4142135623730951
  0
VERTEX
  5
14B
  8
0
 10
96.41598663636564
 20
88.22634012797302
 30
0.0
 42
0.4142135623730951
  0
SEQEND
  5
23A
  8
0
  0
POLYLINE
  5
90
  8
0
 66
     1
 10
0.0
 20
0.0
 30
0.0
 70
     1
  0
VERTEX
  5
14C
  8
0
 10
98.0857967757657
 20
91.42729488987301
 30
0.0
 42
0.4142135623730951
  0
VERTEX
  5
14D
  8
0
 10
96.8357967757657
 20
90.17729488987301
 30
0.0
 42
0.4142135623730951
  0
VERTEX
  5
14E
  8
0
 10
98.0857967757657
 20
88.92729488987301
 30
0.0
 42
0.4142135623730951
  0
VERTEX
  5
14F
  8
0
 10
99.33579677576564
 20
90.17729488987301
 30
0.0
 42
0.4142135623730951
  0
SEQEND
  5
23B
  8
0
  0
POLYLINE
  5
91
  8
0
 66
     1
 10
0.0
 20
0.0
 30
0.0
 70
     1
  0
VERTEX
  5
150
  8
0
 10
100.0367515376656
 20
94.34710502927301
 30
0.0
 42
0.4142135623730951
  0
VERTEX
  5
151
  8
0
 10
98.78675153766564
 20
93.09710502927301
 30
0.0
 42
0.4142135623730951
  0
VERTEX
  5
152
  8
0
 10
100.0367515376656
 20
91.84710502927301
 30
0.0
 42
0.4142135623730951
  0
VERTEX
  5
153
  8
0
 10
101.2867515376657
 20
93.09710502927301
 30
0.0
 42
0.4142135623730951
  0
SEQEND
  5
23C
  8
0
  0
POLYLINE
  5
92
  8
0
 66
     1
 10
0.0
 20
0.0
 30
0.0
 70
     1
  0
VERTEX
  5
154
  8
0
 10
100.7218357450656
 20
97.79125592057302
 30
0.0
 42
0.4142135623730951
  0
VERTEX
  5
155
  8
0
 10
99.47183574506563
 20
96.54125592057302
 30
0.0
 42
0.4142135623730951
  0
VERTEX
  5
156
  8
0
 10
100.7218357450656
 20
95.29125592057302
 30
0.0
 42
0.4142135623730951
  0
VERTEX
  5
157
  8
0
 10
101.9718357450657
 20
96.54125592057302
 30
0.0
 42
0.4142135623730951
  0
SEQEND
  5
23D
  8
0
  0
POLYLINE
  5
93
  8
0
 66
     1
 10
0.0
 20
0.0
 30
0.0
 70
     1
  0
VERTEX
  5
158
  8
0
 10
100.0367515376656
 20
101.235406811873
 30
0.0
 42
0.4142135623730951
  0
VERTEX
  5
159
  8
0
 10
98.78675153766564
 20
99.98540681187303
 30
0.0
 42
0.4142135623730951
  0
VERTEX
  5
15A
  8
0
 10
100.0367515376656
 20
98.73540681187303
 30
0.0
 42
0.4142135623730951
  0
VERTEX
  5
15B
  8
0
 10
101.2867515376657
 20
99.98540681187303
 30
0.0
 42
0.4142135623730951
  0
SEQEND
  5
23E
  8
0
  0
POLYLINE
  5
94
  8
0
 66
     1
 10
0.0
 20
0.0
 30
0.0
 70
     1
  0
VERTEX
  5
15C
  8
0
 10
98.0857967757657
 20
104.155216951273
 30
0.0
 42
0.4142135623730951
  0
VERTEX
  5
15D
  8
0
 10
96.8357967757657
 20
102.905216951273
 30
0.0
 42
0.4142135623730951
  0
VERTEX
  5
15E
  8
0
 10
98.0857967757657
 20
101.655216951273
 30
0.0
 42
0.4142135623730951
  0
VERTEX
  5
15F
  8
0
 10
99.33579677576564
 20
102.905216951273
 30
0.0
 42
0.4142135623730951
  0
SEQEND
  5
23F
  8
0
  0
POLYLINE
  5
95
  8
0
 66
     1
 10
0.0
 20
0.0
 30
0.0
 70
     1
  0
VERTEX
  5
160
  8
0
 10
95.1659866363657
 20
106.106171713173
 30
0.0
 42
0.4142135623730951
  0
VERTEX
  5
161
  8
0
 10
93.91598663636567
 20
104.856171713173
 30
0.0
 42
0.4142135623730951
  0
VERTEX
  5
162
  8
0
 10
95.1659866363657
 20
103.606171713173
 30
0.0
 42
0.4142135623730951
  0
VERTEX
  5
163
  8
0
 10
96.4159866363657
 20
104.856171713173
 30
0.0
 42
0.4142135623730951
  0
SEQEND
  5
240
  8
0
  0
POLYLINE
  5
96
  8
0
 66
     1
 10
0.0
 20
0.0
 30
0.0
 70
     1
  0
VERTEX
  5
164
  8
0
 10
91.72183574506566
 20
106.791255920573
 30
0.0
 42
0.4142135623730951
  0
VERTEX
  5
165
  8
0
 10
90.47183574506566
 20
105.541255920573
 30
0.0
 42
0.4142135623730951
  0
VERTEX
  5
166
  8
0
 10
91.72183574506566
 20
104.291255920573
 30
0.0
 42
0.4142135623730951
  0
VERTEX
  5
167
  8
0
 10
92.97183574506566
 20
105.541255920573
 30
0.0
 42
0.4142135623730951
  0
SEQEND
  5
241
  8
0
  0
POLYLINE
  5
97
  8
0
 66
     1
 10
0.0
 20
0.0
 30
0.0
 70
     1
  0
VERTEX
  5
168
  8
0
 10
88.27768485376568
 20
106.106171713173
 30
0.0
 42
0.4142135623730951
  0
VERTEX
  5
169
  8
0
 10
87.02768485376568
 20
104.856171713173
 30
0.0
 42
0.4142135623730951
  0
VERTEX
  5
16A
  8
0
 10
88.27768485376568
 20
103.606171713173
 30
0.0
 42
0.4142135623730951
  0
VERTEX
  5
16B
  8
0
 10
89.52768485376565
 20
104.856171713173
 30
0.0
 42
0.4142135623730951
  0
SEQEND
  5
242
  8
0
  0
POLYLINE
  5
98
  8
0
 66
     1
 10
0.0
 20
0.0
 30
0.0
 70
     1
  0
VERTEX
  5
16C
  8
0
 10
85.35787471436568
 20
104.155216951273
 30
0.0
 42
0.4142135623730951
  0
VERTEX
  5
16D
  8
0
 10
84.10787471436568
 20
102.905216951273
 30
0.0
 42
0.4142135623730951
  0
VERTEX
  5
16E
  8
0
 10
85.35787471436568
 20
101.655216951273
 30
0.0
 42
0.4142135623730951
  0
VERTEX
  5
16F
  8
0
 10
86.60787471436568
 20
102.905216951273
 30
0.0
 42
0.4142135623730951
  0
SEQEND
  5
243
  8
0
  0
POLYLINE
  5
99
  8
0
 66
     1
 10
0.0
 20
0.0
 30
0.0
 70
     1
  0
VERTEX
  5
170
  8
0
 10
83.40691995246569
 20
101.235406811873
 30
0.0
 42
0.4142135623730951
  0
VERTEX
  5
171
  8
0
 10
82.15691995246569
 20
99.98540681187303
 30
0.0
 42
0.4142135623730951
  0
VERTEX
  5
172
  8
0
 10
83.40691995246569
 20
98.73540681187303
 30
0.0
 42
0.4142135623730951
  0
VERTEX
  5
173
  8
0
 10
84.65691995246569
 20
99.98540681187303
 30
0.0
 42
0.4142135623730951
  0
SEQEND
  5
244
  8
0
  0
POLYLINE
  5
9A
  8
0
 66
     1
 10
0.0
 20
0.0
 30
0.0
 70
     1
  0
VERTEX
  5
174
  8
0
 10
91.72183574506566
 20
110.796169910573
 30
0.0
 42
0.4142135623730951
  0
VERTEX
  5
175
  8
0
 10
90.47183574506566
 20
109.546169910573
 30
0.0
 42
0.4142135623730951
  0
VERTEX
  5
176
  8
0
 10
91.72183574506566
 20
108.296169910573
 30
0.0
 42
0.4142135623730951
  0
VERTEX
  5
177
  8
0
 10
92.97183574506566
 20
109.546169910573
 30
0.0
 42
0.4142135623730951
  0
SEQEND
  5
245
  8
0
  0
POLYLINE
  5
9B
  8
0
 66
     1
 10
0.0
 20
0.0
 30
0.0
 70
     1
  0
VERTEX
  5
178
  8
0
 10
91.72183574506566
 20
114.796169910573
 30
0.0
 42
0.4142135623730951
  0
VERTEX
  5
179
  8
0
 10
90.47183574506566
 20
113.546169910573
 30
0.0
 42
0.4142135623730951
  0
VERTEX
  5
17A
  8
0
 10
91.72183574506566
 20
112.296169910573
 30
0.0
 42
0.4142135623730951
  0
VERTEX
  5
17B
  8
0
 10
92.97183574506566
 20
113.546169910573
 30
0.0
 42
0.4142135623730951
  0
SEQEND
  5
246
  8
0
  0
POLYLINE
  5
9C
  8
0
 66
     1
 10
0.0
 20
0.0
 30
0.0
 70
     1
  0
VERTEX
  5
17C
  8
0
 10
95.1659866363657
 20
110.106171713173
 30
0.0
 42
0.4142135623730951
  0
VERTEX
  5
17D
  8
0
 10
93.91598663636567
 20
108.856171713173
 30
0.0
 42
0.4142135623730951
  0
VERTEX
  5
17E
  8
0
 10
95.1659866363657
 20
107.606171713173
 30
0.0
 42
0.4142135623730951
  0
VERTEX
  5
17F
  8
0
 10
96.4159866363657
 20
108.856171713173
 30
0.0
 42
0.4142135623730951
  0
SEQEND
  5
247
  8
0
  0
POLYLINE
  5
9D
  8
0
 66
     1
 10
0.0
 20
0.0
 30
0.0
 70
     1
  0
VERTEX
  5
180
  8
0
 10
95.1659866363657
 20
114.106171713173
 30
0.0
 42
0.4142135623730951
  0
VERTEX
  5
181
  8
0
 10
93.91598663636567
 20
112.856171713173
 30
0.0
 42
0.4142135623730951
  0
VERTEX
  5
182
  8
0
 10
95.1659866363657
 20
111.606171713173
 30
0.0
 42
0.4142135623730951
  0
VERTEX
  5
183
  8
0
 10
96.4159866363657
 20
112.856171713173
 30
0.0
 42
0.4142135623730951
  0
SEQEND
  5
248
  8
0
  0
POLYLINE
  5
9E
  8
0
 66
     1
 10
0.0
 20
0.0
 30
0.0
 70
     1
  0
VERTEX
  5
184
  8
0
 10
88.27768485376568
 20
114.106171713173
 30
0.0
 42
0.4142135623730951
  0
VERTEX
  5
185
  8
0
 10
87.02768485376568
 20
112.856171713173
 30
0.0
 42
0.4142135623730951
  0
VERTEX
  5
186
  8
0
 10
88.27768485376568
 20
111.606171713173
 30
0.0
 42
0.4142135623730951
  0
VERTEX
  5
187
  8
0
 10
89.52768485376565
 20
112.856171713173
 30
0.0
 42
0.4142135623730951
  0
SEQEND
  5
249
  8
0
  0
POLYLINE
  5
9F
  8
0
 66
     1
 10
0.0
 20
0.0
 30
0.0
 70
     1
  0
VERTEX
  5
188
  8
0
 10
88.27768485376568
 20
85.47634012797302
 30
0.0
 42
0.4142135623730951
  0
VERTEX
  5
189
  8
0
 10
87.02768485376568
 20
84.22634012797302
 30
0.0
 42
0.4142135623730951
  0
VERTEX
  5
18A
  8
0
 10
88.27768485376568
 20
82.97634012797302
 30
0.0
 42
0.4142135623730951
  0
VERTEX
  5
18B
  8
0
 10
89.52768485376565
 20
84.22634012797302
 30
0.0
 42
0.4142135623730951
  0
SEQEND
  5
24A
  8
0
  0
POLYLINE
  5
A0
  8
0
 66
     1
 10
0.0
 20
0.0
 30
0.0
 70
     1
  0
VERTEX
  5
18C
  8
0
 10
88.27768485376568
 20
81.47634012797302
 30
0.0
 42
0.4142135623730951
  0
VERTEX
  5
18D
  8
0
 10
87.02768485376568
 20
80.22634012797302
 30
0.0
 42
0.4142135623730951
  0
VERTEX
  5
18E
  8
0
 10
88.27768485376568
 20
78.97634012797302
 30
0.0
 42
0.4142135623730951
  0
VERTEX
  5
18F
  8
0
 10
89.52768485376565
 20
80.22634012797302
 30
0.0
 42
0.4142135623730951
  0
SEQEND
  5
24B
  8
0
  0
POLYLINE
  5
A1
  8
0
 66
     1
 10
0.0
 20
0.0
 30
0.0
 70
     1
  0
VERTEX
  5
190
  8
0
 10
95.1659866363657
 20
81.47634012797302
 30
0.0
 42
0.4142135623730951
  0
VERTEX
  5
191
  8
0
 10
93.91598663636567
 20
80.22634012797302
 30
0.0
 42
0.4142135623730951
  0
VERTEX
  5
192
  8
0
 10
95.1659866363657
 20
78.97634012797302
 30
0.0
 42
0.4142135623730951
  0
VERTEX
  5
193
  8
0
 10
96.41598663636564
 20
80.22634012797302
 30
0.0
 42
0.4142135623730951
  0
SEQEND
  5
24C
  8
0
  0
POLYLINE
  5
A2
  8
0
 66
     1
 10
0.0
 20
0.0
 30
0.0
 70
     1
  0
VERTEX
  5
194
  8
0
 10
91.72183574506566
 20
80.78634193057302
 30
0.0
 42
0.4142135623730951
  0
VERTEX
  5
195
  8
0
 10
90.47183574506566
 20
79.53634193057302
 30
0.0
 42
0.4142135623730951
  0
VERTEX
  5
196
  8
0
 10
91.72183574506566
 20
78.28634193057302
 30
0.0
 42
0.4142135623730951
  0
VERTEX
  5
197
  8
0
 10
92.97183574506566
 20
79.53634193057302
 30
0.0
 42
0.4142135623730951
  0
SEQEND
  5
24D
  8
0
  0
POLYLINE
  5
A3
  8
0
 66
     1
 10
0.0
 20
0.0
 30
0.0
 70
     1
  0
VERTEX
  5
198
  8
0
 10
9.405858476665706
 20
190.857233188973
 30
0.0
 42
0.4142135623730951
  0
VERTEX
  5
199
  8
0
 10
8.405858476665736
 20
189.857233188973
 30
0.0
 42
0.4142135623730951
  0
VERTEX
  5
19A
  8
0
 10
9.405858476665706
 20
188.857233188973
 30
0.0
 42
0.4142135623730951
  0
VERTEX
  5
19B
  8
0
 10
10.4058584766657
 20
189.857233188973
 30
0.0
 42
0.4142135623730951
  0
SEQEND
  5
24E
  8
0
  0
POLYLINE
  5
A4
  8
0
 66
     1
 10
0.0
 20
0.0
 30
0.0
 70
     1
  0
VERTEX
  5
19C
  8
0
 10
15.40585847666569
 20
184.857233188973
 30
0.0
 42
0.4142135623730951
  0
VERTEX
  5
19D
  8
0
 10
14.40585847666569
 20
183.857233188973
 30
0.0
 42
0.4142135623730951
  0
VERTEX
  5
19E
  8
0
 10
15.40585847666569
 20
182.857233188973
 30
0.0
 42
0.4142135623730951
  0
VERTEX
  5
19F
  8
0
 10
16.40585847666571
 20
183.857233188973
 30
0.0
 42
0.4142135623730951
  0
SEQEND
  5
24F
  8
0
  0
POLYLINE
  5
A5
  8
0
 66
     1
 10
0.0
 20
0.0
 30
0.0
 70
     1
  0
VERTEX
  5
1A0
  8
0
 10
9.405858476665706
 20
178.8572331889729
 30
0.0
 42
0.4142135623730951
  0
VERTEX
  5
1A1
  8
0
 10
8.405858476665736
 20
177.8572331889729
 30
0.0
 42
0.4142135623730951
  0
VERTEX
  5
1A2
  8
0
 10
9.405858476665706
 20
176.857233188973
 30
0.0
 42
0.4142135623730951
  0
VERTEX
  5
1A3
  8
0
 10
10.4058584766657
 20
177.8572331889729
 30
0.0
 42
0.4142135623730951
  0
SEQEND
  5
250
  8
0
  0
POLYLINE
  5
A6
  8
0
 66
     1
 10
0.0
 20
0.0
 30
0.0
 70
     1
  0
VERTEX
  5
1A4
  8
0
 10
3.405858476665725
 20
184.8572331889729
 30
0.0
 42
0.4142135623730951
  0
VERTEX
  5
1A5
  8
0
 10
2.405858476665755
 20
183.857233188973
 30
0.0
 42
0.4142135623730951
  0
VERTEX
  5
1A6
  8
0
 10
3.405858476665725
 20
182.857233188973
 30
0.0
 42
0.4142135623730951
  0
VERTEX
  5
1A7
  8
0
 10
4.405858476665696
 20
183.857233188973
 30
0.0
 42
0.4142135623730951
  0
SEQEND
  5
251
  8
0
  0
POLYLINE
  5
A7
  8
0
 66
     1
 10
0.0
 20
0.0
 30
0.0
 70
     1
  0
VERTEX
  5
1A8
  8
0
 10
9.405858476665706
 20
186.607233188973
 30
0.0
 42
0.4142135623730951
  0
VERTEX
  5
1A9
  8
0
 10
6.655858476665712
 20
183.857233188973
 30
0.0
 42
0.4142135623730951
  0
VERTEX
  5
1AA
  8
0
 10
9.405858476665706
 20
181.1072331889729
 30
0.0
 42
0.4142135623730951
  0
VERTEX
  5
1AB
  8
0
 10
12.15585847666572
 20
183.857233188973
 30
0.0
 42
0.4142135623730951
  0
SEQEND
  5
252
  8
0
  0
POLYLINE
  5
A8
  8
0
 66
     1
 10
0.0
 20
0.0
 30
0.0
 70
     1
  0
VERTEX
  5
1AC
  8
0
 10
106.4718357450657
 20
88.04125592057302
 30
0.0
 42
1.0
  0
VERTEX
  5
1AD
  8
0
 10
109.9718357450657
 20
88.04125592057302
 30
0.0
  0
VERTEX
  5
1AE
  8
0
 10
109.9718357450657
 20
105.041255920573
 30
0.0
 42
1.0
  0
VERTEX
  5
1AF
  8
0
 10
106.4718357450657
 20
105.041255920573
 30
0.0
  0
SEQEND
  5
253
  8
0
  0
POLYLINE
  5
A9
  8
0
 66
     1
 10
0.0
 20
0.0
 30
0.0
 70
     1
  0
VERTEX
  5
1B0
  8
0
 10
73.47183574506569
 20
88.04125592057302
 30
0.0
 42
1.0
  0
VERTEX
  5
1B1
  8
0
 10
76.97183574506566
 20
88.04125592057302
 30
0.0
  0
VERTEX
  5
1B2
  8
0
 10
76.97183574506569
 20
105.041255920573
 30
0.0
 42
1.0
  0
VERTEX
  5
1B3
  8
0
 10
73.47183574506569
 20
105.041255920573
 30
0.0
  0
SEQEND
  5
254
  8
0
  0
POLYLINE
  5
AA
  8
0
 66
     1
 10
0.0
 20
0.0
 30
0.0
 70
     1
  0
VERTEX
  5
1B4
  8
0
 10
6.432856789383749
 20
2.823705536316143
 30
0.0
 42
0.3375811771003993
  0
VERTEX
  5
1B5
  8
0
 10
3.004285360808622
 20
6.252276964887644
 30
0.0
 42
-0.8740078740124834
  0
VERTEX
  5
1B6
  8
0
 10
3.004285360808651
 20
12.19828033945816
 30
0.0
 42
0.3375811771004019
  0
VERTEX
  5
1B7
  8
0
 10
6.432856789380452
 20
15.62685176803005
 30
0.0
 42
-0.3733925093438124
  0
VERTEX
  5
1B8
  8
0
 10
9.384579217399754
 20
18.2252031834116
 30
0.0
 42
0.1970695669014094
  0
VERTEX
  5
1B9
  8
0
 10
16.38471616514829
 20
21.15388380899038
 30
0.0
  0
VERTEX
  5
1BA
  8
0
 10
69.50958231247937
 20
74.27874995625932
 30
0.0
 42
0.0377426060985855
  0
VERTEX
  5
1BB
  8
0
 10
74.4226713384724
 20
79.99536941543433
 30
0.0
  0
VERTEX
  5
1BC
  8
0
 10
74.90892545545829
 20
80.66095558003336
 30
0.0
 42
0.5131326263677377
  0
VERTEX
  5
1BD
  8
0
 10
73.88427574950701
 20
83.7446371035882
 30
0.0
 42
-0.3283402528679888
  0
VERTEX
  5
1BE
  8
0
 10
70.72183574506569
 20
88.04125592057302
 30
0.0
  0
VERTEX
  5
1BF
  8
0
 10
70.72183574506566
 20
105.041255920573
 30
0.0
 42
-0.3283402528679895
  0
VERTEX
  5
1C0
  8
0
 10
73.88427574950701
 20
109.3378747375578
 30
0.0
 42
0.513132626367739
  0
VERTEX
  5
1C1
  8
0
 10
74.90892545545829
 20
112.4215562611127
 30
0.0
  0
VERTEX
  5
1C2
  8
0
 10
74.42267133847132
 20
113.0871424257109
 30
0.0
 42
0.0377426060985831
  0
VERTEX
  5
1C3
  8
0
 10
69.50958231247843
 20
118.8037618848857
 30
0.0
  0
VERTEX
  5
1C4
  8
0
 10
16.38471616514826
 20
171.9286280321555
 30
0.0
 42
0.1970695669014111
  0
VERTEX
  5
1C5
  8
0
 10
9.384579217399754
 20
174.8573086577343
 30
0.0
 42
-0.3733925093438147
  0
VERTEX
  5
1C6
  8
0
 10
6.432856789380452
 20
177.4556600731158
 30
0.0
 42
0.3375811771004048
  0
VERTEX
  5
1C7
  8
0
 10
3.004285360808622
 20
180.8842315016877
 30
0.0
 42
-0.8740078740124834
  0
VERTEX
  5
1C8
  8
0
 10
3.004285360808622
 20
186.8302348762582
 30
0.0
 42
0.3375811771003993
  0
VERTEX
  5
1C9
  8
0
 10
6.432856789380452
 20
190.2588063048301
 30
0.0
 42
-0.8740078740124834
  0
VERTEX
  5
1CA
  8
0
 10
12.37886016395093
 20
190.2588063048301
 30
0.0
 42
0.3375811771003963
  0
VERTEX
  5
1CB
  8
0
 10
15.80743159252279
 20
186.8302348762582
 30
0.0
 42
-0.373392509343813
  0
VERTEX
  5
1CC
  8
0
 10
18.40578300790403
 20
183.8785124482389
 30
0.0
 42
0.1970695669014123
  0
VERTEX
  5
1CD
  8
0
 10
21.33446363348289
 20
176.8783755004902
 30
0.0
  0
VERTEX
  5
1CE
  8
0
 10
45.06061431816067
 20
153.152224815818
 30
0.0
 42
0.0851835199861371
  0
VERTEX
  5
1CF
  8
0
 10
83.73022292707186
 20
125.8109036080173
 30
0.0
 42
0.0068461364289479
  0
VERTEX
  5
1D0
  8
0
 10
87.25555693184619
 20
124.1864562849819
 30
0.0
 42
0.2121497714010823
  0
VERTEX
  5
1D1
  8
0
 10
96.18811455831151
 20
124.1864562849727
 30
0.0
 42
0.006846136428947
  0
VERTEX
  5
1D2
  8
0
 10
99.71344856308743
 20
125.8109036080085
 30
0.0
 42
0.085183519986137
  0
VERTEX
  5
1D3
  8
0
 10
138.3830571719713
 20
153.1522248158178
 30
0.0
  0
VERTEX
  5
1D4
  8
0
 10
162.109207856649
 20
176.8783755004902
 30
0.0
 42
0.1970695669014109
  0
VERTEX
  5
1D5
  8
0
 10
165.0378884822279
 20
183.8785124482389
 30
0.0
 42
-0.3733925093438147
  0
VERTEX
  5
1D6
  8
0
 10
167.6362398976091
 20
186.8302348762582
 30
0.0
 42
0.337581177100402
  0
VERTEX
  5
1D7
  8
0
 10
171.064811326181
 20
190.2588063048301
 30
0.0
 42
-0.8740078740124834
  0
VERTEX
  5
1D8
  8
0
 10
177.0108147007515
 20
190.2588063048301
 30
0.0
 42
0.3375811771003965
  0
VERTEX
  5
1D9
  8
0
 10
180.4393861293234
 20
186.8302348762582
 30
0.0
 42
-0.8740078740124785
  0
VERTEX
  5
1DA
  8
0
 10
180.4393861293234
 20
180.8842315016877
 30
0.0
 42
0.337581177100402
  0
VERTEX
  5
1DB
  8
0
 10
177.0108147007515
 20
177.4556600731159
 30
0.0
 42
-0.3733925093438132
  0
VERTEX
  5
1DC
  8
0
 10
174.0590922727322
 20
174.8573086577343
 30
0.0
 42
0.1970695669014127
  0
VERTEX
  5
1DD
  8
0
 10
167.0589553249837
 20
171.9286280321555
 30
0.0
  0
VERTEX
  5
1DE
  8
0
 10
113.9340891776547
 20
118.803761884884
 30
0.0
 42
0.0377426060985846
  0
VERTEX
  5
1DF
  8
0
 10
109.0210001516621
 20
113.0871424257094
 30
0.0
  0
VERTEX
  5
1E0
  8
0
 10
108.5347460346731
 20
112.4215562611126
 30
0.0
 42
0.5131326263677374
  0
VERTEX
  5
1E1
  8
0
 10
109.5593957406244
 20
109.3378747375578
 30
0.0
 42
-0.3283402528679901
  0
VERTEX
  5
1E2
  8
0
 10
112.7218357450657
 20
105.041255920573
 30
0.0
  0
VERTEX
  5
1E3
  8
0
 10
112.7218357450657
 20
88.04125592057302
 30
0.0
 42
-0.3283402528679893
  0
VERTEX
  5
1E4
  8
0
 10
109.5593957406244
 20
83.7446371035882
 30
0.0
 42
0.5131326263677385
  0
VERTEX
  5
1E5
  8
0
 10
108.5347460346731
 20
80.66095558003336
 30
0.0
  0
VERTEX
  5
1E6
  8
0
 10
109.0210001516606
 20
79.99536941543552
 30
0.0
 42
0.0377426060985841
  0
VERTEX
  5
1E7
  8
0
 10
113.9340891776534
 20
74.27874995626074
 30
0.0
  0
VERTEX
  5
1E8
  8
0
 10
167.0589553249836
 20
21.15388380899038
 30
0.0
 42
0.1970695669014101
  0
VERTEX
  5
1E9
  8
0
 10
174.0590922727322
 20
18.22520318341163
 30
0.0
 42
-0.3733925093438156
  0
VERTEX
  5
1EA
  8
0
 10
177.0108147007515
 20
15.62685176803005
 30
0.0
 42
0.3375811771003991
  0
VERTEX
  5
1EB
  8
0
 10
180.4393861293234
 20
12.19828033945816
 30
0.0
 42
-0.8740078740124834
  0
VERTEX
  5
1EC
  8
0
 10
180.4393861293234
 20
6.252276964887644
 30
0.0
 42
0.3375811771003993
  0
VERTEX
  5
1ED
  8
0
 10
177.0108147007515
 20
2.823705536315831
 30
0.0
 42
-0.8740078740124834
  0
VERTEX
  5
1EE
  8
0
 10
171.064811326181
 20
2.823705536315831
 30
0.0
 42
0.3375811771003965
  0
VERTEX
  5
1EF
  8
0
 10
167.6362398976091
 20
6.252276964887672
 30
0.0
 42
-0.3733925093438098
  0
VERTEX
  5
1F0
  8
0
 10
165.0378884822279
 20
9.203999392906978
 30
0.0
 42
0.1970695669014104
  0
VERTEX
  5
1F1
  8
0
 10
162.109207856649
 20
16.20413634065572
 30
0.0
  0
VERTEX
  5
1F2
  8
0
 10
138.3830571719713
 20
39.93028702532824
 30
0.0
 42
0.0851835199861368
  0
VERTEX
  5
1F3
  8
0
 10
99.71344856308743
 20
67.27160823313748
 30
0.0
 42
0.0068461364289525
  0
VERTEX
  5
1F4
  8
0
 10
96.18811455831151
 20
68.89605555617338
 30
0.0
 42
0.2121497714010819
  0
VERTEX
  5
1F5
  8
0
 10
87.25555693182001
 20
68.89605555617307
 30
0.0
 42
0.0068461364289461
  0
VERTEX
  5
1F6
  8
0
 10
83.7302229270439
 20
67.27160823313751
 30
0.0
 42
0.0851835199861369
  0
VERTEX
  5
1F7
  8
0
 10
45.06061431816021
 20
39.9302870253285
 30
0.0
  0
VERTEX
  5
1F8
  8
0
 10
21.33446363348292
 20
16.20413634065569
 30
0.0
 42
0.197069566901414
  0
VERTEX
  5
1F9
  8
0
 10
18.40578300790403
 20
9.203999392906978
 30
0.0
 42
-0.3733925093438136
  0
VERTEX
  5
1FA
  8
0
 10
15.80743159252279
 20
6.252276964887672
 30
0.0
 42
0.3375811771003993
  0
VERTEX
  5
1FB
  8
0
 10
12.37886016395098
 20
2.823705536315831
 30
0.0
 42
-0.8740078740124793
  0
SEQEND
  5
255
  8
0
  0
POLYLINE
  5
AB
  8
0
 66
     1
 10
0.0
 20
0.0
 30
0.0
 70
     1
  0
VERTEX
  5
1FC
  8
0
 10
82.97183574506569
 20
118.1589106680039
 30
0.0
 42
0.9999999999999978
  0
VERTEX
  5
1FD
  8
0
 10
84.52183574506567
 20
118.1589106680039
 30
0.0
  0
VERTEX
  5
1FE
  8
0
 10
84.52183574506567
 20
121.9236011731421
 30
0.0
 42
1.0
  0
VERTEX
  5
1FF
  8
0
 10
82.97183574506569
 20
121.9236011731421
 30
0.0
  0
SEQEND
  5
256
  8
0
  0
POLYLINE
  5
AC
  8
0
 66
     1
 10
0.0
 20
0.0
 30
0.0
 70
     1
  0
VERTEX
  5
200
  8
0
 10
98.92183574506562
 20
118.1589106680039
 30
0.0
 42
0.9999999999999983
  0
VERTEX
  5
201
  8
0
 10
100.4718357450656
 20
118.1589106680039
 30
0.0
  0
VERTEX
  5
202
  8
0
 10
100.4718357450656
 20
121.9236011731421
 30
0.0
 42
1.0
  0
VERTEX
  5
203
  8
0
 10
98.92183574506562
 20
121.9236011731421
 30
0.0
  0
SEQEND
  5
257
  8
0
  0
POLYLINE
  5
AD
  8
0
 66
     1
 10
0.0
 20
0.0
 30
0.0
 70
     1
  0
VERTEX
  5
204
  8
0
 10
81.72183574525927
 20
107.5412559207741
 30
0.0
 42
0.4142135623730951
  0
VERTEX
  5
205
  8
0
 10
80.72183574525927
 20
106.5412559207741
 30
0.0
 42
0.4142135623730951
  0
VERTEX
  5
206
  8
0
 10
81.72183574525927
 20
105.5412559207741
 30
0.0
 42
0.4142135623730951
  0
VERTEX
  5
207
  8
0
 10
82.72183574525927
 20
106.5412559207741
 30
0.0
 42
0.4142135623730951
  0
SEQEND
  5
258
  8
0
  0
POLYLINE
  5
AE
  8
0
 66
     1
 10
0.0
 20
0.0
 30
0.0
 70
     1
  0
VERTEX
  5
208
  8
0
 10
101.7218357454093
 20
107.5412559209027
 30
0.0
 42
0.4142135623730951
  0
VERTEX
  5
209
  8
0
 10
100.7218357454093
 20
106.5412559209027
 30
0.0
 42
0.4142135623730951
  0
VERTEX
  5
20A
  8
0
 10
101.7218357454093
 20
105.5412559209027
 30
0.0
 42
0.4142135623730951
  0
VERTEX
  5
20B
  8
0
 10
102.7218357454093
 20
106.5412559209027
 30
0.0
 42
0.4142135623730951
  0
SEQEND
  5
259
  8
0
  0
POLYLINE
  5
AF
  8
0
 66
     1
 10
0.0
 20
0.0
 30
0.0
 70
     1
  0
VERTEX
  5
20C
  8
0
 10
81.72183574509636
 20
87.54125592060676
 30
0.0
 42
0.4142135623730951
  0
VERTEX
  5
20D
  8
0
 10
80.72183574509636
 20
86.54125592060676
 30
0.0
 42
0.4142135623730951
  0
VERTEX
  5
20E
  8
0
 10
81.72183574509636
 20
85.54125592060676
 30
0.0
 42
0.4142135623730951
  0
VERTEX
  5
20F
  8
0
 10
82.72183574509636
 20
86.54125592060676
 30
0.0
 42
0.4142135623730951
  0
SEQEND
  5
25A
  8
0
  0
POLYLINE
  5
B0
  8
0
 66
     1
 10
0.0
 20
0.0
 30
0.0
 70
     1
  0
VERTEX
  5
210
  8
0
 10
101.7218357451498
 20
87.54125592064118
 30
0.0
 42
0.4142135623730951
  0
VERTEX
  5
211
  8
0
 10
100.7218357451498
 20
86.54125592064118
 30
0.0
 42
0.4142135623730951
  0
VERTEX
  5
212
  8
0
 10
101.7218357451498
 20
85.54125592064118
 30
0.0
 42
0.4142135623730951
  0
VERTEX
  5
213
  8
0
 10
102.7218357451498
 20
86.54125592064118
 30
0.0
 42
0.4142135623730951
  0
SEQEND
  5
25B
  8
0
  0
ENDSEC
  0
EOF
